<?xml version="1.0" encoding="UTF-8" standalone="no"?>
<!-- Created using Karbon, part of Calligra: http://www.calligra.org/karbon -->

<svg
   xmlns:dc="http://purl.org/dc/elements/1.1/"
   xmlns:cc="http://creativecommons.org/ns#"
   xmlns:rdf="http://www.w3.org/1999/02/22-rdf-syntax-ns#"
   xmlns:svg="http://www.w3.org/2000/svg"
   xmlns="http://www.w3.org/2000/svg"
   xmlns:sodipodi="http://sodipodi.sourceforge.net/DTD/sodipodi-0.dtd"
   xmlns:inkscape="http://www.inkscape.org/namespaces/inkscape"
   width="862.8988"
   height="440.9975"
   id="svg3026"
   version="1.1"
   inkscape:version="0.48.5 r10040"
   sodipodi:docname="ownCloud presentation Icons.svg">
  <metadata
     id="metadata3088">
    <rdf:RDF>
      <cc:Work
         rdf:about="">
        <dc:format>image/svg+xml</dc:format>
        <dc:type
           rdf:resource="http://purl.org/dc/dcmitype/StillImage" />
        <dc:title />
      </cc:Work>
    </rdf:RDF>
  </metadata>
  <sodipodi:namedview
     pagecolor="#ffffff"
     bordercolor="#666666"
     borderopacity="1"
     objecttolerance="10"
     gridtolerance="10"
     guidetolerance="10"
     inkscape:pageopacity="0"
     inkscape:pageshadow="2"
     inkscape:window-width="1920"
     inkscape:window-height="1022"
     id="namedview3086"
     showgrid="false"
     fit-margin-top="2"
     fit-margin-left="2"
     fit-margin-right="2"
     fit-margin-bottom="2"
     inkscape:zoom="0.89702822"
     inkscape:cx="462.03498"
     inkscape:cy="200.34741"
     inkscape:window-x="-2"
     inkscape:window-y="418"
     inkscape:window-maximized="1"
     inkscape:current-layer="layer0" />
  <defs
     id="defs3028" />
  <g
     id="layer0"
     transform="translate(-16,-187)">
    <g
       id="group0"
       transform="translate(17.375,188.375)"
       style="fill:#1d2d44">
      <path
         id="Freeform 7"
         transform="translate(0.625,16.4636)"
         d="m 52.0863,6.54898 c -0.3119,0.31184 -0.3119,0.31184 -0.3119,0.31184 -2.807,1.87113 -4.9903,4.36598 -5.926,7.48448 -0.6238,1.5593 -0.9357,3.1186 -0.9357,4.6779 0,2.4948 0.3119,4.6778 1.2476,6.549 1.2476,2.4948 3.119,4.6778 5.6141,5.9252 0.6238,0.6237 1.2476,0.6237 1.8714,1.2474 0,0 0,0 0,0 0,0 0,0 0,0.3119 -0.9357,3.1186 -2.4952,5.9253 -4.3665,8.7319 -0.9357,1.5593 -1.8714,2.8068 -2.8071,4.0541 -0.9357,0.9356 -1.8714,1.8712 -2.8071,2.4949 -0.9356,0.9356 -1.8713,1.5593 -3.1189,1.5593 -1.2476,0.3118 -2.8071,0.3118 -4.0546,0 -0.9357,-0.3118 -1.5595,-0.3118 -2.1833,-0.6237 -0.9356,-0.6237 -1.8713,-0.9356 -2.807,-1.2474 -1.5595,-0.3119 -2.807,-0.6238 -4.3665,-0.3119 -1.5595,0 -3.119,0.6237 -4.3665,0.9356 -0.9357,0.3118 -1.5595,0.9356 -2.4952,1.2474 -0.9357,0.3118 -1.8714,0.3118 -3.119,0.3118 -0.9356,0 -1.8713,0 -2.807,-0.6236 -0.9357,-0.3119 -1.8713,-1.2475 -2.807,-1.8712 C 10.2925,46.4665 9.35684,45.5309 8.73305,44.2835 7.17356,42.4123 5.92598,40.8531 4.99031,38.6701 3.11894,35.2397 1.55947,31.1856 0.623788,27.1315 0.311894,25.5722 0.311894,24.0129 0,22.1418 0,19.335 0,16.2165 0.935684,13.098 1.55947,10.6031 2.80705,8.10826 4.36651,6.23713 6.86167,3.43041 9.66874,1.55928 13.0995,0.623713 c 1.2476,-0.311857 2.8071,-0.311857 4.0546,-0.311857 0.9357,0 2.1833,0.311857 3.119,0.623709 0.9357,0.311855 2.1833,0.623715 3.4308,1.247425 0.6238,0.31185 1.2476,0.31185 2.1833,0.62371 0.9357,0.31186 1.8714,0.31186 2.8071,0 C 29.6299,2.49484 30.8775,2.18299 31.8132,1.87113 33.0608,1.24742 34.3083,0.623713 35.8678,0.311856 36.8035,0.311856 38.051,0 39.2986,0 c 2.8071,0 5.3022,0.623713 7.7974,2.18299 1.8714,0.93557 3.4308,2.49484 4.6784,4.36599 0,0 0,0 0.3119,0 z"
         inkscape:connector-curvature="0"
         style="fill:#1d2d44" />
      <path
         id="Freeform 8"
         transform="translate(27.4479,0.625)"
         d="m 13.0476,0 c 0,0.620441 0.3107,1.24088 0,1.86132 0,3.72265 -1.5533,6.51463 -3.72787,9.30658 -1.86393,1.5512 -3.72788,3.1023 -6.21315,3.7227 -0.93197,0.3102 -1.86395,0.3102 -2.795922,0.3102 0,0 -0.310658,0 -0.310658,0 C 0,14.5804 0,14.2702 0,13.6497 0,11.7884 0.310658,9.92706 1.24263,8.37595 3.41724,4.03287 6.52382,1.55111 10.873,0.310221 11.4943,0 12.4263,0 13.0476,0 c 0,0 0,0 0,0 z"
         inkscape:connector-curvature="0"
         style="fill:#1d2d44" />
    </g>
    <g
       id="group1"
       transform="translate(127.926,191.028)"
       style="fill:none">
      <path
         id="Freeform 126"
         transform="translate(10.2628,23.6966)"
         d="M 0.311516,0 C 0.311516,1.86997 0,19.6347 0,25.8679 c 0.311516,3.1167 2.18061,4.9866 4.98425,4.9866 0.93455,0 1.8691,0 2.80364,0 0,3.1167 0,5.9216 0,9.0382 0,1.87 1.24609,3.4283 3.11521,4.0516 1.5575,0.3117 3.4266,0 4.3612,-1.87 0.623,-0.6233 0.9345,-1.5583 0.9345,-2.4933 0,-2.8049 0,-5.6098 0,-8.4148 1.8691,0 3.4267,0 5.2958,0 0,1.2466 0,2.805 0,4.0516 0,1.5583 -0.3115,2.8049 0,4.3632 0,2.805 1.8691,4.675 4.3613,4.3633 2.4921,0 4.0497,-1.87 4.0497,-4.6749 0,-2.8049 0,-5.2982 0,-8.4149 0.9345,0 1.8691,0 2.8036,0 2.8037,0 4.6728,-1.8699 4.6728,-4.6749 0,-7.7915 0,-24.30963 0,-26.1796 L 0.311516,0 z"
         inkscape:connector-curvature="0"
         style="fill:#1d2d44" />
      <path
         id="Freeform 127"
         transform="translate(49.2393,22.6152)"
         d="m 0,12.866 c 0,2.8138 0,5.6276 0,8.4414 0,1.8759 0.940946,3.4391 2.82284,4.0644 2.82284,0.9379 5.64568,-1.2506 5.64568,-4.377 0,-5.6276 0,-10.9426 0,-16.25759 0,-0.62528 0,-0.93793 -0.31365,-1.56321 C 7.84122,0.985477 5.95933,-0.265104 3.45013,0.0475416 1.56824,0.0475416 0,2.23606 0,4.11193 0,6.92573 0,9.73956 0,12.866 z"
         inkscape:connector-curvature="0"
         style="fill:#1d2d44" />
      <path
         id="Freeform 128"
         transform="translate(0.625,22.7399)"
         d="m 0,12.4448 c 0,2.8001 0,5.6002 0,8.4002 0,2.489 1.88189,4.6669 4.39109,4.6669 2.19554,0 4.07743,-2.1779 4.07743,-4.6669 0,-5.289 0,-10.88915 0,-16.48931 C 8.46852,1.86672 6.90028,0 4.39109,0 1.88189,0 0,1.86672 0,4.35569 0,7.15577 0,9.95585 0,12.4448 z"
         inkscape:connector-curvature="0"
         style="fill:#1d2d44" />
      <path
         id="Freeform 129"
         transform="translate(10.3407,0.558765)"
         d="m 0.233637,21.5433 c 37.070463,0 37.070463,0 37.070463,0 -0.3115,-6.8689 -3.7382,-11.55219 -9.3455,-14.98663 -0.3115,0 -0.3115,0 -0.6231,-0.31222 C 30.7622,0.312223 30.7622,0.312223 30.7622,0.312223 30.1392,0 30.1392,0 30.1392,0 26.7125,5.93222 26.7125,5.93222 26.7125,5.93222 21.4167,3.74667 16.121,3.74667 10.8252,5.93222 7.39851,0 7.39851,0 7.39851,0 6.77547,0.312223 6.77547,0.312223 6.77547,0.312223 10.2022,6.55667 10.2022,6.55667 10.2022,6.55667 9.26761,6.8689 8.64456,7.18111 8.33306,7.49334 3.66032,10.3033 0.85667,14.3622 0.233637,19.9822 c -0.311516,0.9367 -0.311516,1.2489 0,1.5611 z M 27.3355,11.8645 c 0.9346,0 1.5576,0.6244 1.5576,1.5611 0,0.9366 -0.623,1.5611 -1.5576,1.5611 -0.9345,0 -1.5575,-0.6245 -1.5575,-1.5611 0,-0.9367 0.623,-1.5611 1.5575,-1.5611 z m -17.1333,0 c 0.9345,0 1.5576,0.6244 1.5576,1.5611 0,0.9366 -0.6231,1.5611 -1.5576,1.5611 -0.93459,0 -1.55764,-0.6245 -1.55764,-1.5611 0,-0.9367 0.62305,-1.5611 1.55764,-1.5611 z"
         inkscape:connector-curvature="0"
         style="fill:#1d2d44" />
    </g>
    <path
       id="Freeform 21"
       transform="translate(238.536,191.729)"
       d="M 49.0218,0 C 2.81017,0 2.81017,0 2.81017,0 1.24896,0 0,1.24857 0,2.80927 0,64.6132 0,64.6132 0,64.6132 c 0,1.5608 1.24896,2.4972 2.81017,2.4972 46.21163,0 46.21163,0 46.21163,0 1.5612,0 2.498,-0.9364 2.498,-2.4972 0,-61.80393 0,-61.80393 0,-61.80393 C 51.5198,1.24857 50.583,0 49.0218,0 z M 25.916,66.174 c -0.9367,0 -1.5612,-0.6244 -1.5612,-1.5608 0,-0.9364 0.6245,-1.8728 1.5612,-1.8728 0.9367,0 1.5612,0.9364 1.5612,1.8728 0,0.9364 -0.6245,1.5608 -1.5612,1.5608 z m 20.9202,-4.6822 c -42.15258,0 -42.15258,0 -42.15258,0 0,-55.56112 0,-55.56112 0,-55.56112 42.15258,0 42.15258,0 42.15258,0 l 0,55.56112 z"
       inkscape:connector-curvature="0"
       style="fill:#1d2d44" />
    <path
       id="Freeform 26"
       transform="translate(342.957,191.445)"
       d="M 33.5006,0 C 4.69635,0 4.69635,0 4.69635,0 2.19162,0 0,2.182 0,4.98742 0,62.6544 0,62.6544 0,62.6544 c 0,2.8055 2.19162,4.9874 4.69635,4.9874 28.80425,0 28.80425,0 28.80425,0 2.5047,0 4.6963,-2.1819 4.6963,-4.9874 0,-57.66698 0,-57.66698 0,-57.66698 C 38.1969,2.182 36.0053,0 33.5006,0 z m -17.533,4.36399 c 6.2617,0 6.2617,0 6.2617,0 0,2.182 0,2.182 0,2.182 -6.2617,0 -6.2617,0 -6.2617,0 l 0,-2.182 z m 3.1309,60.78421 c -1.5655,0 -3.1309,-1.5586 -3.1309,-3.1172 0,-1.8703 1.5654,-3.1171 3.1309,-3.1171 1.8785,0 3.1308,1.2468 3.1308,3.1171 0,1.5586 -1.2523,3.1172 -3.1308,3.1172 z m 15.6544,-8.4163 c -31.30892,0 -31.30892,0 -31.30892,0 0,-45.8219 0,-45.8219 0,-45.8219 31.30892,0 31.30892,0 31.30892,0 l 0,45.8219 z"
       inkscape:connector-curvature="0"
       style="fill:#1d2d44" />
    <path
       id="Freeform 31"
       transform="translate(434.02,191.587)"
       d="m 42.4417,59.5936 c 0,-0.624 -0.312,-1.248 -0.312,-1.56 -16.2278,0 -16.2278,0 -16.2278,0 0,0.936 -0.312,2.496 -0.9362,3.4321 -0.3121,1.248 -0.9362,2.496 -1.8724,3.12 -0.9362,0.9361 -1.8724,1.5601 -3.4328,1.5601 0,1.248 0,1.248 0,1.248 28.7106,0 28.7106,0 28.7106,0 0,-1.248 0,-1.248 0,-1.248 -1.2483,0 -2.4966,-0.624 -3.4328,-1.5601 -1.2483,-0.936 -2.1845,-3.12 -2.4966,-4.9921 z M 66.1592,0 C 1.87243,0 1.87243,0 1.87243,0 0.936217,0 0,0.624017 0,1.87205 0,52.4174 0,52.4174 0,52.4174 c 0,1.248 0.936217,2.1841 1.87243,2.1841 64.28677,0 64.28677,0 64.28677,0 0.9362,0 1.8724,-0.9361 1.8724,-2.1841 0,-50.54535 0,-50.54535 0,-50.54535 C 68.0316,0.624017 67.0954,0 66.1592,0 z m -2.8086,41.1851 c -58.66953,0 -58.66953,0 -58.66953,0 0,-36.50498 0,-36.50498 0,-36.50498 58.66953,0 58.66953,0 58.66953,0 l 0,36.50498 z"
       inkscape:connector-curvature="0"
       style="fill:#1d2d44" />
    <path
       id="Freeform 36"
       transform="translate(554.954,191.587)"
       d="m 82.9353,50.2333 c -75.7642,0 -75.7642,0 -75.7642,0 -5.61217,11.2324 -5.61217,11.2324 -5.61217,11.2324 86.98857,0 86.98857,0 86.98857,0 L 82.9353,50.2333 z m -47.3915,8.4243 c 2.1824,-4.3681 2.1824,-4.3681 2.1824,-4.3681 14.654,0 14.654,0 14.654,0 2.1825,4.3681 2.1825,4.3681 2.1825,4.3681 l -19.0189,0 z M 81.6882,47.7373 c 0,0 -0.3118,0 -0.3118,0 0,-0.312 0.3118,-0.312 0.3118,-0.312 0,-45.55325 0,-45.55325 0,-45.55325 C 81.6882,0.936026 80.7529,0 79.5057,0 10.289,0 10.289,0 10.289,0 9.35359,0 8.41825,0.936026 8.41825,1.87205 c 0,45.55325 0,45.55325 0,45.55325 0,0 0,0 0,0.312 0,0 0,0 0,0 0,0 0,0 0,0 73.26995,0 73.26995,0 73.26995,0 z m -5.3004,-3.4321 c -62.981,0 -62.981,0 -62.981,0 0,-39.31306 0,-39.31306 0,-39.31306 62.981,0 62.981,0 62.981,0 l 0,39.31306 z M 89.7947,63.9617 C 0,63.9617 0,63.9617 0,63.9617 c 0,0.3121 0,0.3121 0,0.3121 0,1.248 0.935359,3.12 1.87072,3.12 86.05328,0 86.05328,0 86.05328,0 1.2471,0 2.1825,-1.872 2.1825,-3.12 l -0.3118,-0.3121 z"
       inkscape:connector-curvature="0"
       style="fill:#1d2d44" />
    <path
       id="Freeform 41"
       transform="translate(565.867,307.255)"
       d="m 21.5413,48.9357 c 1.2487,-0.6241 2.8097,-1.2481 4.3706,-1.8721 2.1854,-0.936 4.3707,-1.872 6.2438,-2.8081 0,-0.312 0,-0.6239 -0.3121,-0.6239 -0.3122,0 -0.6245,-0.312 -1.2488,-0.312 0,-1.5601 0.9366,-1.5601 1.2488,-2.8081 0.3121,-0.936 0.3121,-2.184 0.6244,-3.12 0.3121,-0.624 1.2487,-0.624 1.5609,-1.2481 0.3122,-0.6239 0.6244,-1.5599 0.9365,-2.184 0,-0.312 0,-0.624 0,-0.936 -2.1853,-2.184 -2.4974,-5.928 -2.4974,-8.7361 -0.3123,-0.312 -0.3123,-0.624 -0.3123,-0.936 0,-1.248 0.6244,-1.872 0.9366,-2.496 0,-0.312 0,-0.312 0,-0.312 -0.3122,-1.2481 -0.3122,-2.4961 -0.6243,-3.7441 -1.561,-0.312 -1.561,-0.312 -1.561,-0.312 -0.9366,-0.624 -0.9366,-0.624 -0.9366,-0.624 -4.0585,-2.496 -8.117,-0.936 -10.6145,0 -3.4342,1.248 -5.3073,5.9281 -4.0585,12.7922 0.3122,1.248 -0.6244,1.56 -0.3122,2.184 0,1.56 0,4.992 1.2488,5.9281 0.3121,0 1.2487,0.312 1.2487,0 0,1.56 0.3122,2.808 0.3122,4.3681 0.3122,0.9359 1.2488,0.9359 1.2488,2.184 -0.9366,0.312 -0.9366,0.312 -0.9366,0.312 -0.3122,0.936 -1.2488,2.808 -2.1854,3.432 -0.6243,0.312 -1.2487,0.312 -2.1853,0.624 -2.4975,0.936 -5.30723,2.184 -7.80476,3.4321 C 3.7463,52.0557 0.936575,52.3676 0,54.8637 c 0,1.56 0,5.616 0,7.4881 11.2389,0 11.2389,0 11.2389,0 0,-0.624 0,-1.248 0,-1.8721 0.3122,-1.5599 0.3122,-3.1199 0.3122,-3.744 0,-0.624 0,-0.624 0,-0.624 0,-0.312 0,-0.312 0,-0.312 1.5609,-4.056 4.995,-5.3041 7.8048,-6.2401 0.9365,-0.3119 1.5609,-0.6239 2.1854,-0.6239 z m 77.1112,5.928 c -0.6244,-2.4961 -3.4341,-2.808 -5.9315,-3.744 -2.4976,-1.2481 -5.3073,-2.4961 -7.8049,-3.4321 -0.6244,-0.312 -1.561,-0.312 -2.1853,-0.624 -0.9366,-0.624 -1.561,-2.496 -2.1854,-3.432 -0.3121,0 -0.9366,-0.312 -1.2487,-0.312 0,-1.5601 0.9366,-1.5601 1.2487,-2.8081 0.3123,-0.936 0,-2.184 0.6244,-3.12 0.3122,-0.624 1.2488,-0.624 1.561,-1.2481 0.3122,-0.6239 0.6243,-1.5599 0.6243,-2.184 0.3123,-0.936 0.6244,-2.496 0,-3.744 -0.3121,-0.624 -0.6243,-0.624 -0.6243,-1.56 0,-0.9361 0.3122,-4.0561 0.3122,-4.6801 0,-1.872 0,-3.432 -0.6244,-4.992 0,0 -0.3122,-1.5601 -1.2488,-2.1841 -1.561,-0.312 -1.561,-0.312 -1.561,-0.312 -0.9365,-0.624 -0.9365,-0.624 -0.9365,-0.624 -4.0585,-2.496 -8.4292,-0.936 -10.6145,0 -1.2488,0.312 -2.4975,1.56 -3.122,2.8081 0,0.6239 0,0.9359 0,0.9359 0,0.312 0,0.312 0,0.312 0,0 0,0 0,0.3121 0,0 0.3122,0.312 0.6245,0.624 0.9365,2.496 0.6243,5.304 0.3121,7.176 -0.3121,0.9361 -0.6244,2.8081 -1.561,4.0561 -0.3121,0.312 -0.3121,0.6241 -0.6243,0.6241 0,1.5599 0.3122,3.4319 1.2487,4.056 0.3122,0 1.2488,0.312 1.2488,0 0,1.56 0,2.808 0.3122,4.3681 0.3122,0.9359 0.9366,0.9359 1.2488,2.184 -0.9366,0.312 -0.9366,0.312 -0.9366,0.312 0,0 -0.3122,0.3119 -0.3122,0.6239 2.1853,0.9361 4.3707,1.8721 6.556,2.8081 1.561,0.624 2.8098,1.248 4.3707,1.8721 0.6244,0 1.2488,0.312 1.8732,0.6239 2.8097,0.936 6.556,2.1841 7.8047,6.2401 0.3123,0.312 0.3123,0.312 0.3123,0.312 0,0.624 0,0.624 0,0.624 0,0.6241 0,2.1841 0,3.744 0,0.6241 0,1.2481 0,1.8721 11.551,0 11.551,0 11.551,0 0,-1.8721 -0.3122,-5.9281 -0.3122,-7.4881 z m -22.4778,-3.432 c -3.434,-1.5601 -7.4926,-3.4321 -10.9267,-4.6801 -0.9366,-0.312 -2.1853,-0.624 -3.1219,-0.936 -1.2487,-0.936 -2.4975,-3.4321 -3.1218,-4.992 -0.6245,0 -1.2489,-0.3121 -1.8732,-0.3121 0,-2.184 1.5609,-2.184 1.8732,-3.744 0.6243,-1.56 0,-3.4321 0.9365,-4.6801 0.3122,-0.936 1.5609,-0.936 2.1853,-1.56 0.6244,-0.936 0.9366,-2.184 0.9366,-3.1201 0.3122,-1.56 0.6244,-3.744 -0.3122,-5.304 -0.3122,-0.936 -0.6244,-0.936 -0.6244,-2.1841 -0.3121,-1.2479 0.3122,-5.616 0.3122,-6.552 0,-2.4961 0,-4.6801 -0.6243,-7.17612 0,0 -0.6244,-2.18402 -1.8732,-2.80803 -2.1854,-0.312 -2.1854,-0.312 -2.1854,-0.312 C 56.1945,1.82304 56.1945,1.82304 56.1945,1.82304 50.575,-1.60901 44.6434,0.575016 41.5214,2.13503 36.8386,3.69506 33.7167,10.2472 35.902,19.9192 c 0.3123,1.5601 -0.9366,2.4961 -0.9366,3.1201 0.3123,2.184 0.3123,6.8641 2.1854,8.1121 0.3122,0 1.5609,0.312 1.5609,0.312 0,1.872 0.3123,3.7441 0.6244,5.9281 0.3122,1.248 1.561,1.248 1.8732,3.12 -1.561,0.3121 -1.561,0.3121 -1.561,0.3121 -0.6243,1.5599 -1.8732,4.056 -3.1219,4.992 -0.9366,0.312 -1.8731,0.624 -2.8097,0.936 -3.7463,1.248 -7.4926,3.12 -11.2389,4.6801 -3.1219,1.248 -7.1804,1.872 -8.117,5.304 0,2.1841 -0.3122,7.4881 -0.3122,10.6082 70.5554,0 70.5554,0 70.5554,0 0,-3.1201 0,-8.4241 0,-10.6082 -1.2489,-3.432 -4.9952,-4.056 -8.4293,-5.304 z"
       inkscape:connector-curvature="0"
       style="fill:#1d2d44" />
    <path
       id="Freeform 46"
       transform="translate(700.371,307.483)"
       d="m 48.988,6.42463 c 0.624,2.49831 0.624,2.49831 0.624,4.99667 0,1.2492 -0.624,5.6213 -0.312,6.8705 0,1.2492 0.312,1.2492 0.9361,2.1861 0.624,1.8737 0.312,4.0598 0,5.6213 0,0.9369 -0.3121,2.1861 -0.9361,2.8107 -0.624,0.9368 -1.8722,0.9368 -2.1842,1.8737 -0.936,1.5615 -0.312,3.4352 -0.936,4.6844 -0.6241,1.8738 -1.8722,1.8738 -1.8722,4.0599 0.6241,0 1.2481,0.3122 1.8722,0.3122 0.624,1.5615 1.8721,4.3722 3.1202,4.9968 0.9361,0.3123 2.1842,0.6246 3.1203,0.9368 3.7443,1.5615 7.8006,3.4353 11.2329,4.9967 3.4322,1.2492 7.4886,1.8738 8.7367,5.3091 0,2.186 0,7.8073 0,10.9303 C 0,67.0098 0,67.0098 0,67.0098 0,63.8868 0.312025,58.2655 0.312025,56.0795 1.56013,52.6442 5.30443,52.0196 8.73674,50.7704 12.481,49.209 16.5373,47.3352 19.9696,45.7737 c 1.2481,-0.3122 2.1842,-0.6245 3.1203,-0.9368 1.2481,-0.6246 2.4962,-3.4353 3.1202,-4.9968 1.5602,-0.3122 1.5602,-0.3122 1.5602,-0.3122 -0.3121,-1.8738 -1.5602,-2.1861 -1.8722,-3.4353 -0.312,-1.8738 -0.312,-4.0598 -0.624,-5.9336 0,0 -1.2481,-0.3123 -1.5602,-0.3123 -1.8721,-1.2492 -1.8721,-6.2459 -2.1841,-8.1196 0,-0.9369 1.248,-1.8738 0.936,-3.4353 -2.1842,-9.99338 0.9361,-14.67784 5.6165,-16.23931 3.4323,-1.249181 9.6728,-3.74754 15.2892,-0.31229 1.5602,1.24917 1.5602,1.24917 1.5602,1.24917 2.1841,0.62459 2.1841,0.62459 2.1841,0.62459 1.2481,0.62459 1.8722,2.81067 1.8722,2.81067 z"
       inkscape:connector-curvature="0"
       style="fill:#1d2d44" />
    <path
       id="Freeform 51"
       transform="translate(697.926,191.587)"
       d="m 0,19.9685 c 0,13.4164 0,13.4164 0,13.4164 68.5631,0 68.5631,0 68.5631,0 0,-13.4164 0,-13.4164 0,-13.4164 L 0,19.9685 z m 8.72623,9.6723 c -3.73982,0 -3.73982,0 -3.73982,0 0,-4.9921 0,-4.9921 0,-4.9921 3.73982,0 3.73982,0 3.73982,0 l 0,4.9921 z m 9.66117,0 c -4.0515,0 -4.0515,0 -4.0515,0 0,-4.9921 0,-4.9921 0,-4.9921 4.0515,0 4.0515,0 4.0515,0 l 0,4.9921 z m 9.3495,0 c -3.7398,0 -3.7398,0 -3.7398,0 0,-4.9921 0,-4.9921 0,-4.9921 3.7398,0 3.7398,0 3.7398,0 l 0,4.9921 z m 33.035,0.312 c -1.5583,0 -3.1166,-1.248 -3.1166,-3.1201 0,-1.56 1.5583,-3.1201 3.1166,-3.1201 1.8698,0 3.1164,1.5601 3.1164,3.1201 0,1.8721 -1.2466,3.1201 -3.1164,3.1201 z M 36.4631,54.2895 c -4.0515,0 -4.0515,0 -4.0515,0 0,9.0482 0,9.0482 0,9.0482 -31.165,0 -31.165,0 -31.165,0 0,4.0561 0,4.0561 0,4.0561 66.3816,0 66.3816,0 66.3816,0 0,-4.0561 0,-4.0561 0,-4.0561 -31.1651,0 -31.1651,0 -31.1651,0 l 0,-9.0482 z M 50.799,0 C 17.7641,0 17.7641,0 17.7641,0 4.36311,15.2884 4.36311,15.2884 4.36311,15.2884 c 60.14849,0 60.14849,0 60.14849,0 L 50.799,0 z M 0,51.4814 c 68.5631,0 68.5631,0 68.5631,0 0,-13.4164 0,-13.4164 0,-13.4164 C 0,38.065 0,38.065 0,38.065 l 0,13.4164 z m 60.7719,-9.3603 c 1.8698,0 3.1164,1.2481 3.1164,2.8081 0,1.872 -1.2466,3.1201 -3.1164,3.1201 -1.5583,0 -3.1166,-1.2481 -3.1166,-3.1201 0,-1.56 1.5583,-2.8081 3.1166,-2.8081 z m -36.7748,0.624 c 3.7398,0 3.7398,0 3.7398,0 0,4.9922 0,4.9922 0,4.9922 -3.7398,0 -3.7398,0 -3.7398,0 l 0,-4.9922 z m -9.6612,0 c 4.0515,0 4.0515,0 4.0515,0 0,4.9922 0,4.9922 0,4.9922 -4.0515,0 -4.0515,0 -4.0515,0 l 0,-4.9922 z m -9.34949,0 c 3.73982,0 3.73982,0 3.73982,0 0,4.9922 0,4.9922 0,4.9922 -3.73982,0 -3.73982,0 -3.73982,0 l 0,-4.9922 z"
       inkscape:connector-curvature="0"
       style="fill:#1d2d44" />
    <path
       id="Freeform 57"
       transform="translate(819.391,191.729)"
       d="m 28.7363,52.1276 c -8.1211,0 -15.6176,-0.9364 -21.55223,-3.1214 C 4.06056,48.0697 1.8741,46.8211 0,45.5726 c 0,11.5492 0,11.5492 0,11.5492 0,3.1214 4.06056,5.9307 10.6199,7.4914 4.9976,1.5608 11.2447,2.4972 18.1164,2.4972 15.9299,0 28.7362,-4.37 28.7362,-9.9886 0,-11.5492 0,-11.5492 0,-11.5492 -1.5617,1.2485 -3.7481,2.4971 -6.8717,3.4336 -5.9346,2.185 -13.7434,3.1214 -21.8645,3.1214 z M 57.4725,38.7055 c 0,-11.8614 0,-11.8614 0,-11.8614 -1.5617,1.2486 -3.7481,2.4972 -6.8717,3.7457 -5.9346,1.8729 -13.7434,3.1215 -21.8645,3.1215 -8.1211,0 -15.6176,-1.2486 -21.55223,-3.1215 C 4.06056,29.3413 1.8741,28.0927 0,26.8441 c 0,11.8614 0,11.8614 0,11.8614 1.2494,5.3064 13.7434,9.3642 28.7363,9.3642 15.3051,0 27.7992,-4.0578 28.7362,-9.3642 z M 0,19.977 c 0.93705,5.3064 13.4311,9.3643 28.7363,9.3643 15.6175,0 28.1115,-4.0579 28.7362,-9.3643 0,-9.9885 0,-9.9885 0,-9.9885 C 57.4725,4.36998 44.6662,0 28.7363,0 13.1187,0 0,4.36998 0,9.9885 l 0,9.9885 z"
       inkscape:connector-curvature="0"
       style="fill:#1d2d44" />
    <path
       id="Freeform 62"
       transform="translate(18,306.001)"
       d="M 84.5619,29.057 C 85.186,27.1823 85.498,24.9953 85.498,23.1206 85.498,10.3106 74.8888,0 62.0953,0 52.7342,0 44.3092,5.93637 40.8768,14.0598 37.7564,10.623 33.388,8.43589 28.3953,8.43589 c -9.0491,0 -16.5379,7.18611 -16.5379,16.24691 0,1.5622 0.3121,3.1244 0.624,4.6866 C 5.30463,31.869 0,39.0551 0,47.491 c 0,10.623 8.42499,19.3713 19.3462,19.3713 59.5991,0 59.5991,0 59.5991,0 10.6092,0 19.3462,-8.7483 19.3462,-19.3713 0,-8.7484 -5.9286,-15.9345 -13.7296,-18.434 z"
       inkscape:connector-curvature="0"
       style="fill:#1d2d44" />
    <path
       id="Freeform 67"
       transform="translate(155.87,306.567)"
       d="M 59.9017,0 C 15.2874,0 15.2874,0 15.2874,0 0,39.0176 0,39.0176 0,39.0176 c 0,28.0928 0,28.0928 0,28.0928 75.1891,0 75.1891,0 75.1891,0 0,-28.4049 0,-28.4049 0,-28.4049 L 59.9017,0 z M 51.478,40.2662 c 0,8.74 0,8.74 0,8.74 0,2.4971 -1.8719,4.37 -4.3678,4.37 -19.0313,0 -19.0313,0 -19.0313,0 -2.4959,0 -4.3678,-1.8729 -4.3678,-4.37 0,-8.74 0,-8.74 0,-8.74 -15.28744,0 -15.28744,0 -15.28744,0 C 20.9032,8.11565 20.9032,8.11565 20.9032,8.11565 c 33.3827,0 33.3827,0 33.3827,0 C 67.0774,40.2662 67.0774,40.2662 67.0774,40.2662 l -15.5994,0 z M 43.0543,13.1099 c -10.2955,0 -10.2955,0 -10.2955,0 0,12.4857 0,12.4857 0,12.4857 -9.6717,0 -9.6717,0 -9.6717,0 14.9754,18.1042 14.9754,18.1042 14.9754,18.1042 14.9754,-18.1042 14.9754,-18.1042 14.9754,-18.1042 -9.9836,0 -9.9836,0 -9.9836,0 l 0,-12.4857 z"
       inkscape:connector-curvature="0"
       style="fill:#1d2d44" />
    <path
       id="Freeform 72"
       transform="translate(266.599,306.319)"
       d="M 32.5613,5.61084 C 30.3697,3.42885 27.5519,1.55857 24.421,0.935142 22.8555,0.311713 20.977,0 19.0985,0 14.089,0 9.0796,2.182 5.63561,5.61084 1.87854,9.35142 0,14.0271 0,19.0145 c 0,1.8703 0,1.8703 0,1.8703 0.313089,2.4937 0.93927,4.9874 2.50472,7.1695 0,0.3116 6.88798,13.0919 6.88798,21.1965 0.31306,2.182 0.31306,2.182 0.31306,2.182 0.62624,1.5585 1.25234,2.4936 2.50474,2.4936 13.7759,0 13.7759,0 13.7759,0 1.2524,0 1.8786,-0.9351 2.5048,-2.4936 0,-2.182 0,-2.182 0,-2.182 0,-8.1046 7.201,-20.8849 7.5141,-21.1965 0.9393,-2.1821 1.8785,-4.6758 2.1916,-7.1695 0,-1.8703 0,-1.8703 0,-1.8703 0,-4.9874 -1.8785,-9.66308 -5.6356,-13.40366 z m 0.6262,14.96226 c 0,1.8703 -0.6262,3.7406 -1.5655,5.2991 -0.6262,1.2469 -7.8272,14.0272 -7.8272,23.0668 0,0 0,0 0,0 -2.1916,0 -2.1916,0 -2.1916,0 0,-8.7279 0,-8.7279 0,-8.7279 -5.0095,0 -5.0095,0 -5.0095,0 0,8.7279 0,8.7279 0,8.7279 -2.1916,0 -2.1916,0 -2.1916,0 0,0 0,0 0,0 0,-6.8577 -4.0701,-15.5856 -7.20103,-22.1317 0,0 0,0 0,0 -0.6262,-0.9351 -0.6262,-0.9351 -0.6262,-0.9351 -0.93926,-1.5585 -1.56542,-3.4288 -1.56542,-5.2991 0,-1.5586 0,-1.5586 0,-1.5586 0,-3.7406 1.25232,-7.1694 4.07015,-9.97478 2.5047,-2.80545 6.2618,-4.0523 10.0189,-4.0523 1.2523,0 2.8177,0 4.0701,0.31171 2.1916,0.93514 4.3833,2.18199 5.9487,3.74059 2.8178,2.80538 4.0702,6.23418 4.0702,9.97478 l 0,1.5586 z M 11.2712,62.031 c 15.6545,0 15.6545,0 15.6545,0 0,-4.9874 0,-4.9874 0,-4.9874 -15.6545,0 -15.6545,0 -15.6545,0 l 0,4.9874 z m 3.444,5.6108 c 8.7665,0 8.7665,0 8.7665,0 0,-2.8054 0,-2.8054 0,-2.8054 -8.7665,0 -8.7665,0 -8.7665,0 l 0,2.8054 z"
       inkscape:connector-curvature="0"
       style="fill:#1d2d44" />
    <path
       id="Freeform 77"
       transform="translate(340.335,306.638)"
       d="m 80.1896,47.3125 0,-16.5197 -33.6875,0 0,-11.2334 6.8695,0 0,-19.5594 -19.684,0 0,19.5594 6.8695,0 0,11.2334 -33.68748,0 0,16.5197 -6.86962,0 0,19.6916 19.6841,0 0,-19.6916 -6.8696,0 0,-10.1761 27.7426,0 0,10.1761 -6.8695,0 0,19.6916 19.684,0 0,-19.6916 -6.8695,0 0,-10.1761 27.7426,0 0,10.1761 -6.8696,0 0,19.6916 19.6841,0 0,-19.6916 -6.8696,0 z"
       inkscape:connector-curvature="0"
       style="fill:#1d2d44" />
    <path
       id="Freeform 82"
       transform="translate(462.934,306.78)"
       d="m 19.3445,56.1201 c 5.6161,0 5.6161,0 5.6161,0 0,-27.4365 0,-27.4365 0,-27.4365 -4.368,0 -4.368,0 -4.368,0 0,0.3118 -0.312,0.6236 -0.312,0.9353 -0.3121,0.9354 -0.624,1.559 -0.9361,2.1825 -0.936,0.6235 -1.872,1.2471 -2.8081,1.2471 -0.624,0.3118 -1.872,0.3118 -3.4321,0.3118 0,3.7414 0,3.7414 0,3.7414 6.2402,0 6.2402,0 6.2402,0 l 0,19.0184 z m 24.3367,0 c 5.3041,0 5.3041,0 5.3041,0 0,-5.9238 0,-5.9238 0,-5.9238 3.1201,0 3.1201,0 3.1201,0 0,-4.0531 0,-4.0531 0,-4.0531 -3.1201,0 -3.1201,0 -3.1201,0 0,-17.4596 0,-17.4596 0,-17.4596 -5.9281,0 -5.9281,0 -5.9281,0 -10.2963,16.8361 -10.2963,16.8361 -10.2963,16.8361 0,4.6766 0,4.6766 0,4.6766 10.9203,0 10.9203,0 10.9203,0 l 0,5.9238 z M 36.817,46.1432 c 6.8642,-11.8476 6.8642,-11.8476 6.8642,-11.8476 0,11.8476 0,11.8476 0,11.8476 l -6.8642,0 z M 16.5364,16.2125 c 1.8721,0 3.1202,-1.2471 3.1202,-3.1178 0,-10.28869 0,-10.28869 0,-10.28869 C 19.6566,1.24711 18.4085,0 16.5364,0 c -1.56,0 -2.808,1.24711 -2.808,2.80601 0,10.28869 0,10.28869 0,10.28869 0,1.8707 1.248,3.1178 2.808,3.1178 z m 34.945,0 c 1.56,0 2.8081,-1.2471 2.8081,-3.1178 0,-10.28869 0,-10.28869 0,-10.28869 C 54.2895,1.24711 53.0414,0 51.4814,0 c -1.8721,0 -3.1201,1.24711 -3.1201,2.80601 0,10.28869 0,10.28869 0,10.28869 0,1.8707 1.248,3.1178 3.1201,3.1178 z M 55.2255,5.30024 c 0,3.11776 0,3.11776 0,3.11776 1.248,0.93536 1.872,2.4942 1.872,4.3649 0,3.1178 -2.496,5.612 -5.6161,5.612 -3.4321,0 -5.9282,-2.4942 -5.9282,-5.612 0,-1.8707 0.624,-3.42954 1.8721,-4.3649 0,-3.11776 0,-3.11776 0,-3.11776 -26.8327,0 -26.8327,0 -26.8327,0 0,3.11776 0,3.11776 0,3.11776 1.248,0.93536 1.872,2.4942 1.872,4.3649 0,3.1178 -2.4961,5.612 -5.9282,5.612 -3.12,0 -5.6161,-2.4942 -5.6161,-5.612 0,-1.8707 0.624,-3.42954 1.8721,-4.3649 0,-3.11776 0,-3.11776 0,-3.11776 C 0,5.30024 0,5.30024 0,5.30024 0,66.7206 0,66.7206 0,66.7206 c 67.3938,0 67.3938,0 67.3938,0 0,-61.42036 0,-61.42036 0,-61.42036 l -12.1683,0 z m 6.2402,55.49656 c -55.22553,0 -55.22553,0 -55.22553,0 0,-38.6605 0,-38.6605 0,-38.6605 55.22553,0 55.22553,0 55.22553,0 l 0,38.6605 z"
       inkscape:connector-curvature="0"
       style="fill:#1d2d44" />
    <g
       id="group2"
       transform="translate(21.4144,432.014)"
       style="fill:#1d2d44">
      <path
         id="Freeform 87"
         transform="translate(15.0109,0.625)"
         d="m 59.5697,4.98235 c -31.5002,0 -31.5002,0 -31.5002,0 -0.9357,0 -1.5594,-1.55697 -1.5594,-2.17977 0,-0.3114 0,-0.3114 0,-0.3114 C 26.5101,1.24559 25.2626,0 24.015,0 8.42086,0 8.42086,0 8.42086,0 7.1733,0 5.92579,1.24559 5.92579,2.49118 c 0,0.3114 0,0.3114 0,0.3114 0,0.6228 -0.62377,2.17977 -1.55942,2.17977 -2.18319,0 -2.18319,0 -2.18319,0 C 0.935649,5.29378 0,6.22794 0,7.47353 c 0,0 0.311883,2.17978 0.311883,4.98237 0.311885,0 0.623766,0 0.935657,0 15.28236,0 15.28236,0 15.28236,0 1.5593,0 2.495,0.9342 2.495,2.4912 0,0 0,0 0,0 0,0.9342 0.9356,2.4912 1.5594,2.4912 31.5003,0 31.5003,0 31.5003,0 1.2475,0.3114 2.1831,1.2456 2.1831,2.4911 0,0 -0.9356,12.1446 -0.9356,16.5042 -0.3119,1.5569 -0.3119,3.7367 -0.3119,6.2279 5.302,0 5.302,0 5.302,0 1.2475,0 1.5594,-0.9342 1.5594,-2.1798 0,0 0.3119,-11.8331 0.6238,-16.5041 0,-4.3595 0.9357,-16.50407 0.9357,-16.50407 0,-1.24559 -0.9357,-2.17975 -1.8714,-2.49118 z"
         inkscape:connector-curvature="0"
         style="fill:#1d2d44" />
      <path
         id="Freeform 88"
         transform="translate(0.625,25.2156)"
         d="m 59.2854,5.30776 c -31.5148,0 -31.5148,0 -31.5148,0 C 26.8345,4.99556 26.2104,3.43444 26.2104,2.81 c 0,-0.31222 0,-0.31222 0,-0.31222 C 26.2104,1.24889 24.9623,0 23.7142,0 8.11274,0 8.11274,0 8.11274,0 6.86463,0 5.61651,1.24889 5.61651,2.49778 c 0,0.31222 0,0.31222 0,0.31222 0,0.62444 -0.62405,2.18556 -1.56014,2.49776 -2.1842,0 -2.1842,0 -2.1842,0 C 0.624058,5.30776 0,6.24447 0,7.49334 c 0,0 0.624058,12.48886 0.936084,16.85996 0,4.3712 0.624056,16.2356 0.624056,16.2356 0,1.2489 0,2.4978 1.56014,2.4978 54.91702,0 54.91702,0 54.91702,0 1.5602,0 1.5602,-1.2489 1.5602,-2.4978 0,0 0.624,-11.8644 0.624,-16.2356 0.312,-4.3711 0.9361,-16.85996 0.9361,-16.85996 0,-1.24887 -0.6241,-2.18558 -1.8722,-2.18558 z"
         inkscape:connector-curvature="0"
         style="fill:#1d2d44" />
    </g>
    <g
       id="group3"
       transform="translate(144.401,431.695)"
       style="fill:#1d2d44">
      <path
         id="Freeform 93"
         transform="translate(18.7558,8.42029)"
         d="M 25.725,7.48696 C 21.6679,3.43153 21.9799,0 21.9799,0 c -4.6812,0 -4.6812,0 -4.6812,0 0,41.8024 0,41.8024 0,41.8024 -2.1846,-0.624 -4.9933,-0.9359 -7.80211,-0.312 -6.24168,1.5597 -10.29877,6.863 -9.362519,11.5424 1.248339,4.9913 7.490009,7.487 13.731729,5.9272 5.6175,-1.2478 9.3625,-5.6153 9.3625,-9.6707 0,-30.2599 0,-30.2599 0,-30.2599 0,0 12.1713,1.5598 11.235,9.3587 -1.2483,7.799 -2.4967,10.2946 -2.4967,10.2946 1.8726,1.5598 1.8726,1.5598 1.8726,1.5598 0,0 4.6812,-8.7347 4.9933,-14.662 C 39.7688,14.35 30.0941,11.8544 25.725,7.48696 z"
         inkscape:connector-curvature="0"
         style="fill:#1d2d44" />
      <path
         id="Freeform 94"
         transform="translate(0.617309,0.625)"
         d="M 19.4977,5.60659 C 16.3796,2.49181 16.6914,0 16.6914,0 c -3.4299,0 -3.4299,0 -3.4299,0 0,31.7706 0,31.7706 0,31.7706 -1.8709,-0.6229 -4.05354,-0.6229 -5.92441,0 -4.98899,1.2459 -8.107103,4.9836 -7.171668,8.7213 0.935438,3.7377 5.612608,5.6066 10.289778,4.3607 4.3654,-0.9344 7.1717,-4.0492 7.1717,-7.4754 0,-23.0493 0,-23.0493 0,-23.0493 0,0 9.3543,1.2459 8.4189,7.164 -0.6236,5.918 -1.5591,8.0984 -1.5591,8.0984 1.2473,1.2459 1.2473,1.2459 1.2473,1.2459 0,0 3.7417,-6.8525 4.0535,-11.2132 C 30.4111,10.9017 22.9277,9.03282 19.4977,5.60659 z"
         inkscape:connector-curvature="0"
         style="fill:#1d2d44" />
    </g>
    <path
       id="Freeform 99"
       transform="translate(249.308,433.241)"
       d="M 45.5859,42.7546 C 26.852,22.7817 26.852,22.7817 26.852,22.7817 14.3627,46.1875 14.3627,46.1875 14.3627,46.1875 c 0,6.5536 0,6.5536 0,6.5536 62.7588,0 62.7588,0 62.7588,0 C 69.0034,45.8754 52.1428,31.2078 52.1428,31.2078 L 45.5859,42.7546 z M 67.13,27.7749 c 3.7468,0 6.5569,-2.8087 6.5569,-6.2415 0,-3.4329 -2.8101,-6.2416 -6.5569,-6.2416 -3.4346,0 -6.2447,2.8087 -6.2447,6.2416 0,3.4328 2.8101,6.2415 6.2447,6.2415 z M 0,0 c 0,66.4726 0,66.4726 0,66.4726 94.6065,0 94.6065,0 94.6065,0 C 94.6065,0 94.6065,0 94.6065,0 L 0,0 z m 86.1762,58.0464 c -77.43369,0 -77.43369,0 -77.43369,0 0,-49.30825 0,-49.30825 0,-49.30825 77.12149,0 77.12149,0 77.12149,0 0,0 0,0 0,0 0.3122,0 0.3122,0 0.3122,0 l 0,49.30825 z"
       inkscape:connector-curvature="0"
       style="fill:#1d2d44" />
    <path
       id="Freeform 104"
       transform="translate(390.331,432.993)"
       d="M 0,4.05141 C 0,62.9527 0,62.9527 0,62.9527 c 0,2.1815 1.87243,4.0514 4.05693,4.0514 4.68105,0 4.68105,0 4.68105,0 C 8.73798,0 8.73798,0 8.73798,0 4.05693,0 4.05693,0 4.05693,0 1.87243,0 0,1.86988 0,4.05141 z M 13.7312,67.0041 c 44.9382,0 44.9382,0 44.9382,0 C 58.6694,0 58.6694,0 58.6694,0 13.7312,0 13.7312,0 13.7312,0 l 0,67.0041 z m 5.3052,-22.7503 c 0.6241,-1.5582 2.4966,-1.8699 4.0569,-2.4931 1.5603,-0.935 3.7448,-1.5583 5.3052,-2.4932 0.6242,0 0.9363,0 1.5604,-0.3117 0.6241,-0.3116 1.2483,-1.8699 1.5604,-2.4931 0.6241,0 0.6241,0 0.6241,0 0,-0.9349 -0.6241,-0.9349 -0.9362,-1.5583 0,-0.9349 -0.3121,-1.8699 -0.3121,-2.8048 0,0 -0.6242,-0.3116 -0.6242,-0.3116 -0.9361,-0.6233 -0.9361,-2.8049 -0.9361,-3.7398 -0.3121,-0.6233 0.312,-0.9349 0.312,-1.8699 -0.9362,-4.6747 0.3121,-6.8562 2.8086,-7.4795 1.5604,-0.6233 4.369,-1.8699 7.1777,-0.3116 0.6241,0.6233 0.6241,0.6233 0.6241,0.6233 1.2483,0.3116 1.2483,0.3116 1.2483,0.3116 0.3121,0.3116 0.9362,1.2466 0.9362,1.2466 0,1.2465 0.3121,1.2465 0,2.4932 0,0.6232 0,2.4931 0,3.4281 0,0.3116 0,0.3116 0.3121,0.9349 0.3121,0.6233 0.3121,1.8699 0,2.4932 0,0.6233 0,1.2466 -0.3121,1.5582 -0.312,0.3117 -0.9362,0.3117 -1.2482,0.935 -0.3121,0.6232 0,1.5582 -0.3121,2.1815 -0.3121,0.6233 -0.9362,0.935 -0.9362,1.8699 0.312,0 0.6241,0 0.9362,0 0.3121,0.6232 0.9362,2.1815 1.5603,2.4931 0.6242,0.3117 0.9363,0.3117 1.5604,0.3117 1.5604,0.9349 3.4328,1.5582 5.3052,2.4932 1.5603,0.6232 3.4328,0.9349 4.057,2.4931 0,1.2466 0,3.7398 0,5.298 -34.3279,0 -34.3279,0 -34.3279,0 0,-1.5582 0,-4.0514 0,-5.298 z M 61.7902,0 c 0,15.2707 0,15.2707 0,15.2707 6.2414,0 6.2414,0 6.2414,0 C 68.0316,0 68.0316,0 68.0316,0 l -6.2414,0 z m 0,34.9044 c 6.2414,0 6.2414,0 6.2414,0 0,-15.5823 0,-15.5823 0,-15.5823 -6.2414,0 -6.2414,0 -6.2414,0 l 0,15.5823 z m 0,19.3221 c 6.2414,0 6.2414,0 6.2414,0 0,-15.2707 0,-15.2707 0,-15.2707 -6.2414,0 -6.2414,0 -6.2414,0 l 0,15.2707 z"
       inkscape:connector-curvature="0"
       style="fill:#1d2d44" />
    <path
       id="Freeform 109"
       transform="translate(504.001,432.001)"
       d="M 46.7303,14.6644 C 33.3343,1.24803 33.3343,1.24803 33.3343,1.24803 32.0881,0 32.0881,0 32.0881,0 0,0 0,0 0,0 c 0,67.3938 0,67.3938 0,67.3938 47.9765,0 47.9765,0 47.9765,0 0,-51.4814 0,-51.4814 0,-51.4814 l -1.2462,-1.248 z M 4.04996,63.3377 c 0,-59.28159 0,-59.28159 0,-59.28159 22.74214,0 22.74214,0 22.74214,0 5.9191,0 3.1153,14.35239 3.1153,14.35239 0,0 13.7076,-3.4321 14.0191,2.8081 0,10.9203 0,42.1211 0,42.1211 l -39.87654,0 z"
       inkscape:connector-curvature="0"
       style="fill:#1d2d44" />
    <path
       id="Freeform 114"
       transform="translate(599.103,433.064)"
       d="m 21.2067,40.9298 c -2.4949,0 -4.3661,2.187 -4.3661,4.6866 0,2.4995 1.8712,4.3742 4.3661,4.3742 2.495,0 4.3661,-1.8747 4.3661,-4.3742 0,-2.4996 -1.8711,-4.6866 -4.3661,-4.6866 z M 37.4236,31.869 c 0,-14.6848 0,-14.6848 0,-14.6848 0,-4.6866 -1.5593,-9.06076 -4.6779,-12.18514 C 29.9389,1.87465 25.8847,0 21.2067,0 16.5288,0 12.4746,1.87465 9.66777,4.99906 6.54915,8.12344 4.67795,12.4976 4.67795,17.1842 c 0,14.6848 0,14.6848 0,14.6848 C 1.87118,35.6182 0,40.3049 0,45.6164 c 0,11.5602 9.3559,21.2459 21.2067,21.2459 11.8509,0 21.2068,-9.6857 21.2068,-21.2459 0,-5.3115 -1.8712,-9.9982 -4.9899,-13.7474 z M 10.9152,47.491 c -4.98979,0 -4.98979,0 -4.98979,0 0,-3.7493 0,-3.7493 0,-3.7493 4.98979,0 4.98979,0 4.98979,0 l 0,3.7493 z m 12.1627,13.1225 c -3.7424,0 -3.7424,0 -3.7424,0 0,-4.6866 0,-4.6866 0,-4.6866 3.7424,0 3.7424,0 3.7424,0 l 0,4.6866 z M 21.2067,53.115 c -4.3661,0 -7.4847,-3.4369 -7.4847,-7.4986 0,-4.3742 3.1186,-7.811 7.4847,-7.811 4.0542,0 7.4848,3.4368 7.4848,7.811 0,4.0617 -3.4306,7.4986 -7.4848,7.4986 z M 19.3355,34.9933 c 0,-4.6865 0,-4.6865 0,-4.6865 3.7424,0 3.7424,0 3.7424,0 0,4.6865 0,4.6865 0,4.6865 l -3.7424,0 z m 10.6034,-9.0607 c -2.8068,-0.9373 -5.6136,-1.8747 -8.7322,-1.8747 -3.1186,0 -5.9254,0.9374 -8.7321,1.8747 0,-8.7484 0,-8.7484 0,-8.7484 0,-2.4995 1.2474,-4.999 2.8067,-6.8736 1.5593,-1.56227 3.7424,-2.49961 5.9254,-2.49961 2.1831,0 4.3661,0.93734 5.9254,2.49961 1.5594,1.8746 2.8068,4.3741 2.8068,6.8736 l 0,8.7484 z M 36.488,47.491 c -4.9898,0 -4.9898,0 -4.9898,0 0,-3.7493 0,-3.7493 0,-3.7493 4.9898,0 4.9898,0 4.9898,0 l 0,3.7493 z"
       inkscape:connector-curvature="0"
       style="fill:#1d2d44" />
    <g
       id="group4"
       transform="translate(687.309,432.155)"
       style="fill:#1d2d44">
      <path
         id="Freeform 119"
         transform="translate(41.444,13.3101)"
         d="M 0,1.31103 C 0,0.983269 0,0.327756 0,0 c 3.13362,0 6.5806,0 10.0276,0 0,0.327756 0,0.655513 0,1.31103 -3.447,0 -6.58062,0 -10.0276,0 z"
         inkscape:connector-curvature="0"
         style="fill:#1d2d44" />
      <path
         id="Freeform 120"
         transform="translate(42.755,17.1368)"
         d="m 7.79529,1.59449 c -2.8063,0 -5.3008,0 -7.79529,0 C 0,0.956695 0,0.637796 0,0 c 2.49449,0 4.98899,0 7.79529,0 0,0.637796 0,0.956695 0,1.59449 z"
         inkscape:connector-curvature="0"
         style="fill:#1d2d44" />
      <path
         id="Freeform 121"
         transform="translate(42.755,9.62502)"
         d="M 0,1.20473 C 0,0.903545 0,0.301182 0,0 c 2.49449,0 4.98899,0 7.79529,0 0,0.301182 0,0.602363 0,1.20473 -2.49449,0 -4.98899,0 -7.79529,0 z"
         inkscape:connector-curvature="0"
         style="fill:#1d2d44" />
      <path
         id="Freeform 122"
         transform="translate(42.755,21.1054)"
         d="M 0,1.31103 C 0,0.655513 0,0.327756 0,0 c 2.49449,0 4.98899,0 7.79529,0 0,0.327756 0,0.655513 0,1.31103 -2.49449,0 -5.3008,0 -7.79529,0 z"
         inkscape:connector-curvature="0"
         style="fill:#1d2d44" />
      <path
         id="Freeform 123"
         transform="translate(0.625,0.625)"
         d="m 75.1891,4.05611 c 0,-0.62402 0,-0.93603 0,-1.56005 C 74.8771,1.24803 73.9411,0.312008 72.6932,0 72.0692,0 71.7573,0 71.1333,0 59.5897,0 48.0461,0 36.5026,0 c -0.312,0 -0.624,0 -0.936,0 -1.8719,0.312008 -3.1199,1.24803 -3.1199,3.12008 0,3.12009 0,6.24018 0,9.36022 0,1.8721 0,3.4321 0,5.3042 -0.6239,0 -0.9359,0 -1.5599,0 -9.3596,0 -19.0313,0 -28.3909,0 -1.871924,0 -2.4959,0.312 -2.4959,2.184 0,12.1684 0,24.3367 0,36.8171 0,1.872 0.623976,2.184 2.4959,2.184 3.74386,0 7.17575,0 10.9196,0 0.624,0 0.9359,0 1.5599,0 0,2.184 -0.3119,4.0561 0,5.9282 0,0.624 0.312,1.56 0.624,1.872 0.936,0.624 1.56,0 2.184,-0.624 2.8078,-2.1841 5.6157,-4.3681 8.7356,-6.5522 0.3119,-0.312 0.9359,-0.624 1.5599,-0.624 4.3678,0 8.4237,0 12.7915,0 1.5599,0 1.872,-0.624 1.872,-2.184 0,-4.6802 0,-9.3603 0,-14.3524 0,-0.3121 0,-0.6241 0,-0.9361 2.4959,-0.624 4.6797,-0.312 6.5517,1.5601 1.8719,1.872 4.0559,3.12 5.9278,4.6801 0.624,0.624 1.5599,1.248 2.4959,0.624 1.2479,-0.312 1.2479,-1.248 1.2479,-2.496 0,-1.5601 0,-3.1202 0,-4.6802 4.3679,0 8.7357,0 13.1035,0 1.8719,0 3.1199,-0.936 3.1199,-2.8081 0,-0.312 0,-0.624 0,-1.248 0,-10.9203 0,-22.1526 0,-33.07289 z M 39.9344,55.8495 c -0.6239,0 -0.9359,0 -1.2479,0 -3.7439,0 -7.4877,0 -11.2316,0.312 -0.9359,0 -1.5599,0.312 -2.1838,0.6241 -2.4959,1.872 -4.9918,3.744 -7.4877,5.6161 0,-1.56 0,-2.8081 0,-4.0561 0,-1.8721 -0.3121,-2.4961 -2.184,-2.4961 -3.7439,0 -7.4877,0 -11.23157,0 -0.31199,0 -0.62398,0 -1.24795,0 0,-11.5443 0,-23.4007 0,-34.9449 9.67162,0 19.65532,0 29.32682,0 0,0.312 0,0.624 0,1.248 0,5.3041 0,10.2962 0,15.6004 0,2.4961 1.248,3.4321 3.4319,3.4321 1.248,0 2.4959,0 4.0558,0 0,4.9921 0,9.6723 0,14.6644 z M 72.0692,38.377 c -0.3119,0 -0.624,0 -1.2479,0 -3.7439,0 -7.4877,0 -11.2316,0 -2.4959,0 -3.4319,0.936 -3.4319,3.4321 0,0.936 0,1.5601 0,2.8081 -2.1839,-1.56 -3.7438,-2.8081 -5.6158,-4.3681 -1.5599,-1.5601 -3.4318,-2.1841 -5.9277,-1.8721 -2.8079,0 -5.9278,0 -9.0477,0 0,-11.8563 0,-23.7126 0,-35.25692 12.1676,0 24.3351,0 36.5026,0 0,11.54432 0,23.40062 0,35.25692 z"
         inkscape:connector-curvature="0"
         style="fill:#1d2d44" />
      <path
         id="Freeform 124"
         transform="translate(10.3449,28.3691)"
         d="M 20.539,19.5982 C 19.603,19.2871 19.291,18.976 18.979,18.3538 16.7949,12.4433 14.6109,6.8438 12.4268,1.24433 12.1148,0.622165 11.8028,0 11.1788,0 10.2427,0.311082 9.61872,0.311082 9.30673,1.24433 7.12265,6.8438 4.9386,12.4433 2.75455,18.0428 2.44253,18.976 1.81852,19.5982 0.882494,19.5982 c -0.624018,0.311 -1.248035,0.6221 -0.624018,1.5554 2.184054,0 4.680124,0 7.176184,0 0.31202,-1.8665 -1.87204,-1.2444 -2.49606,-2.1776 0.62402,-1.2443 0.93603,-2.7997 1.56005,-4.3552 2.18406,0 4.05615,0 5.92815,0 0.312,0 0.624,0.3111 0.936,0.3111 0.312,1.5555 0.9361,2.7998 1.5601,4.3552 -2.4961,0.9332 -2.4961,0.9332 -2.4961,1.8665 3.1201,0 6.2402,0 9.0482,0 0.6241,-0.9333 0,-1.2444 -0.936,-1.5554 z M 7.43466,12.7544 C 8.3707,9.95462 8.99472,7.46597 9.93073,4.97731 c 0.93607,2.48866 1.56007,4.97731 2.49607,7.77709 -1.872,0 -3.43208,0 -4.99214,0 z"
         inkscape:connector-curvature="0"
         style="fill:#1d2d44" />
      <path
         id="Freeform 125"
         transform="translate(51.755,9.62502)"
         d="M 7.17167,1.55815 C 6.85985,2.49304 6.85985,3.42792 6.54804,4.67444 c 2.18268,0 4.36536,0 6.54806,0 0,1.86979 0,3.73957 0,5.92096 0.9354,0 1.8709,0 2.4945,0 0,0.6233 0,0.9349 0,1.5582 -4.989,0 -10.2898,0 -15.5906,0 0,-0.3117 0,-0.9349 0,-1.5582 0.935435,0 1.87087,0 2.8063,0 0.31182,0 0.93544,-0.3116 0.93544,-0.62324 0.31181,-1.24652 0.62362,-2.18141 0.62362,-3.42793 -0.93543,0 -1.87087,0 -2.8063,0 0,-0.62327 0,-1.24653 0,-1.86979 0.93543,0 2.18268,0 3.11811,0 0.31182,-0.93489 0.31182,-1.86977 0.62363,-3.11629 -1.55906,0 -2.80631,0 -4.365365,0 0,-0.62326 0,-0.93489 0,-1.55815 4.677175,0 9.042535,0 13.719665,0 0,0.31163 0,0.93489 0,1.55815 -2.4944,0 -4.98894,0 -7.48343,0 z M 11.2252,6.2326 c -1.55904,0 -2.80629,0 -4.36535,0.31163 0,0 -0.62362,0 -0.62362,0.31163 -0.31181,1.24652 -0.31181,2.49304 -0.62362,3.73954 1.87087,0 3.74174,0 5.61259,0 0,-1.55813 0,-2.80465 0,-4.3628 z"
         inkscape:connector-curvature="0"
         style="fill:#1d2d44" />
      <path
         id="Freeform 1261"
         transform="translate(53.9873,24.2943)"
         d="m 0,0 c 3.72335,0 7.75699,0 11.4803,0 0,3.41617 0,6.52178 0,9.93795 -0.6205,0 -1.55136,0.62115 -1.86164,-0.93168 -2.48223,0 -4.96447,0 -7.75699,0 0,0.31056 -0.31027,0.62112 -0.31027,0.93168 -0.620562,0 -0.930841,0 -1.5514,0 C 0,6.83234 0,3.41617 0,0 z m 9.61866,1.55281 c -2.48223,0 -5.27475,0 -7.75699,0 0,1.86336 0,3.72673 0,5.5901 2.48224,0 5.27476,0 7.75699,0 0,-1.86337 0,-3.72674 0,-5.5901 z"
         inkscape:connector-curvature="0"
         style="fill:#1d2d44" />
      <path
         id="Freeform 1271"
         transform="translate(42.755,24.9321)"
         d="m 7.79529,0 c 0,2.81693 0,5.32088 0,8.13781 -1.87087,0 -4.05355,0 -6.23623,0 0,0.62598 0,0.93898 0,1.25197 -0.623625,0 -1.247248,0 -1.55906,0 C 0,6.25986 0,3.12992 0,0 2.49449,0 4.98899,0 7.79529,0 z M 6.23623,6.57285 c 0,-1.87796 0,-3.44293 0,-5.00788 -1.55906,0 -3.11811,0 -4.67717,0 0,1.56495 0,3.44291 0,5.00788 1.55906,0 3.11811,0 4.67717,0 z"
         inkscape:connector-curvature="0"
         style="fill:#1d2d44" />
    </g>
    <path
       id="Freeform 133"
       transform="translate(809.505,432.78)"
       d="M 33.6969,0 C 14.9764,0 0,14.9764 0,33.6969 0,52.1054 14.9764,67.3938 33.6969,67.3938 52.1054,67.3938 67.3938,52.1054 67.3938,33.6969 67.3938,14.9764 52.1054,0 33.6969,0 z M 38.377,5.30414 C 38.065,6.8642 35.569,5.92816 34.6329,5.92816 35.569,5.61615 36.505,4.99214 37.129,4.68012 c 0.312,-0.312 0,-0.312 0.624,-0.62401 0.624,0 1.2481,0 1.56,0.31201 -0.624,0.312 -1.248,0.62402 -1.872,0.93602 0.312,0 0.624,0 0.936,0 z M 27.4567,4.36812 c -0.312,0.312 -1.248,1.24803 -0.624,1.56004 0.312,0.62402 0.936,-0.31201 1.56,-0.31201 0.9361,-0.62401 2.4961,-0.62401 3.7442,-0.93603 0,0.62402 -1.8721,0.31202 -2.4961,0.62402 -0.936,0.31201 -0.624,0.31201 -0.936,1.24804 0,0 0.312,0 0.624,0 0,0.31202 0,0.31202 0,0.31202 -0.624,0 -1.248,-0.31202 -1.248,0.31196 -0.6241,-0.93599 -1.2481,-0.93599 -1.8721,0 0.624,0.31203 1.56,0.93603 0.936,1.5601 -0.624,0.93603 -1.248,0 -0.624,-0.62407 -0.624,-0.31196 -0.936,-0.624 -1.5601,0 0.3121,0 0.6241,0 0.6241,0 0,0.31204 -0.312,0.62407 -0.312,0.93604 -0.3121,0 -1.2481,-0.31197 -1.5601,-0.31197 -0.936,0 -1.56,0 -2.496,0 0.312,0.93603 -0.936,0 -1.2481,-0.31203 0.6241,-0.624 1.5601,-0.31204 2.4961,-0.31204 0.6241,0 1.56,0 1.872,-0.93603 -0.936,0 -1.2479,0 -1.56,-0.62398 -0.312,0 -0.312,-0.31201 -0.312,-0.62402 1.56,-0.62402 3.1201,-1.24804 4.9921,-1.56004 z M 3.7441,33.6969 c 0,-7.1762 2.49607,-13.7284 6.5522,-18.7205 0.624,0.312 1.56,0.936 1.8721,1.2481 0.3119,0.3119 0.624,0.936 0.9359,1.56 0,0 0.3121,0.312 0.3121,0.624 0.624,0.312 0.624,0.624 0.936,1.2481 0,0.3119 -0.312,0.936 -0.312,1.56 0,1.8721 0,3.4321 1.56,4.6801 0.312,0.312 0.936,0.624 1.2481,0.936 0.312,0.312 0.312,0.624 0.624,0.936 0.624,1.2481 1.56,2.1841 2.1841,3.1201 0.624,0.936 0.936,0.6241 0.3119,-0.312 -0.3119,-0.624 -0.936,-1.248 -1.248,-1.872 0,0 -0.624,-0.9361 -0.312,-0.9361 0.936,0.3121 1.2481,0.9361 1.8721,1.8721 0.624,0.624 0.936,1.248 1.56,2.184 0.312,0.9361 0.936,1.5601 2.184,2.1841 0.312,0 1.2481,0.624 1.8721,0.9361 0.624,0 0.936,-0.6241 1.56,-0.3121 0.6241,0.3121 0.936,0.9361 1.2481,1.248 0.624,0 0.936,0 1.56,0.3121 0.312,0.312 0.624,0.936 1.2481,1.248 0.3119,0.312 0.9359,0.624 1.248,0.624 0.312,0.312 0.936,0 1.248,0 0.624,0.312 0.624,0.9361 0.624,1.5601 -0.312,0.624 -0.936,1.248 -1.248,1.872 -0.312,0.624 0,0.9361 0,1.5601 -0.312,0.624 -0.624,0 -0.312,1.248 0.312,0.312 0.624,0.624 0.936,1.248 0.624,0.9361 0.9361,1.5601 1.5601,2.1841 0.624,0.624 1.872,1.248 2.184,1.872 0.312,0.624 0,2.1841 0,2.8081 -0.312,1.248 -0.312,3.1201 -0.624,4.3682 -0.624,1.248 -0.936,1.56 -0.624,3.12 0,0.624 0.312,0.3121 0,0.9361 0,0.3119 0,0.3119 0,0.624 -0.312,0.624 -0.6241,0.936 -0.936,1.248 0.624,0 0.624,0.312 0.624,0.624 -0.9361,0 -1.8721,0 -2.4961,0 -16.5364,0 -29.9528,-13.4163 -29.9528,-29.6408 z M 39.313,62.7137 c 0,0 -0.3119,-0.312 -0.3119,-0.312 0,-0.312 0.624,-0.936 0.624,-1.2481 0.312,-0.3119 0.312,-0.9359 0.624,-1.248 0.312,-0.312 0.936,-0.312 0.624,-0.936 1.5601,0 2.4961,-0.312 2.4961,-1.8721 0,-0.3119 0,0 0,-0.3119 0,0.3119 0.936,0 1.248,0 0,0.3119 1.2481,-1.8721 1.56,-1.8721 0.3121,-0.312 0.624,-0.624 0.9361,-1.2481 0.312,-0.3119 0.312,-0.936 0.624,-1.248 -0.312,0.312 -0.312,0.312 -0.312,0.312 0.624,-0.936 1.248,-0.624 1.872,-0.936 0.936,-0.312 0.312,-0.312 0.936,-0.936 0.6241,-0.6241 0.6241,-0.312 0.9361,-1.2481 0,-0.624 0,-1.248 0,-1.872 0.312,-0.9361 1.248,-1.248 1.56,-1.872 0.312,-0.6241 0.6241,-1.5601 0.312,-1.8721 -0.312,-0.624 -1.56,-0.936 -2.184,-0.936 -0.6241,-0.3121 -1.5601,-0.3121 -1.8721,-0.624 -0.936,-0.3121 -1.56,-0.9361 -1.872,0.3119 0,-0.3119 -0.624,-0.3119 -0.624,-0.624 0,0.3121 0.624,-0.312 0.936,-0.312 -0.312,0 -1.2481,0.312 -1.56,0.312 0,0 0,0 0,0 0,0 0.3119,0 0.3119,0 -0.3119,0 -0.3119,0 -0.3119,0 0,0 0,0 0,0 0,0 0,0 0,0 0,-0.312 0.624,-1.248 0.624,-1.248 0,-0.624 -0.9361,-1.5601 -1.5601,-1.5601 -0.936,-0.3119 -1.248,-0.3119 -1.872,-0.624 -0.9361,-0.624 -1.5601,-1.248 -2.4961,-1.56 -0.312,0 -0.624,0.312 -0.936,0 -0.3121,0 -0.624,-0.312 -1.2481,-0.312 -0.312,-0.312 -0.624,0.312 -0.936,0.312 -0.624,0 -0.624,-0.624 -1.248,0 -1.248,0.624 -0.624,0.936 -1.8721,0.624 -0.624,-0.312 -1.56,0.312 -2.184,-0.312 -0.3121,-0.312 -0.624,-1.248 0,-1.872 -0.3121,0.3119 -0.3121,-0.624 -0.3121,-0.624 -0.624,-0.3121 -0.936,0 -1.248,0 -0.624,-0.3121 -0.936,-0.3121 -0.936,-0.6241 0.312,-0.624 1.56,-2.184 0.312,-1.8721 -0.936,0 -1.248,0.9361 -1.872,1.2481 -0.9361,0.312 -1.8721,-0.312 -2.1841,-0.936 -1.248,-1.8721 0.624,-3.7441 2.1841,-4.0561 1.248,0 3.12,-0.9361 4.0561,0.312 0.3119,0.624 0.936,2.184 1.248,0.936 0,-0.312 -0.312,-1.5601 -0.312,-2.1841 0,0 0,0 0,0 0,0 0,0 0,0 0,0 0,0 0,0 0,-0.312 0.624,-0.624 0.936,-0.936 0,0 0,0 -0.312,0 0.624,-0.312 1.2481,-0.624 1.56,-0.936 0,-0.312 -0.3119,-0.624 -0.3119,-0.9361 0.3119,-0.3119 0.624,-0.3119 0.9359,-0.3119 0,-0.3121 0,-0.6241 0.3121,-0.9361 0.312,-0.312 0.624,-0.312 0.936,-0.6239 0.624,-0.3121 0.624,-0.9361 1.248,-1.2481 0.6241,-0.312 1.2481,-1.248 1.8721,-0.936 -0.312,0.312 -0.9361,0.624 -1.248,0.936 0,0.312 1.248,0 1.248,0 0.624,-0.312 1.248,-0.624 1.872,-0.936 0.624,-0.624 1.8721,-0.624 3.1201,-0.624 0.312,0 -0.624,-1.2481 -0.936,-1.2481 -0.312,-0.624 -0.312,-0.936 -0.936,-0.312 -0.312,0 -0.6241,0.624 -0.6241,0.9361 -0.3119,0.624 -0.3119,0.624 -1.248,0.936 0,0 0.312,0 0.312,0 -0.624,0.312 -1.248,0.312 -1.56,-0.312 0,-0.3121 0.312,-0.624 0,-0.9361 -0.312,-0.624 -1.8721,0.624 -2.4961,0.9361 0.312,-2.1841 2.8081,-1.2481 4.3681,-1.5601 0.3121,0 1.5601,-0.624 1.5601,-0.936 0.312,-0.624 -0.9361,-1.2481 -1.248,-1.56 -0.6241,-0.6241 -0.9361,-0.9361 -1.2481,-1.5601 -0.312,-0.936 -0.624,-1.872 -1.56,-1.248 -0.3121,0.312 0,0.936 -0.624,0.936 -0.3121,0 -0.6241,-0.312 -0.9361,-0.624 -0.312,-0.312 -0.624,-1.2481 -1.248,-1.2481 -0.312,0 -1.872,-0.624 -2.4961,-0.3119 -0.312,0.3119 0.312,1.872 0.312,2.184 0.3121,0.936 0.624,1.248 -0.312,1.8721 -0.624,0.3119 -0.624,0 -0.624,0.624 0,0.624 0.624,0.624 0.312,0.936 -0.312,0.312 -0.624,0.312 -0.936,0.312 -0.936,-0.624 -0.312,-0.936 -0.6241,-1.5601 -0.3119,-0.3119 -1.56,-0.624 -2.184,-0.936 -1.248,-0.312 -4.0561,-0.936 -3.1201,-2.808 0.312,-0.3121 1.248,-0.9361 1.5601,-1.2481 0.312,-0.312 0.936,-0.312 1.248,-0.936 0.312,0 0.312,-0.62404 0.624,-0.93601 0,0 0.9361,0 1.248,0 1.8721,-0.31203 0.3121,-2.80809 2.4961,-2.49613 0.6241,0.31203 1.2481,0.93603 1.56,1.24807 0.6241,0.31203 0.9361,0.31203 0.6241,0.93603 0,0.31203 -0.6241,0.93604 -0.6241,0.93604 -0.3119,0.312 -0.9359,0.312 -1.248,0.624 1.248,0 1.5601,-0.312 2.4961,0.312 0.936,0.624 1.56,0.9361 2.4961,0.9361 0,-0.3121 -0.9361,-0.3121 -0.9361,-0.6241 0,-0.624 0.624,0 0.624,0 0.3121,0 0.9361,0.312 0.9361,-0.312 -0.312,-0.936 -1.5601,-0.312 -1.248,-1.56001 0.624,0 0.624,0.62401 0.936,0.93601 0.624,0 1.248,-0.62404 1.248,-0.93601 -0.624,-0.31203 -2.8081,-0.93603 -2.4961,-1.87206 1.2481,0.93603 2.8081,1.87206 4.0561,2.49607 -0.936,1.248 0.9361,0.624 0.9361,0.624 0.312,0 1.248,0.624 0.624,0.936 -0.624,0 -0.936,-0.624 -1.248,0 0.312,0 1.872,0 1.56,0.9361 -0.312,0.3119 -1.248,0.3119 -1.56,0.936 0.312,0 0.312,0.312 0.624,0 -0.312,0.936 0.312,1.56 0.624,2.184 0.624,0.624 1.248,1.8721 2.1841,1.8721 2.184,0.624 1.872,-2.8081 3.4321,-3.1201 0.3119,-0.312 0.936,0 1.248,-0.312 0.312,0 0.624,-0.312 0.936,-0.624 0.936,-0.6241 1.8721,-0.6241 3.1201,-0.6241 0,0 0,0 0,0 4.9922,5.3042 8.1122,12.4804 8.1122,20.5926 0,14.3524 -10.2963,26.5208 -24.0247,29.0168 z"
       inkscape:connector-curvature="0"
       style="fill:#1d2d44" />
    <path
       id="Freeform 138"
       transform="translate(809.08,306.74)"
       d="M 58.7461,18.2536 C 50.9548,16.0699 50.9548,16.0699 50.9548,16.0699 48.7733,8.27142 48.7733,8.27142 48.7733,8.27142 c 7.7913,-7.798518 7.7913,-7.798518 7.7913,-7.798518 -4.6748,-1.247761 -9.6612,0 -13.401,3.431358 -3.7398,3.74331 -4.9864,9.04624 -3.7398,13.72534 -21.5039,21.524 -21.5039,21.524 -21.5039,21.524 -4.6748,-1.2478 -9.97279,0 -13.71262,3.7433 -3.739805,3.7433 -4.986406,9.0462 -3.739805,13.7254 8.102935,-8.1105 8.102935,-8.1105 8.102935,-8.1105 7.79129,2.1836 7.79129,2.1836 7.79129,2.1836 2.1815,7.7985 2.1815,7.7985 2.1815,7.7985 -8.1029,7.7985 -8.1029,7.7985 -8.1029,7.7985 4.6747,1.2478 9.9728,0.312 13.7126,-3.4313 3.7398,-4.0552 4.9864,-9.6702 3.4281,-14.3493 21.1923,-21.212 21.1923,-21.212 21.1923,-21.212 4.6748,1.5597 10.2845,0.6239 14.3359,-3.4313 3.4282,-3.7433 4.6748,-8.7343 3.4282,-13.4135 l -7.7913,7.7986 z"
       inkscape:connector-curvature="0"
       style="fill:#1d2d44" />
    <g
       id="group5"
       transform="translate(37.2058,535.762)"
       style="fill:none">
      <path
         id="Freeform 6"
         transform="translate(0.625,0.625)"
         d="M 83.4053,28.5488 C 83.712,26.707 84.0186,24.8651 84.0186,22.7163 84.0186,10.1303 73.8995,0 61.3275,0 51.8217,0 43.8491,5.83256 40.1695,13.8139 37.4098,10.4372 32.8102,8.28836 27.904,8.28836 c -8.8925,0 -15.9451,7.06044 -15.9451,15.96284 0,1.5348 0,3.0697 0.6133,4.6046 C 5.21284,31.6186 0,38.3721 0,46.6604 0,57.0977 8.58584,65.693 19.0115,65.693 c 58.5678,0 58.5678,0 58.5678,0 10.4256,0 19.0114,-8.5953 19.0114,-19.0326 0,-8.5953 -5.5195,-15.6557 -13.1854,-18.1116 z"
         inkscape:connector-curvature="0"
         style="fill:#1d2d44" />
      <path
         id="Freeform 71"
         transform="translate(137.964,0.625)"
         d="M 83.4053,28.5488 C 83.712,26.707 84.0186,24.8651 84.0186,22.7163 84.0186,10.1303 73.8995,0 61.3275,0 51.8217,0 43.8491,5.83256 40.1695,13.8139 37.4098,10.4372 32.8102,8.28836 27.904,8.28836 c -8.8925,0 -15.9451,7.06044 -15.9451,15.96284 0,1.5348 0,3.0697 0.6133,4.6046 C 5.21284,31.6186 0,38.3721 0,46.6604 0,57.0977 8.58584,65.693 19.0115,65.693 c 58.5678,0 58.5678,0 58.5678,0 10.4256,0 19.0114,-8.5953 19.0114,-19.0326 0,-8.5953 -5.5195,-15.6557 -13.1854,-18.1116 z"
         inkscape:connector-curvature="0"
         style="fill:#1d2d44" />
      <path
         id="Freeform 81"
         transform="translate(73.2984,48.3706)"
         d="M 2.4626,4.97888 C 1.53913,4.97888 0.923476,4.67248 0.615651,4.36609 0,3.75331 0,3.14052 0,2.52774 0,1.91495 0,1.30217 0.615651,0.689384 c 0.923479,-0.919179 2.462599,-0.919179 3.386079,0 0.61565,0.612786 0.92348,1.225566 0.92348,1.838356 0,0.61278 -0.30783,1.22557 -0.92348,1.83835 C 3.6939,4.67248 3.07825,4.97888 2.4626,4.97888 z"
         inkscape:connector-curvature="0"
         style="fill:#1d2d44" />
      <path
         id="Freeform 9"
         transform="translate(74.715,7.10898)"
         d="m 1.90073,34.3829 c -1.227499,-0.3065 -2.148129,-1.5324 -1.8412529,-3.0647 0,0 0,0 0,0 0,0 0,0 0,0 0,0 0,0 0,0 C 0.673231,30.0923 1.90073,29.4794 3.12824,29.7859 c 0,0 0,0 0,0 1.53438,0.3064 2.14813,1.8388 1.84126,3.0646 0,0 0,0 0,0 -0.30688,0.9194 -1.22751,1.8388 -2.45501,1.8388 0,0 0,0 0,0 -0.30688,0 -0.30688,0 -0.61376,-0.3064 z M 80.4611,32.8505 c -0.307,-1.5323 0.6137,-2.7582 1.8412,-3.0646 0,0 0,0 0,0 1.2275,-0.613 2.455,0.3064 3.0688,1.5323 0,0 0,0 0,0 0.3068,1.2258 -0.3069,2.7582 -1.8413,3.0647 0,0 0,0 0,0 0,0 -0.3068,0 -0.6138,0 0,0 0,0 0,0 -0.9206,0 -2.1481,-0.613 -2.4549,-1.5324 z M 6.197,23.3501 C 4.9695,22.7372 4.66262,21.2048 5.27637,19.979 c 0,0 0,0 0,0 0,0 0,0 0,0 0,0 0,0 0,0 0.92063,-1.2259 2.45501,-1.5323 3.68253,-0.6129 0,0 0,0 0,0 0.9206,0.6129 1.2275,2.1452 0.61376,3.3711 0,0 0,0 0,0 -0.61376,0.6129 -1.22752,0.9194 -2.14815,0.9194 0,0 0,0 0,0 -0.30688,0 -0.92063,0 -1.22751,-0.3065 z m 69.6609,-0.9194 c 0,0 0,0 0,0 -0.6138,-0.9194 -0.3069,-2.4517 0.9207,-3.3711 0,0 0,0 0,0 0.9206,-0.6129 2.4549,-0.3065 3.3755,0.9194 0,0 0,0 0,0 0,0 0,0 0,0 0,0 0,0 0,0 0.6138,0.9194 0.307,2.4517 -0.9206,3.3711 0,0 0,0 0,0 -0.3068,0.3065 -0.9206,0.3065 -1.2275,0.3065 0,0 0,0 0,0 -0.9206,0 -1.5344,-0.3065 -2.1481,-1.2259 z M 13.562,13.8497 c -0.9206,-0.9194 -0.9206,-2.4518 0,-3.3711 0,0 0,0 0,0 1.2275,-0.91944 2.7619,-0.91944 3.6825,0.3064 0,0 0,0 0,0 0.9207,0.9194 0.6138,2.4517 -0.3068,3.3711 0,0 0,0 0,0 -0.6138,0.3065 -0.9206,0.613 -1.5344,0.613 0,0 0,0 0,0 -0.9206,0 -1.5344,-0.3065 -1.8413,-0.9194 z m 54.9309,0.3064 c -0.9206,-0.9194 -1.2276,-2.4517 -0.3069,-3.3711 0,0 0,0 0,0 0.9206,-1.22584 2.455,-1.22584 3.6825,-0.3064 0,0 0,0 0,0 0,0 0,0 0,0 0,0 0,0 0,0 0.9206,0.9193 0.9206,2.4517 0,3.3711 0,0 0,0 0,0 -0.3069,0.6129 -0.9206,0.9194 -1.8413,0.9194 0,0 0,0 0,0 -0.3068,0 -0.9206,-0.3065 -1.5343,-0.613 z M 23.0752,6.80095 c -0.6137,-1.22584 0,-2.75818 1.2275,-3.06465 0,0 0,0 0,0 1.2275,-0.61293 2.7619,0 3.3756,1.22587 0,0 0,0 0,0 0.3069,1.22588 0,2.45171 -1.2275,3.06465 0,0 0,0 0,0 -0.3068,0.30647 -0.9206,0.30647 -1.2274,0.30647 0,0 0,0 0,0 -0.9207,0 -1.8413,-0.61294 -2.1482,-1.53234 z M 58.9797,8.02682 C 57.7522,7.41388 57.4454,6.18805 57.7522,4.96217 c 0,0 0,0 0,0 0.6138,-1.53234 2.1481,-1.8388 3.3757,-1.22587 0,0 0,0 0,0 1.2274,0.30647 1.8412,1.83881 1.2274,3.06465 0,0 0,0 0,0 -0.3068,0.9194 -1.2274,1.53234 -2.1481,1.53234 0,0 0,0 0,0 -0.3069,0 -0.9206,0 -1.2275,-0.30647 z M 34.4296,2.81691 c -0.3069,-1.22586 0.6137,-2.451724 1.8413,-2.7581907 0,0 0,0 0,0 0,0 0,0 0,0 0,0 0,0 0,0 1.5343,-0.3064653 2.7619,0.6129317 2.7619,2.1452607 0,0 0,0 0,0 0.3068,1.22585 -0.6138,2.45173 -1.8413,2.75819 0,0 0,0 0,0 -0.3069,0 -0.3069,0 -0.3069,0 0,0 0,0 0,0 -1.2275,0 -2.455,-0.9194 -2.455,-2.14526 z m 13.8095,2.14526 c 0,0 0,0 0,0 -1.2276,-0.30646 -2.1482,-1.53234 -2.1482,-2.75819 0,0 0,0 0,0 0.3069,-1.532329 1.5344,-2.451726 3.0688,-2.1452607 0,0 0,0 0,0 1.2275,0.3064667 2.1481,1.5323307 1.8413,2.7581907 0,0 0,0 0,0 0,1.22586 -1.2276,2.14526 -2.4551,2.14526 0,0 0,0 0,0 0,0 0,0 -0.3068,0 z"
         inkscape:connector-curvature="0"
         style="fill:#1d2d44" />
      <path
         id="Freeform 10"
         transform="translate(157.027,48.3706)"
         d="M 2.4626,4.97888 C 1.84695,4.97888 0.923476,4.67248 0.615651,4.36609 0,3.75331 0,3.14052 0,2.52774 0,1.91495 0,1.30217 0.615651,0.689384 c 0.923479,-0.919179 2.462599,-0.919179 3.386079,0 0.61565,0.612786 0.92348,1.225566 0.92348,1.838356 0,0.61278 -0.30783,1.22557 -0.92348,1.83835 C 3.6939,4.67248 3.07825,4.97888 2.4626,4.97888 z"
         inkscape:connector-curvature="0"
         style="fill:#1d2d44" />
    </g>
    <path
       id="Freeform 15"
       transform="translate(589.926,537.308)"
       d="m 40.5545,23.7034 c -3.004,0 -5.7076,0.6002 -8.1109,1.5003 0,-8.4012 0,-8.4012 0,-8.4012 0,-4.5007 -1.8024,-8.70133 -4.8065,-12.0018 C 24.9335,1.80026 20.7278,0 16.2218,0 11.7158,0 7.51008,1.80026 4.80646,4.8007 1.80242,8.10117 0,12.3018 0,16.8025 c 0,18.9027 0,18.9027 0,18.9027 7.81048,0 7.81048,0 7.81048,0 0,-4.2006 0,-4.2006 0,-4.2006 C 3.90525,27.604 3.90525,27.604 3.90525,27.604 c 3.90523,0 3.90523,0 3.90523,0 0,-10.8015 0,-10.8015 0,-10.8015 0,-2.7005 0.90121,-5.1008 2.40332,-6.601 1.8024,-1.8003 3.6048,-2.7004 6.008,-2.7004 2.1028,0 4.2056,0.9001 6.0081,2.7004 1.502,1.5002 2.4032,3.9005 2.4032,6.601 0,14.102 0,14.102 0,14.102 -3.004,3.6005 -5.1069,8.4012 -5.1069,13.802 0,11.4017 9.3126,20.7031 21.0283,20.7031 11.4153,0 21.0283,-9.3014 21.0283,-20.7031 0,-11.7017 -9.613,-21.0031 -21.0283,-21.0031 z M 30.3408,46.5068 c -4.8065,0 -4.8065,0 -4.8065,0 0,-3.9006 0,-3.9006 0,-3.9006 4.8065,0 4.8065,0 4.8065,0 l 0,3.9006 z m 8.4113,-16.8025 c 3.6048,0 3.6048,0 3.6048,0 0,4.8007 0,4.8007 0,4.8007 -3.6048,0 -3.6048,0 -3.6048,0 l 0,-4.8007 z m 3.6048,29.7044 c -3.6048,0 -3.6048,0 -3.6048,0 0,-4.8007 0,-4.8007 0,-4.8007 3.6048,0 3.6048,0 3.6048,0 l 0,4.8007 z m -1.8024,-7.5011 c -4.2056,0 -7.5101,-3.3005 -7.5101,-7.2011 0,-4.2006 3.3045,-7.5011 7.5101,-7.5011 4.2057,0 7.5101,3.3005 7.5101,7.5011 0,3.9006 -3.3044,7.2011 -7.5101,7.2011 z m 10.2137,-5.4008 c 0,-3.9006 0,-3.9006 0,-3.9006 4.8065,0 4.8065,0 4.8065,0 0,3.9006 0,3.9006 0,3.9006 l -4.8065,0 z M 40.5545,40.2059 c -2.4032,0 -4.506,1.8003 -4.506,4.5006 0,2.4004 2.1028,4.2006 4.506,4.2006 2.4032,0 4.5061,-1.8002 4.5061,-4.2006 0,-2.7003 -2.1029,-4.5006 -4.5061,-4.5006 z"
       inkscape:connector-curvature="0"
       style="fill:#1d2d44" />
    <g
       id="group6"
       transform="translate(456.289,524.14)"
       style="fill:#1d2d44">
      <path
         id="Freeform 20"
         transform="translate(22.6644,66.7078)"
         d="M 22.1811,0 0,19.84 7.49785,19.84 0,35.1497 22.1811,14.9972 l -7.4978,0 L 22.1811,0 z"
         inkscape:connector-curvature="0"
         style="fill:#1d2d44" />
      <path
         id="Freeform 211"
         transform="translate(45.4833,33.8967)"
         d="M 8.1319,0 C 3.57804,0 0,3.57804 0,8.1319 c 0,4.5539 3.57804,8.1319 8.1319,8.1319 4.5539,0 8.1319,-3.578 8.1319,-8.1319 C 16.2638,3.57804 12.6858,0 8.1319,0 z m 0,12.0352 c -2.27693,0 -3.90331,-1.6264 -3.90331,-3.9033 0,-2.27693 1.62638,-3.90331 3.90331,-3.90331 2.2769,0 3.9033,1.62638 3.9033,3.90331 0,2.2769 -1.6264,3.9033 -3.9033,3.9033 z"
         inkscape:connector-curvature="0"
         style="fill:#1d2d44" />
      <path
         id="Freeform 22"
         transform="translate(0.625,0.625)"
         d="M 88.5149,30.2859 C 89.1657,28.332 89.1657,26.3781 89.1657,24.4241 89.1657,11.0723 78.4268,0 65.0845,0 54.9964,0 46.5354,6.18745 42.9558,14.9801 39.7016,11.398 35.1456,8.79266 29.9388,8.79266 c -9.4372,0 -17.2473,7.81574 -17.2473,17.25974 0,1.6283 0.3254,3.2566 0.6508,4.5592 C 5.53219,33.5425 0,41.0326 0,49.8253 c 0,11.0722 9.11183,20.1906 20.1761,20.1906 62.1558,0 62.1558,0 62.1558,0 11.3898,0 20.1761,-9.1184 20.1761,-20.1906 0,-9.1184 -5.8576,-16.9342 -13.9931,-19.5394 z M 53.0438,53.0818 c -10.4135,0 -21.1524,-11.7236 -21.1524,-11.7236 0,0 10.7389,-11.3979 21.1524,-11.3979 10.4136,0 21.1526,11.3979 21.1526,11.3979 0,0 -10.739,11.7236 -21.1526,11.7236 z"
         inkscape:connector-curvature="0"
         style="fill:#1d2d44" />
    </g>
    <path
       id="Freeform 27"
       transform="translate(722.186,524.127)"
       d="m 13.4168,53.1436 c 0,-7.8731 0,-15.5276 0,-23.182 0.219,0 0.219,0 0.219,0 1.3137,1.3122 2.6274,2.6244 3.9411,3.7179 1.0948,1.3121 2.8464,1.5309 4.3791,0.6561 3.7222,-2.187 7.4444,-4.374 11.1667,-6.5609 1.7516,-0.8748 2.1895,-3.0618 1.3137,-4.5928 -0.8758,-1.5308 -3.0654,-2.1869 -4.598,-1.0934 -1.5327,0.8748 -3.0654,1.7496 -4.3791,2.4057 -1.7517,1.0934 -3.2843,1.9682 -4.817,2.843 -0.6569,-0.4373 -1.0948,-1.0934 -1.7516,-1.5309 -2.4085,-2.4056 -5.036,-5.03 -7.6634,-7.4357 -2.18957,-1.9683 -4.59805,-2.6244 -7.22551,-1.3121 -2.62744,1.3121 -3.9411666,3.4991 -3.9411666,6.3422 0,9.6227 0,19.0267 0,28.6494 0,0.2187 0,0.6561 0,1.0935 0.8758156,0 1.5326766,0 2.4084966,0.2187 0,0.4374 0,0.8748 0,1.3122 0,6.9983 0,13.9966 0,20.995 0,0.4374 0,0.8748 0,1.5309 0.21895,1.3121 1.31372,2.4057 2.84641,2.6244 0.65686,0.2186 1.31372,0.2186 1.75163,0.2186 2.62744,0 3.94114,-1.3121 3.94114,-3.9365 0,-7.217 0,-14.4341 0,-21.6511 0,-0.4374 0,-0.8748 0,-1.3122 0.8758,0 1.5327,0 2.4085,0 z m 64.3725,0.8748 c 0,0.4374 0,0.8748 0,1.3122 0,6.7796 0,13.3405 0,20.1202 0,0.6561 0,1.0935 0.219,1.7496 0.219,1.3121 1.3137,2.4057 2.6274,2.6244 0.6569,0.2186 1.3138,0.2186 1.7517,0.2186 2.8464,0 4.1601,-1.3121 4.1601,-4.1552 0,-7.4358 0,-14.6528 0,-22.0885 0,-0.4374 0,-0.6561 0,-1.0935 0.8758,-0.2187 1.5327,-0.4374 2.1895,-0.4374 0,-0.4374 0,-0.6561 0,-0.8747 -1.3137,-9.6228 -2.8464,-19.2455 -4.1601,-28.8682 -0.4379,-3.4992 -3.7222,-6.1236 -7.2255,-5.6861 -3.7222,0.2187 -6.3496,3.2804 -6.1307,7.2169 0,0.4375 -0.2189,0.8748 -0.4379,1.3123 -1.5327,1.5309 -2.8464,3.0617 -4.3791,4.3739 -0.6568,0.4374 -1.3137,0.8748 -1.9705,1.0935 -3.5033,1.0935 -7.0066,1.9683 -10.7288,2.8431 -1.9706,0.6561 -3.0653,2.1869 -2.6274,4.1553 0.6568,1.9682 2.1895,2.843 4.379,2.4056 4.1602,-1.0935 8.3203,-2.1869 12.4804,-3.4992 0.6569,-0.2187 1.3137,-0.656 1.9706,-1.3121 0.8758,-0.6561 1.7516,-1.5309 2.6275,-2.4057 1.0947,7.217 1.9705,14.2154 3.0653,21.2137 0.8758,-0.2187 1.5327,-0.2187 2.1895,-0.2187 z M 44.2894,79.8248 c 2.1895,0 4.3791,0 6.7876,0 2.6274,0 4.379,-1.7496 4.379,-4.374 0,-4.374 0,-8.9666 0,-13.3406 0,-2.6244 -1.7516,-4.374 -4.598,-4.374 -4.3791,-0.2187 -8.7582,-0.2187 -12.9184,0 -2.8464,0 -4.598,1.7496 -4.8169,4.5928 0,4.1552 0,8.5291 0,12.9031 0.2189,2.8431 1.9705,4.5927 4.8169,4.5927 2.1896,0 4.1602,0 6.3498,0 z m 7.6634,-46.8014 c -4.817,0 -9.4151,0 -14.0132,0 -2.8464,0 -4.598,1.9682 -4.598,4.8114 0,4.3739 -0.2189,8.5292 0,12.6845 0,2.843 1.5327,4.8113 4.3791,4.8113 4.3791,0 8.9772,0 13.3563,0 2.6274,0 4.379,-1.9683 4.379,-4.8113 0,-2.6244 0,-5.4675 0,-8.0919 0,-0.4374 0,-0.6561 0,-1.0935 -2.4084,0.2187 -4.1601,-0.4374 -5.0359,-2.4057 -1.0948,-2.187 -0.4379,-4.1552 1.5327,-5.9048 z M 23.2697,24.4942 c 1.9706,-1.3123 3.9412,-2.4057 5.9118,-3.4992 1.7516,-1.0935 3.9412,-0.8748 5.2549,0.4374 2.4085,1.9683 1.9706,5.4675 -0.6569,7.217 -1.9706,1.0935 -3.9411,2.187 -5.9117,3.4992 1.5326,1.5309 3.5032,1.9683 5.4738,0.8748 3.9412,-2.187 7.8824,-4.374 11.6047,-6.7796 2.1895,-1.3123 2.8464,-3.7179 1.5326,-6.1236 C 44.2894,16.1837 42.0998,12.247 39.6913,8.52919 38.3776,6.56094 35.9691,5.68615 33.9985,6.77964 29.8384,9.18531 25.8972,11.591 21.956,13.9966 c -1.9706,1.3123 -2.4085,3.4992 -1.5327,5.4675 0.8759,1.7496 1.7517,3.2805 2.8464,5.0301 z M 13.6358,7.43573 C 13.1979,6.34224 13.1979,5.24875 12.541,4.15526 11.4462,1.74958 9.47564,0.218698 6.8482,0 4.00179,0 2.03121,1.53089 0.936439,3.93656 -0.377284,6.77964 -0.377284,9.62274 1.37435,12.247 c 1.31372,1.7496 3.06536,2.8432 5.03595,2.8432 3.9412,0.2187 7.0065,-3.2805 7.2255,-7.65447 z M 79.322,8.31051 c 0,-0.43738 0,-1.31218 -0.2189,-1.96827 -0.8758,-2.62437 -2.4085,-4.59266 -5.2549,-5.24875 -2.6275,-0.437396 -4.817,0.65609 -6.3497,2.84307 -1.9706,2.62438 -1.9706,6.34224 -0.2189,9.18524 2.1895,3.0619 5.9117,3.718 8.7581,1.9684 2.1896,-1.5309 3.2843,-3.9366 3.2843,-6.77969 z"
       inkscape:connector-curvature="0"
       style="fill:#1d2d44" />
    <g
       transform="matrix(0.25640941,0,0,0.25640941,298.26096,510.77956)"
       id="g3923">
      <path
         inkscape:export-ydpi="223.49478"
         inkscape:export-xdpi="223.49478"
         inkscape:export-filename="/home/jospoortvliet/graph cloud.png"
         sodipodi:nodetypes="cccccc"
         inkscape:connector-curvature="0"
         id="path3144"
         d="m 71.383036,352.38194 72.641424,-93.54888 37.5942,35.28748 89.9803,-121.76076 38.61636,39.35398 146.98402,-169.73684"
         style="fill:none;stroke:#1d2d44;stroke-width:20;stroke-linecap:butt;stroke-linejoin:miter;stroke-miterlimit:4;stroke-opacity:1;stroke-dasharray:none" />
      <path
         inkscape:export-ydpi="223.49478"
         inkscape:export-xdpi="223.49478"
         inkscape:export-filename="/home/jospoortvliet/graph cloud.png"
         sodipodi:nodetypes="ccc"
         inkscape:connector-curvature="0"
         id="path3229"
         d="M 45.42919,52.27412 45.929189,402.7741 430.57741,402.27411"
         style="fill:none;stroke:#1d2d44;stroke-width:20;stroke-linecap:butt;stroke-linejoin:miter;stroke-miterlimit:4;stroke-opacity:1;stroke-dasharray:none" />
    </g>
  </g>
</svg>
