<?xml version="1.0" encoding="UTF-8" standalone="no"?>
<svg
   xmlns:dc="http://purl.org/dc/elements/1.1/"
   xmlns:cc="http://creativecommons.org/ns#"
   xmlns:rdf="http://www.w3.org/1999/02/22-rdf-syntax-ns#"
   xmlns:svg="http://www.w3.org/2000/svg"
   xmlns="http://www.w3.org/2000/svg"
   xmlns:xlink="http://www.w3.org/1999/xlink"
   xmlns:sodipodi="http://sodipodi.sourceforge.net/DTD/sodipodi-0.dtd"
   xmlns:inkscape="http://www.inkscape.org/namespaces/inkscape"
   enable-background="new 0 0 595.275 311.111"
   xml:space="preserve"
   height="400"
   width="500"
   version="1.1"
   y="0px"
   x="0px"
   viewBox="0 0 500.00002 399.99329"
   id="svg2982"
   inkscape:version="0.48.4 r9939"
   sodipodi:docname="ownCloud Contributor Conference.svg"><metadata
     id="metadata2990"><rdf:RDF><cc:Work
         rdf:about=""><dc:format>image/svg+xml</dc:format><dc:type
           rdf:resource="http://purl.org/dc/dcmitype/StillImage" /><dc:title></dc:title></cc:Work></rdf:RDF></metadata><defs
     id="defs2988"><linearGradient
       inkscape:collect="always"
       xlink:href="#linearGradient3763"
       id="linearGradient3822"
       gradientUnits="userSpaceOnUse"
       gradientTransform="translate(8,7)"
       x1="59.882252"
       y1="-7.5668597"
       x2="59.882252"
       y2="133.9725" /><linearGradient
       id="linearGradient3763"><stop
         style="stop-color:#35537a;stop-opacity:1;"
         offset="0"
         id="stop3765" /><stop
         style="stop-color:#1d2d44;stop-opacity:1;"
         offset="1"
         id="stop3767" /></linearGradient><clipPath
       clipPathUnits="userSpaceOnUse"
       id="clipPath3846"><rect
         style="fill:url(#linearGradient3850);fill-opacity:1;stroke:none"
         id="rect3848"
         width="144"
         height="144"
         x="0"
         y="0"
         rx="20"
         ry="20" /></clipPath><linearGradient
       id="linearGradient3807"><stop
         style="stop-color:#ffffff;stop-opacity:1;"
         offset="0"
         id="stop3809" /><stop
         style="stop-color:#e6e6e6;stop-opacity:1;"
         offset="1"
         id="stop3811" /></linearGradient><linearGradient
       inkscape:collect="always"
       xlink:href="#linearGradient3763"
       id="linearGradient4173"
       x1="1388.4531"
       y1="-78.580833"
       x2="1388.4531"
       y2="319.27478"
       gradientUnits="userSpaceOnUse"
       gradientTransform="translate(-1115.0327,80.070661)" /><linearGradient
       id="linearGradient3807-6"><stop
         style="stop-color:#ffffff;stop-opacity:1;"
         offset="0"
         id="stop3809-5" /><stop
         style="stop-color:#e6e6e6;stop-opacity:1;"
         offset="1"
         id="stop3811-1" /></linearGradient><linearGradient
       inkscape:collect="always"
       xlink:href="#linearGradient3763"
       id="linearGradient4457"
       gradientUnits="userSpaceOnUse"
       gradientTransform="matrix(1.5999999,0,0,1.5999999,-1244.0521,-111.8863)"
       x1="1388.4531"
       y1="-78.580833"
       x2="1388.4531"
       y2="319.27478" /></defs><sodipodi:namedview
     pagecolor="#ffffff"
     bordercolor="#666666"
     borderopacity="1"
     objecttolerance="10"
     gridtolerance="10"
     guidetolerance="10"
     inkscape:pageopacity="0"
     inkscape:pageshadow="2"
     inkscape:window-width="1920"
     inkscape:window-height="1002"
     id="namedview2986"
     showgrid="false"
     inkscape:zoom="0.918"
     inkscape:cx="296.91664"
     inkscape:cy="186.7373"
     inkscape:window-x="0"
     inkscape:window-y="34"
     inkscape:window-maximized="1"
     inkscape:current-layer="svg2982"
     fit-margin-top="0"
     fit-margin-left="0"
     fit-margin-right="0"
     fit-margin-bottom="0" /><rect
     y="-0.00099404308"
     x="-1080"
     height="400.00003"
     width="500.00003"
     id="rect3811"
     style="fill:#1d2d44;fill-opacity:1;stroke:none" /><path
     style="text-indent:0;text-transform:none;block-progression:tb;color:#000000;fill:#ffffff;enable-background:accumulate"
     d="m -804.37271,80.070661 c -11.241,0 -20.322,9.0815 -20.322,20.321999 0,4.6335 1.5429,8.898 4.1442,12.313 5.6431,-6.5315 13.972,-10.679 23.271,-10.679 4.5496,0 8.8639,1.0131 12.751,2.7893 0.31474,-1.4234 0.47817,-2.9037 0.47817,-4.4231 0.01,-11.239999 -9.08,-20.321999 -20.32,-20.321999 z m -26.539,9.404 c -5.8539,0 -10.56,4.7456 -10.56,10.598999 0,1.8953 0.48899,3.6862 1.3548,5.22 3.5325,-1.9927 7.6164,-3.148 11.954,-3.148 0.41864,0 0.82186,0.017 1.2353,0.0398 -0.0468,-0.59343 -0.0797,-1.1878 -0.0797,-1.7931 0,-3.260499 0.70816,-6.362699 1.9525,-9.164999 -1.6754,-1.1235 -3.6828,-1.7533 -5.8576,-1.7533 z m 50.128,7.2921 c -0.43247,0 -0.84934,0.05309 -1.2751,0.0797 0.18418,1.1613 0.31878,2.3339 0.31878,3.546399 0,1.8871 -0.24,3.708 -0.67741,5.4591 5.1284,2.8381 9.3873,7.0847 12.193,12.233 2.9105,-1.5152 6.1573,-2.4787 9.6033,-2.7096 -0.8881,-10.415 -9.5166,-18.608999 -20.163,-18.608999 z m -16.497,7.571099 c -15.729,0 -28.451,12.721 -28.451,28.451 0,15.729 12.721,28.451 28.451,28.451 15.73,0 28.451,-12.723 28.451,-28.451 0,-15.73 -12.722,-28.451 -28.451,-28.451 z m -30.882,0.11954 c -12.203,0 -22.076,9.8727 -22.076,22.076 0,7.1836 3.4227,13.543 8.7266,17.573 2.236,-4.3127 6.727,-7.2523 11.914,-7.2523 0.62695,0 1.2287,0.076 1.833,0.15939 -0.18969,-1.3801 -0.27893,-2.792 -0.27893,-4.2239 0,-6.846 2.2284,-13.177 6.017,-18.29 -2.2678,-2.8377 -3.8907,-6.2474 -4.5825,-9.9619 -0.51269,-0.0355 -1.0323,-0.0797 -1.5541,-0.0797 z m 69.18,13.149 c -3.7054,0 -7.1763,0.94599 -10.241,2.5503 1.7401,3.8545 2.7096,8.1312 2.7096,12.632 0,8.4268 -3.3881,16.079 -8.886,21.637 4.039,4.4841 9.8991,7.2921 16.417,7.2921 12.203,0 22.076,-9.8727 22.076,-22.076 0,-12.2033 -9.8727,-22.036 -22.076,-22.036 z m -93.403,2.9089 c -11.241,0 -20.362,9.0413 -20.362,20.282 0,11.2407 9.121,20.362 20.362,20.362 4.2785,0 8.2419,-1.333 11.516,-3.5863 -1.3529,-2.1023 -2.1518,-4.6156 -2.1518,-7.2921 0,-1.3892 0.20497,-2.7238 0.59771,-3.9848 -6.1294,-4.4296 -10.121,-11.638 -10.121,-19.764 0,-2.0648 0.27209,-4.0613 0.75711,-5.9772 -0.20132,-0.006 -0.39495,-0.0399 -0.59772,-0.0399 z m 119.5,17.453 c -0.59968,0 -1.1799,0.0683 -1.7533,0.15939 0.0316,0.50688 0.0398,0.99939 0.0398,1.5142 0,6.4816 -2.5574,12.364 -6.6944,16.736 2.0353,2.3668 5.0248,3.8652 8.4079,3.8652 6.1623,0 11.157,-4.9552 11.157,-11.117 0,-6.1623 -4.9951,-11.157 -11.157,-11.157 z m -96.71,1.1954 c -6.162,0 -11.118,4.9555 -11.118,11.117 0,6.162 4.9555,11.157 11.118,11.157 4.7232,0 8.7323,-2.9472 10.36,-7.0929 -3.9726,-4.046 -6.8276,-9.2077 -8.0891,-14.943 -0.73821,-0.15266 -1.4875,-0.23909 -2.2713,-0.23909 z m 122.21,9.3642 v 22.036 h -11.675 c -7.6322,0 -13.827,6.2347 -13.827,13.867 0,7.6311 6.195,13.827 13.827,13.827 h 4.5426 c 2.239,0 4.4748,-1.0874 6.2561,-2.7495 1.7813,-1.6621 3.1409,-3.9644 3.1878,-6.535 0.0801,-4.4122 0,-17.254 0,-17.254 v -23.191 h -2.3112 z m -106.75,9.9619 v 30.483 c 0,5.1232 4.2011,9.2845 9.3244,9.2845 v -2.3112 c -3.8766,0 -7.0132,-3.0967 -7.0132,-6.9733 v -29.049 c -0.80461,-0.4325 -1.5514,-0.93449 -2.3112,-1.4345 z m -23.112,2.8292 c -4.0935,3.9059 -6.6546,9.4053 -6.6546,15.501 0,11.827 9.6118,21.438 21.438,21.438 v -2.3112 c -10.579,0 -19.127,-8.5469 -19.127,-19.127 0,-5.6905 2.4839,-10.805 6.4155,-14.305 -0.73485,-0.33851 -1.4155,-0.73502 -2.0721,-1.1954 z m -27.216,9.165 c -7.6322,0 -13.827,6.1949 -13.827,13.827 v 12.791 h 2.3112 v -12.791 c 0,-6.3852 5.1309,-11.556 11.516,-11.556 6.3864,0 11.556,5.1706 11.556,11.556 v 12.791 h 2.3112 v -12.791 c 0,-7.6322 -6.2338,-13.827 -13.867,-13.827 z m 77.583,0.0797 c -7.6326,0 -13.827,6.2344 -13.827,13.867 0,7.6326 6.1945,13.867 13.827,13.867 7.6326,0 13.867,-6.2344 13.867,-13.867 0,-7.6326 -6.2344,-13.867 -13.867,-13.867 z m -154.29,0.0398 c -7.632,0 -13.867,6.1952 -13.867,13.827 0,7.632 6.235,13.827 13.867,13.827 7.632,0 13.827,-6.1952 13.827,-13.827 0,-7.632 -6.1952,-13.827 -13.827,-13.827 z m 20.761,1.036 v 17.334 c 0,5.1234 4.1622,9.2845 9.2845,9.2845 3.4912,0 6.5716,-1.9303 8.1688,-4.7817 1.5857,2.8514 4.6384,4.7817 8.1289,4.7817 5.1233,0 9.3243,-4.1611 9.3243,-9.2845 v -17.334 h -2.3112 v 17.334 c 0,3.8764 -3.1366,6.9733 -7.0132,6.9733 -3.8766,0 -6.9733,-3.0969 -6.9733,-6.9733 v -17.334 h -2.3112 v 17.334 c 0,3.8766 -3.1352,6.9733 -7.0132,6.9733 -3.8753,0 -6.9733,-3.0969 -6.9733,-6.9733 v -17.334 h -2.3112 z m 153.45,0 v 12.791 c 0,7.6311 6.195,13.827 13.827,13.827 7.6322,0 13.867,-6.1959 13.867,-13.827 v -12.791 h -2.3112 v 12.791 c 0,6.3837 -5.1707,11.516 -11.556,11.516 -6.3851,0 -11.516,-5.1322 -11.516,-11.516 v -12.791 h -2.3112 z m -19.924,1.2353 c 6.3856,0 11.556,5.1702 11.556,11.556 0,6.3856 -5.1702,11.556 -11.556,11.556 -6.3856,0 -11.516,-5.1702 -11.516,-11.556 0,-6.3856 5.1304,-11.556 11.516,-11.556 z m 67.821,0 h 11.675 c 0.009,1.5271 0.0728,12.046 0,16.059 -0.0326,1.7858 -1.0121,3.5776 -2.4307,4.9013 -1.4186,1.3236 -3.2544,2.1119 -4.702,2.1119 h -4.5426 c -6.3851,0 -11.516,-5.1322 -11.516,-11.516 0,-6.3852 5.1309,-11.556 11.516,-11.556 z m -222.11,0.0399 c 6.385,0 11.516,5.131 11.516,11.516 0,6.385 -5.131,11.516 -11.516,11.516 -6.385,0 -11.556,-5.131 -11.556,-11.516 0,-6.385 5.1708,-11.516 11.556,-11.516 z"
     id="path2984"
     inkscape:connector-curvature="0" /><flowRoot
     xml:space="preserve"
     id="flowRoot3824"
     style="font-size:40px;font-style:normal;font-weight:normal;line-height:125%;letter-spacing:0px;word-spacing:0px;fill:#000000;fill-opacity:1;stroke:none;font-family:Sans"
     transform="translate(-955.03271,80.069667)"><flowRegion
       id="flowRegion3826"><rect
         id="rect3828"
         width="286.49237"
         height="147.05882"
         x="8.7145967"
         y="148.73109" /></flowRegion><flowPara
       id="flowPara3830"></flowPara></flowRoot><text
     xml:space="preserve"
     style="font-size:40px;font-style:normal;font-weight:normal;line-height:100%;letter-spacing:0px;word-spacing:0px;fill:#000000;fill-opacity:1;stroke:none;font-family:Sans"
     x="-957.6626"
     y="248.7771"
     id="text3832"
     sodipodi:linespacing="100%"><tspan
       sodipodi:role="line"
       x="-957.6626"
       y="248.7771"
       style="font-size:51.00000381px;font-style:normal;font-variant:normal;font-weight:normal;font-stretch:normal;line-height:100%;fill:#ffffff;fill-opacity:1;font-family:Source Sans Pro;-inkscape-font-specification:Source Sans Pro"
       id="tspan3838">Contributor</tspan><tspan
       sodipodi:role="line"
       x="-957.6626"
       y="299.7771"
       id="tspan3836"
       style="font-size:51.00000381px;font-style:normal;font-variant:normal;font-weight:bold;font-stretch:normal;line-height:100%;fill:#ffffff;fill-opacity:1;font-family:Source Sans Pro;-inkscape-font-specification:Source Sans Pro Bold">Conference</tspan></text>
<rect
     style="fill:#1d2d44;fill-opacity:1;stroke:none"
     id="rect3875"
     width="500.00003"
     height="400.00003"
     x="-540"
     y="-0.00099404308" /><path
     id="path3877"
     d="m -264.37271,80.070661 c -11.241,0 -20.322,9.0815 -20.322,20.321999 0,4.6335 1.5429,8.898 4.1442,12.313 5.6431,-6.5315 13.972,-10.679 23.271,-10.679 4.5496,0 8.8639,1.0131 12.751,2.7893 0.31474,-1.4234 0.47817,-2.9037 0.47817,-4.4231 0.01,-11.239999 -9.08,-20.321999 -20.32,-20.321999 z m -26.539,9.404 c -5.8539,0 -10.56,4.7456 -10.56,10.598999 0,1.8953 0.48899,3.6862 1.3548,5.22 3.5325,-1.9927 7.6164,-3.148 11.954,-3.148 0.41864,0 0.82186,0.017 1.2353,0.0398 -0.0468,-0.59343 -0.0797,-1.1878 -0.0797,-1.7931 0,-3.260499 0.70816,-6.362699 1.9525,-9.164999 -1.6754,-1.1235 -3.6828,-1.7533 -5.8576,-1.7533 z m 50.128,7.2921 c -0.43247,0 -0.84934,0.05309 -1.2751,0.0797 0.18418,1.1613 0.31878,2.3339 0.31878,3.546399 0,1.8871 -0.24,3.708 -0.67741,5.4591 5.1284,2.8381 9.3873,7.0847 12.193,12.233 2.9105,-1.5152 6.1573,-2.4787 9.6033,-2.7096 -0.8881,-10.415 -9.5166,-18.608999 -20.163,-18.608999 z m -16.497,7.571099 c -15.729,0 -28.451,12.721 -28.451,28.451 0,15.729 12.721,28.451 28.451,28.451 15.73,0 28.451,-12.723 28.451,-28.451 0,-15.73 -12.722,-28.451 -28.451,-28.451 z m -30.882,0.11954 c -12.203,0 -22.076,9.8727 -22.076,22.076 0,7.1836 3.4227,13.543 8.7266,17.573 2.236,-4.3127 6.727,-7.2523 11.914,-7.2523 0.62695,0 1.2287,0.076 1.833,0.15939 -0.18969,-1.3801 -0.27893,-2.792 -0.27893,-4.2239 0,-6.846 2.2284,-13.177 6.017,-18.29 -2.2678,-2.8377 -3.8907,-6.2474 -4.5825,-9.9619 -0.51269,-0.0355 -1.0323,-0.0797 -1.5541,-0.0797 z m 69.18,13.149 c -3.7054,0 -7.1763,0.94599 -10.241,2.5503 1.7401,3.8545 2.7096,8.1312 2.7096,12.632 0,8.4268 -3.3881,16.079 -8.886,21.637 4.039,4.4841 9.8991,7.2921 16.417,7.2921 12.203,0 22.076,-9.8727 22.076,-22.076 0,-12.2033 -9.8727,-22.036 -22.076,-22.036 z m -93.403,2.9089 c -11.241,0 -20.362,9.0413 -20.362,20.282 0,11.2407 9.121,20.362 20.362,20.362 4.2785,0 8.2419,-1.333 11.516,-3.5863 -1.3529,-2.1023 -2.1518,-4.6156 -2.1518,-7.2921 0,-1.3892 0.20497,-2.7238 0.59771,-3.9848 -6.1294,-4.4296 -10.121,-11.638 -10.121,-19.764 0,-2.0648 0.27209,-4.0613 0.75711,-5.9772 -0.20132,-0.006 -0.39495,-0.0399 -0.59772,-0.0399 z m 119.5,17.453 c -0.59968,0 -1.1799,0.0683 -1.7533,0.15939 0.0316,0.50688 0.0398,0.99939 0.0398,1.5142 0,6.4816 -2.5574,12.364 -6.6944,16.736 2.0353,2.3668 5.0248,3.8652 8.4079,3.8652 6.1623,0 11.157,-4.9552 11.157,-11.117 0,-6.1623 -4.9951,-11.157 -11.157,-11.157 z m -96.71,1.1954 c -6.162,0 -11.118,4.9555 -11.118,11.117 0,6.162 4.9555,11.157 11.118,11.157 4.7232,0 8.7323,-2.9472 10.36,-7.0929 -3.9726,-4.046 -6.8276,-9.2077 -8.0891,-14.943 -0.73821,-0.15266 -1.4875,-0.23909 -2.2713,-0.23909 z m 122.21,9.3642 v 22.036 h -11.675 c -7.6322,0 -13.827,6.2347 -13.827,13.867 0,7.6311 6.195,13.827 13.827,13.827 h 4.5426 c 2.239,0 4.4748,-1.0874 6.2561,-2.7495 1.7813,-1.6621 3.1409,-3.9644 3.1878,-6.535 0.0801,-4.4122 0,-17.254 0,-17.254 v -23.191 h -2.3112 z m -106.75,9.9619 v 30.483 c 0,5.1232 4.2011,9.2845 9.3244,9.2845 v -2.3112 c -3.8766,0 -7.0132,-3.0967 -7.0132,-6.9733 v -29.049 c -0.80461,-0.4325 -1.5514,-0.93449 -2.3112,-1.4345 z m -23.112,2.8292 c -4.0935,3.9059 -6.6546,9.4053 -6.6546,15.501 0,11.827 9.6118,21.438 21.438,21.438 v -2.3112 c -10.579,0 -19.127,-8.5469 -19.127,-19.127 0,-5.6905 2.4839,-10.805 6.4155,-14.305 -0.73485,-0.33851 -1.4155,-0.73502 -2.0721,-1.1954 z m -27.216,9.165 c -7.6322,0 -13.827,6.1949 -13.827,13.827 v 12.791 h 2.3112 v -12.791 c 0,-6.3852 5.1309,-11.556 11.516,-11.556 6.3864,0 11.556,5.1706 11.556,11.556 v 12.791 h 2.3112 v -12.791 c 0,-7.6322 -6.2338,-13.827 -13.867,-13.827 z m 77.583,0.0797 c -7.6326,0 -13.827,6.2344 -13.827,13.867 0,7.6326 6.1945,13.867 13.827,13.867 7.6326,0 13.867,-6.2344 13.867,-13.867 0,-7.6326 -6.2344,-13.867 -13.867,-13.867 z m -154.29,0.0398 c -7.632,0 -13.86699,6.1952 -13.86699,13.827 0,7.632 6.23499,13.827 13.86699,13.827 7.632,0 13.827,-6.1952 13.827,-13.827 0,-7.632 -6.1952,-13.827 -13.827,-13.827 z m 20.761,1.036 v 17.334 c 0,5.1234 4.1622,9.2845 9.2845,9.2845 3.4912,0 6.5716,-1.9303 8.1688,-4.7817 1.5857,2.8514 4.6384,4.7817 8.1289,4.7817 5.1233,0 9.3243,-4.1611 9.3243,-9.2845 v -17.334 h -2.3112 v 17.334 c 0,3.8764 -3.1366,6.9733 -7.0132,6.9733 -3.8766,0 -6.9733,-3.0969 -6.9733,-6.9733 v -17.334 h -2.3112 v 17.334 c 0,3.8766 -3.1352,6.9733 -7.0132,6.9733 -3.8753,0 -6.9733,-3.0969 -6.9733,-6.9733 v -17.334 h -2.3112 z m 153.45,0 v 12.791 c 0,7.6311 6.195,13.827 13.827,13.827 7.6322,0 13.867,-6.1959 13.867,-13.827 v -12.791 h -2.3112 v 12.791 c 0,6.3837 -5.1707,11.516 -11.556,11.516 -6.3851,0 -11.516,-5.1322 -11.516,-11.516 v -12.791 h -2.3112 z m -19.924,1.2353 c 6.3856,0 11.556,5.1702 11.556,11.556 0,6.3856 -5.1702,11.556 -11.556,11.556 -6.3856,0 -11.516,-5.1702 -11.516,-11.556 0,-6.3856 5.1304,-11.556 11.516,-11.556 z m 67.821,0 h 11.675 c 0.009,1.5271 0.0728,12.046 0,16.059 -0.0326,1.7858 -1.0121,3.5776 -2.4307,4.9013 -1.4186,1.3236 -3.2544,2.1119 -4.702,2.1119 h -4.5426 c -6.3851,0 -11.516,-5.1322 -11.516,-11.516 0,-6.3852 5.1309,-11.556 11.516,-11.556 z m -222.11,0.0399 c 6.385,0 11.516,5.131 11.516,11.516 0,6.385 -5.131,11.516 -11.516,11.516 -6.385,0 -11.556,-5.131 -11.556,-11.516 0,-6.385 5.1708,-11.516 11.556,-11.516 z"
     style="text-indent:0;text-transform:none;block-progression:tb;color:#000000;fill:#ffffff;enable-background:accumulate"
     inkscape:connector-curvature="0" /><flowRoot
     style="font-size:40px;font-style:normal;font-weight:normal;line-height:125%;letter-spacing:0px;word-spacing:0px;fill:#000000;fill-opacity:1;stroke:none;font-family:Sans"
     id="flowRoot3879"
     xml:space="preserve"
     transform="translate(-415.03271,80.070661)"><flowRegion
       id="flowRegion3881"><rect
         y="148.73109"
         x="8.7145967"
         height="147.05882"
         width="286.49237"
         id="rect3883" /></flowRegion><flowPara
       id="flowPara3885"></flowPara></flowRoot><text
     sodipodi:linespacing="100%"
     id="text3887"
     y="241.1265"
     x="-417.2774"
     style="font-size:40px;font-style:normal;font-weight:normal;line-height:100%;letter-spacing:0px;word-spacing:0px;fill:#000000;fill-opacity:1;stroke:none;font-family:Sans"
     xml:space="preserve"><tspan
       style="font-size:43px;font-style:normal;font-variant:normal;font-weight:normal;font-stretch:normal;line-height:100%;letter-spacing:-1.33000028px;fill:#ffffff;fill-opacity:1;font-family:Source Sans Pro;-inkscape-font-specification:Source Sans Pro"
       y="241.1265"
       x="-417.2774"
       sodipodi:role="line"
       dx="0"
       id="tspan3893">CONTRIBUTOR</tspan><tspan
       style="font-size:43px;font-style:normal;font-variant:normal;font-weight:bold;font-stretch:normal;line-height:100%;fill:#ffffff;fill-opacity:1;font-family:Source Sans Pro;-inkscape-font-specification:Source Sans Pro Bold"
       id="tspan3891"
       y="284.1265"
       x="-417.2774"
       sodipodi:role="line">CONFERENCE</tspan></text>
<rect
     y="439.99902"
     x="-540"
     height="400.00003"
     width="937.90857"
     id="rect3949"
     style="fill:#1d2d44;fill-opacity:1;stroke:none" /><path
     inkscape:connector-curvature="0"
     style="text-indent:0;text-transform:none;block-progression:tb;color:#000000;fill:#ffffff;enable-background:accumulate"
     d="m -264.37271,580.07066 c -11.241,0 -20.322,9.0815 -20.322,20.322 0,4.6335 1.5429,8.898 4.1442,12.313 5.6431,-6.5315 13.972,-10.679 23.271,-10.679 4.5496,0 8.8639,1.0131 12.751,2.7893 0.31474,-1.4234 0.47817,-2.9037 0.47817,-4.4231 0.01,-11.24 -9.08,-20.322 -20.32,-20.322 z m -26.539,9.404 c -5.8539,0 -10.56,4.7456 -10.56,10.599 0,1.8953 0.48899,3.6862 1.3548,5.22 3.5325,-1.9927 7.6164,-3.148 11.954,-3.148 0.41864,0 0.82186,0.017 1.2353,0.0399 -0.0468,-0.59343 -0.0797,-1.1878 -0.0797,-1.7931 0,-3.2605 0.70816,-6.3627 1.9525,-9.165 -1.6754,-1.1235 -3.6828,-1.7533 -5.8576,-1.7533 z m 50.128,7.2921 c -0.43247,0 -0.84934,0.0531 -1.2751,0.0797 0.18418,1.1613 0.31878,2.3339 0.31878,3.5464 0,1.8871 -0.24,3.708 -0.67741,5.4591 5.1284,2.8381 9.3873,7.0847 12.193,12.233 2.9105,-1.5152 6.1573,-2.4787 9.6033,-2.7096 -0.8881,-10.415 -9.5166,-18.609 -20.163,-18.609 z m -16.497,7.5711 c -15.729,0 -28.451,12.721 -28.451,28.451 0,15.729 12.721,28.451 28.451,28.451 15.73,0 28.451,-12.723 28.451,-28.451 0,-15.73 -12.722,-28.451 -28.451,-28.451 z m -30.882,0.11954 c -12.203,0 -22.076,9.8727 -22.076,22.076 0,7.1836 3.4227,13.543 8.7266,17.573 2.236,-4.3127 6.727,-7.2523 11.914,-7.2523 0.62695,0 1.2287,0.076 1.833,0.15939 -0.18969,-1.3801 -0.27893,-2.792 -0.27893,-4.2239 0,-6.846 2.2284,-13.177 6.017,-18.29 -2.2678,-2.8377 -3.8907,-6.2474 -4.5825,-9.9619 -0.51269,-0.0355 -1.0323,-0.0797 -1.5541,-0.0797 z m 69.18,13.149 c -3.7054,0 -7.1763,0.94599 -10.241,2.5503 1.7401,3.8545 2.7096,8.1312 2.7096,12.632 0,8.4268 -3.3881,16.079 -8.886,21.637 4.039,4.4841 9.8991,7.2921 16.417,7.2921 12.203,0 22.076,-9.8727 22.076,-22.076 0,-12.2033 -9.8727,-22.036 -22.076,-22.036 z m -93.403,2.9089 c -11.241,0 -20.362,9.0413 -20.362,20.282 0,11.2407 9.121,20.362 20.362,20.362 4.2785,0 8.2419,-1.333 11.516,-3.5863 -1.3529,-2.1023 -2.1518,-4.6156 -2.1518,-7.2921 0,-1.3892 0.20497,-2.7238 0.59771,-3.9848 -6.1294,-4.4296 -10.121,-11.638 -10.121,-19.764 0,-2.0648 0.27209,-4.0613 0.75711,-5.9772 -0.20132,-0.006 -0.39495,-0.0399 -0.59772,-0.0399 z m 119.5,17.453 c -0.59968,0 -1.1799,0.0683 -1.7533,0.15939 0.0316,0.50688 0.0398,0.99939 0.0398,1.5142 0,6.4816 -2.5574,12.364 -6.6944,16.736 2.0353,2.3668 5.0248,3.8652 8.4079,3.8652 6.1623,0 11.157,-4.9552 11.157,-11.117 0,-6.1623 -4.9951,-11.157 -11.157,-11.157 z m -96.71,1.1954 c -6.162,0 -11.118,4.9555 -11.118,11.117 0,6.162 4.9555,11.157 11.118,11.157 4.7232,0 8.7323,-2.9472 10.36,-7.0929 -3.9726,-4.046 -6.8276,-9.2077 -8.0891,-14.943 -0.73821,-0.15266 -1.4875,-0.23909 -2.2713,-0.23909 z m 122.21,9.3642 v 22.036 h -11.675 c -7.6322,0 -13.827,6.2347 -13.827,13.867 0,7.6311 6.195,13.827 13.827,13.827 h 4.5426 c 2.239,0 4.4748,-1.0874 6.2561,-2.7495 1.7813,-1.6621 3.1409,-3.9644 3.1878,-6.535 0.0801,-4.4122 0,-17.254 0,-17.254 v -23.191 h -2.3112 z m -106.75,9.9619 v 30.483 c 0,5.1232 4.2011,9.2845 9.3244,9.2845 v -2.3112 c -3.8766,0 -7.0132,-3.0967 -7.0132,-6.9733 v -29.049 c -0.80461,-0.4325 -1.5514,-0.93449 -2.3112,-1.4345 z m -23.112,2.8292 c -4.0935,3.9059 -6.6546,9.4053 -6.6546,15.501 0,11.827 9.6118,21.438 21.438,21.438 v -2.3112 c -10.579,0 -19.127,-8.5469 -19.127,-19.127 0,-5.6905 2.4839,-10.805 6.4155,-14.305 -0.73485,-0.33851 -1.4155,-0.73502 -2.0721,-1.1954 z m -27.216,9.165 c -7.6322,0 -13.827,6.1949 -13.827,13.827 v 12.791 h 2.3112 v -12.791 c 0,-6.3852 5.1309,-11.556 11.516,-11.556 6.3864,0 11.556,5.1706 11.556,11.556 v 12.791 h 2.3112 v -12.791 c 0,-7.6322 -6.2338,-13.827 -13.867,-13.827 z m 77.583,0.0797 c -7.6326,0 -13.827,6.2344 -13.827,13.867 0,7.6326 6.1945,13.867 13.827,13.867 7.6326,0 13.867,-6.2344 13.867,-13.867 0,-7.6326 -6.2344,-13.867 -13.867,-13.867 z m -154.29,0.0398 c -7.632,0 -13.86699,6.1952 -13.86699,13.827 0,7.632 6.23499,13.827 13.86699,13.827 7.632,0 13.827,-6.1952 13.827,-13.827 0,-7.632 -6.1952,-13.827 -13.827,-13.827 z m 20.761,1.036 v 17.334 c 0,5.1234 4.1622,9.2845 9.2845,9.2845 3.4912,0 6.5716,-1.9303 8.1688,-4.7817 1.5857,2.8514 4.6384,4.7817 8.1289,4.7817 5.1233,0 9.3243,-4.1611 9.3243,-9.2845 v -17.334 h -2.3112 v 17.334 c 0,3.8764 -3.1366,6.9733 -7.0132,6.9733 -3.8766,0 -6.9733,-3.0969 -6.9733,-6.9733 v -17.334 h -2.3112 v 17.334 c 0,3.8766 -3.1352,6.9733 -7.0132,6.9733 -3.8753,0 -6.9733,-3.0969 -6.9733,-6.9733 v -17.334 h -2.3112 z m 153.45,0 v 12.791 c 0,7.6311 6.195,13.827 13.827,13.827 7.6322,0 13.867,-6.1959 13.867,-13.827 v -12.791 h -2.3112 v 12.791 c 0,6.3837 -5.1707,11.516 -11.556,11.516 -6.3851,0 -11.516,-5.1322 -11.516,-11.516 v -12.791 h -2.3112 z m -19.924,1.2353 c 6.3856,0 11.556,5.1702 11.556,11.556 0,6.3856 -5.1702,11.556 -11.556,11.556 -6.3856,0 -11.516,-5.1702 -11.516,-11.556 0,-6.3856 5.1304,-11.556 11.516,-11.556 z m 67.821,0 h 11.675 c 0.009,1.5271 0.0728,12.046 0,16.059 -0.0326,1.7858 -1.0121,3.5776 -2.4307,4.9013 -1.4186,1.3236 -3.2544,2.1119 -4.702,2.1119 h -4.5426 c -6.3851,0 -11.516,-5.1322 -11.516,-11.516 0,-6.3852 5.1309,-11.556 11.516,-11.556 z m -222.11,0.0399 c 6.385,0 11.516,5.131 11.516,11.516 0,6.385 -5.131,11.516 -11.516,11.516 -6.385,0 -11.556,-5.131 -11.556,-11.516 0,-6.385 5.1708,-11.516 11.556,-11.516 z"
     id="path3951" /><text
     sodipodi:linespacing="100%"
     id="text3959"
     y="627.08002"
     x="-148.02673"
     style="font-size:65.46346283px;font-style:normal;font-weight:normal;line-height:100%;letter-spacing:0px;word-spacing:0px;fill:#000000;fill-opacity:1;stroke:none;font-family:Sans"
     xml:space="preserve"><tspan
       style="font-size:70.37321472px;font-style:normal;font-variant:normal;font-weight:normal;font-stretch:normal;line-height:100%;letter-spacing:-2.17666054px;fill:#ffffff;fill-opacity:1;font-family:Source Sans Pro;-inkscape-font-specification:Source Sans Pro"
       y="627.08002"
       x="-148.02673"
       sodipodi:role="line"
       dx="0"
       id="tspan3961">CONTRIBUTOR</tspan><tspan
       style="font-size:70.37321472px;font-style:normal;font-variant:normal;font-weight:bold;font-stretch:normal;line-height:100%;fill:#ffffff;fill-opacity:1;font-family:Source Sans Pro;-inkscape-font-specification:Source Sans Pro Bold"
       id="tspan3963"
       y="697.45325"
       x="-148.02673"
       sodipodi:role="line">CONFERENCE</tspan></text>
<rect
     y="-0.00099404308"
     x="0"
     height="400.00003"
     width="500.00003"
     id="rect4157"
     style="fill:url(#linearGradient4173);fill-opacity:1;stroke:none"
     inkscape:export-filename="/home/jan/ownCloud Contributor Conference.png"
     inkscape:export-xdpi="90"
     inkscape:export-ydpi="90" /><path
     inkscape:connector-curvature="0"
     style="text-indent:0;text-transform:none;block-progression:tb;color:#000000;fill:#ffffff;enable-background:accumulate"
     d="m 275.62729,80.070661 c -11.241,0 -20.322,9.0815 -20.322,20.321999 0,4.6335 1.5429,8.898 4.1442,12.313 5.6431,-6.5315 13.972,-10.679 23.271,-10.679 4.5496,0 8.8639,1.0131 12.751,2.7893 0.3147,-1.4234 0.4782,-2.9037 0.4782,-4.4231 0.01,-11.239999 -9.08,-20.321999 -20.32,-20.321999 z m -26.539,9.404 c -5.8539,0 -10.56,4.7456 -10.56,10.598999 0,1.8953 0.489,3.6862 1.3548,5.22 3.5325,-1.9927 7.6164,-3.148 11.954,-3.148 0.4186,0 0.8219,0.017 1.2353,0.0398 -0.047,-0.59343 -0.08,-1.1878 -0.08,-1.7931 0,-3.260499 0.7082,-6.362699 1.9525,-9.164999 -1.6754,-1.1235 -3.6828,-1.7533 -5.8576,-1.7533 z m 50.128,7.2921 c -0.4325,0 -0.8493,0.05309 -1.2751,0.0797 0.1842,1.1613 0.3188,2.3339 0.3188,3.546399 0,1.8871 -0.24,3.708 -0.6774,5.4591 5.1284,2.8381 9.3873,7.0847 12.193,12.233 2.9105,-1.5152 6.1573,-2.4787 9.6033,-2.7096 -0.8881,-10.415 -9.5166,-18.608999 -20.163,-18.608999 z m -16.497,7.571099 c -15.729,0 -28.451,12.721 -28.451,28.451 0,15.729 12.721,28.451 28.451,28.451 15.73,0 28.451,-12.723 28.451,-28.451 0,-15.73 -12.722,-28.451 -28.451,-28.451 z m -30.882,0.11954 c -12.203,0 -22.076,9.8727 -22.076,22.076 0,7.1836 3.4227,13.543 8.7266,17.573 2.236,-4.3127 6.727,-7.2523 11.914,-7.2523 0.627,0 1.2287,0.076 1.833,0.15939 -0.1897,-1.3801 -0.2789,-2.792 -0.2789,-4.2239 0,-6.846 2.2284,-13.177 6.017,-18.29 -2.2678,-2.8377 -3.8907,-6.2474 -4.5825,-9.9619 -0.5127,-0.0355 -1.0323,-0.0797 -1.5541,-0.0797 z m 69.18,13.149 c -3.7054,0 -7.1763,0.94599 -10.241,2.5503 1.7401,3.8545 2.7096,8.1312 2.7096,12.632 0,8.4268 -3.3881,16.079 -8.886,21.637 4.039,4.4841 9.8991,7.2921 16.417,7.2921 12.203,0 22.076,-9.8727 22.076,-22.076 0,-12.2033 -9.8727,-22.036 -22.076,-22.036 z m -93.403,2.9089 c -11.241,0 -20.362,9.0413 -20.362,20.282 0,11.2407 9.121,20.362 20.362,20.362 4.2785,0 8.2419,-1.333 11.516,-3.5863 -1.3529,-2.1023 -2.1518,-4.6156 -2.1518,-7.2921 0,-1.3892 0.205,-2.7238 0.5977,-3.9848 -6.1294,-4.4296 -10.121,-11.638 -10.121,-19.764 0,-2.0648 0.2721,-4.0613 0.7571,-5.9772 -0.2013,-0.006 -0.3949,-0.0399 -0.5977,-0.0399 z m 119.5,17.453 c -0.5997,0 -1.1799,0.0683 -1.7533,0.15939 0.032,0.50688 0.04,0.99939 0.04,1.5142 0,6.4816 -2.5574,12.364 -6.6944,16.736 2.0353,2.3668 5.0248,3.8652 8.4079,3.8652 6.1623,0 11.157,-4.9552 11.157,-11.117 0,-6.1623 -4.9951,-11.157 -11.157,-11.157 z m -96.71,1.1954 c -6.162,0 -11.118,4.9555 -11.118,11.117 0,6.162 4.9555,11.157 11.118,11.157 4.7232,0 8.7323,-2.9472 10.36,-7.0929 -3.9726,-4.046 -6.8276,-9.2077 -8.0891,-14.943 -0.7382,-0.15266 -1.4875,-0.23909 -2.2713,-0.23909 z m 122.21,9.3642 v 22.036 h -11.675 c -7.6322,0 -13.827,6.2347 -13.827,13.867 0,7.6311 6.195,13.827 13.827,13.827 h 4.5426 c 2.239,0 4.4748,-1.0874 6.2561,-2.7495 1.7813,-1.6621 3.1409,-3.9644 3.1878,-6.535 0.08,-4.4122 0,-17.254 0,-17.254 v -23.191 h -2.3112 z m -106.75,9.9619 v 30.483 c 0,5.1232 4.2011,9.2845 9.3244,9.2845 v -2.3112 c -3.8766,0 -7.0132,-3.0967 -7.0132,-6.9733 v -29.049 c -0.8046,-0.4325 -1.5514,-0.93449 -2.3112,-1.4345 z m -23.112,2.8292 c -4.0935,3.9059 -6.6546,9.4053 -6.6546,15.501 0,11.827 9.6118,21.438 21.438,21.438 v -2.3112 c -10.579,0 -19.127,-8.5469 -19.127,-19.127 0,-5.6905 2.4839,-10.805 6.4155,-14.305 -0.7348,-0.33851 -1.4155,-0.73502 -2.0721,-1.1954 z m -27.216,9.165 c -7.6322,0 -13.827,6.1949 -13.827,13.827 v 12.791 h 2.3112 v -12.791 c 0,-6.3852 5.1309,-11.556 11.516,-11.556 6.3864,0 11.556,5.1706 11.556,11.556 v 12.791 h 2.3112 v -12.791 c 0,-7.6322 -6.2338,-13.827 -13.867,-13.827 z m 77.583,0.0797 c -7.6326,0 -13.827,6.2344 -13.827,13.867 0,7.6326 6.1945,13.867 13.827,13.867 7.6326,0 13.867,-6.2344 13.867,-13.867 0,-7.6326 -6.2344,-13.867 -13.867,-13.867 z m -154.29,0.0398 c -7.632,0 -13.867,6.1952 -13.867,13.827 0,7.632 6.235,13.827 13.867,13.827 7.632,0 13.827,-6.1952 13.827,-13.827 0,-7.632 -6.1952,-13.827 -13.827,-13.827 z m 20.761,1.036 v 17.334 c 0,5.1234 4.1622,9.2845 9.2845,9.2845 3.4912,0 6.5716,-1.9303 8.1688,-4.7817 1.5857,2.8514 4.6384,4.7817 8.1289,4.7817 5.1233,0 9.3243,-4.1611 9.3243,-9.2845 v -17.334 h -2.3112 v 17.334 c 0,3.8764 -3.1366,6.9733 -7.0132,6.9733 -3.8766,0 -6.9733,-3.0969 -6.9733,-6.9733 v -17.334 h -2.3112 v 17.334 c 0,3.8766 -3.1352,6.9733 -7.0132,6.9733 -3.8753,0 -6.9733,-3.0969 -6.9733,-6.9733 v -17.334 h -2.3112 z m 153.45,0 v 12.791 c 0,7.6311 6.195,13.827 13.827,13.827 7.6322,0 13.867,-6.1959 13.867,-13.827 v -12.791 h -2.3112 v 12.791 c 0,6.3837 -5.1707,11.516 -11.556,11.516 -6.3851,0 -11.516,-5.1322 -11.516,-11.516 v -12.791 h -2.3112 z m -19.924,1.2353 c 6.3856,0 11.556,5.1702 11.556,11.556 0,6.3856 -5.1702,11.556 -11.556,11.556 -6.3856,0 -11.516,-5.1702 -11.516,-11.556 0,-6.3856 5.1304,-11.556 11.516,-11.556 z m 67.821,0 h 11.675 c 0.01,1.5271 0.073,12.046 0,16.059 -0.033,1.7858 -1.0121,3.5776 -2.4307,4.9013 -1.4186,1.3236 -3.2544,2.1119 -4.702,2.1119 h -4.5426 c -6.3851,0 -11.516,-5.1322 -11.516,-11.516 0,-6.3852 5.1309,-11.556 11.516,-11.556 z m -222.11,0.0399 c 6.385,0 11.516,5.131 11.516,11.516 0,6.385 -5.131,11.516 -11.516,11.516 -6.385,0 -11.556,-5.131 -11.556,-11.516 0,-6.385 5.1708,-11.516 11.556,-11.516 z"
     id="path4159"
     inkscape:export-filename="/home/jan/ownCloud Contributor Conference.png"
     inkscape:export-xdpi="90"
     inkscape:export-ydpi="90" /><text
     xml:space="preserve"
     style="font-size:40px;font-style:normal;font-weight:normal;line-height:100%;letter-spacing:0px;word-spacing:0px;fill:#000000;fill-opacity:1;stroke:none;font-family:Sans"
     x="122.72266"
     y="241.1265"
     id="text4161"
     sodipodi:linespacing="100%"
     inkscape:export-filename="/home/jan/ownCloud Contributor Conference.png"
     inkscape:export-xdpi="90"
     inkscape:export-ydpi="90"><tspan
       id="tspan4163"
       dx="0"
       sodipodi:role="line"
       x="122.72266"
       y="241.1265"
       style="font-size:43px;font-style:normal;font-variant:normal;font-weight:normal;font-stretch:normal;line-height:100%;letter-spacing:-1.33000028px;fill:#ffffff;fill-opacity:1;font-family:Source Sans Pro;-inkscape-font-specification:Source Sans Pro">CONTRIBUTOR</tspan><tspan
       sodipodi:role="line"
       x="122.72266"
       y="284.1265"
       id="tspan4165"
       style="font-size:43px;font-style:normal;font-variant:normal;font-weight:bold;font-stretch:normal;line-height:100%;fill:#ffffff;fill-opacity:1;font-family:Source Sans Pro;-inkscape-font-specification:Source Sans Pro Bold">CONFERENCE</tspan></text>
<rect
     style="fill:url(#linearGradient4457);fill-opacity:1;stroke:none"
     id="rect4424"
     width="800.00006"
     height="640"
     x="540"
     y="-240.00093"
     inkscape:export-filename="/home/jan/ownCloud Contributor Conference large.png"
     inkscape:export-xdpi="90"
     inkscape:export-ydpi="90" /><path
     id="path4426"
     d="m 975.62729,-111.92934 c -11.241,0 -20.322,9.08149 -20.322,20.321991 0,4.6335 1.5429,8.898 4.1442,12.313 5.6431,-6.5315 13.972,-10.679 23.271,-10.679 4.5496,0 8.8639,1.0131 12.751,2.7893 0.3147,-1.4234 0.4782,-2.9037 0.4782,-4.4231 0.01,-11.240001 -9.08,-20.322001 -20.32,-20.322001 z m -26.539,9.40399 c -5.8539,0 -10.56,4.745601 -10.56,10.599001 0,1.8953 0.489,3.6862 1.3548,5.22 3.5325,-1.9927 7.6164,-3.148 11.954,-3.148 0.4186,0 0.8219,0.017 1.2353,0.0399 -0.047,-0.59343 -0.08,-1.1878 -0.08,-1.7931 0,-3.2605 0.7082,-6.3627 1.9525,-9.165001 -1.6754,-1.1235 -3.6828,-1.7533 -5.8576,-1.7533 z m 50.128,7.292101 c -0.4325,0 -0.8493,0.0531 -1.2751,0.0797 0.1842,1.1613 0.3188,2.3339 0.3188,3.5464 0,1.8871 -0.24,3.708 -0.6774,5.4591 5.12841,2.8381 9.38731,7.0847 12.19301,12.233 2.9105,-1.5152 6.1573,-2.4787 9.6033,-2.7096 -0.8881,-10.415 -9.5166,-18.609 -20.16301,-18.609 z m -16.497,7.5711 c -15.729,0 -28.451,12.721 -28.451,28.451 0,15.729 12.721,28.451 28.451,28.451 15.73,0 28.45101,-12.723 28.45101,-28.451 0,-15.73 -12.72201,-28.451 -28.45101,-28.451 z m -30.882,0.11954 c -12.203,0 -22.076,9.8727 -22.076,22.076 0,7.1836 3.4227,13.543 8.7266,17.573 2.236,-4.3127 6.727,-7.2523 11.914,-7.2523 0.627,0 1.2287,0.076 1.833,0.15939 -0.1897,-1.3801 -0.2789,-2.792 -0.2789,-4.2239 0,-6.846 2.2284,-13.177 6.017,-18.29 -2.2678,-2.8377 -3.8907,-6.2474 -4.5825,-9.9619 -0.5127,-0.0355 -1.0323,-0.0797 -1.5541,-0.0797 z m 69.18001,13.149 c -3.7054,0 -7.1763,0.94599 -10.241,2.5503 1.7401,3.8545 2.7096,8.1312 2.7096,12.632 0,8.4268 -3.3881,16.079 -8.886,21.637 4.039,4.4841 9.8991,7.2921 16.417,7.2921 12.203,0 22.076,-9.8727 22.076,-22.076 0,-12.2033 -9.8727,-22.036 -22.076,-22.036 z m -93.40301,2.9089 c -11.241,0 -20.362,9.0413 -20.362,20.282 0,11.2407 9.121,20.362 20.362,20.362 4.2785,0 8.2419,-1.333 11.516,-3.5863 -1.3529,-2.1023 -2.1518,-4.6156 -2.1518,-7.2921 0,-1.3892 0.205,-2.7238 0.5977,-3.9848 -6.1294,-4.4296 -10.121,-11.638 -10.121,-19.764 0,-2.0648 0.2721,-4.0613 0.7571,-5.9772 -0.2013,-0.006 -0.3949,-0.0399 -0.5977,-0.0399 z m 119.50001,17.453 c -0.5997,0 -1.1799,0.0683 -1.7533,0.15939 0.032,0.50688 0.04,0.99939 0.04,1.5142 0,6.4816 -2.5574,12.364 -6.6944,16.736 2.0353,2.3668 5.0248,3.8652 8.4079,3.8652 6.1623,0 11.157,-4.9552 11.157,-11.117 0,-6.1623 -4.9951,-11.157 -11.157,-11.157 z m -96.71001,1.1954 c -6.162,0 -11.118,4.9555 -11.118,11.117 0,6.162 4.9555,11.157 11.118,11.157 4.7232,0 8.7323,-2.9472 10.36,-7.0929 -3.9726,-4.046 -6.8276,-9.2077 -8.0891,-14.943 -0.7382,-0.15266 -1.4875,-0.23909 -2.2713,-0.23909 z m 122.21001,9.3642 v 22.036 h -11.675 c -7.6322,0 -13.827,6.234701 -13.827,13.8670022 0,7.63110003 6.195,13.827 13.827,13.827 h 4.5426 c 2.239,0 4.4748,-1.0874 6.2561,-2.7495 1.7813,-1.6621 3.1409,-3.96439997 3.1878,-6.535 0.08,-4.4122 0,-17.2540022 0,-17.2540022 v -23.191 h -2.3112 z m -106.75001,9.9619 v 30.4830022 c 0,5.1232 4.2011,9.2845 9.3244,9.2845 v -2.3112 c -3.8766,0 -7.0132,-3.09669997 -7.0132,-6.9733 V -32.076209 c -0.8046,-0.4325 -1.5514,-0.93449 -2.3112,-1.4345 z m -23.112,2.8292 c -4.0935,3.9059 -6.6546,9.4053 -6.6546,15.501001 0,11.8270012 9.6118,21.4380012 21.438,21.4380012 v -2.3112 c -10.579,0 -19.127,-8.5469 -19.127,-19.1270012 0,-5.690501 2.4839,-10.805001 6.4155,-14.305001 -0.7348,-0.33851 -1.4155,-0.73502 -2.0721,-1.1954 z m -27.216,9.165 c -7.6322,0 -13.827,6.194901 -13.827,13.8270022 v 12.791 h 2.3112 v -12.791 c 0,-6.3852012 5.1309,-11.5560012 11.516,-11.5560012 6.3864,0 11.556,5.1706 11.556,11.5560012 v 12.791 h 2.3112 v -12.791 c 0,-7.6322012 -6.2338,-13.8270022 -13.867,-13.8270022 z m 77.583,0.0797 c -7.6326,0 -13.827,6.234401 -13.827,13.8670022 0,7.63260003 6.1945,13.867 13.827,13.867 7.63261,0 13.86701,-6.23439997 13.86701,-13.867 0,-7.6326012 -6.2344,-13.8670022 -13.86701,-13.8670022 z m -154.29,0.0398 c -7.632,0 -13.867,6.195201 -13.867,13.8270022 0,7.63200003 6.235,13.827 13.867,13.827 7.632,0 13.827,-6.19519997 13.827,-13.827 0,-7.6320012 -6.1952,-13.8270022 -13.827,-13.8270022 z m 20.761,1.036 v 17.3340022 c 0,5.1234 4.1622,9.2845 9.2845,9.2845 3.4912,0 6.5716,-1.9303 8.1688,-4.7817 1.5857,2.8514 4.6384,4.7817 8.1289,4.7817 5.1233,0 9.3243,-4.1611 9.3243,-9.2845 V -20.360509 h -2.3112 v 17.3340022 c 0,3.87640003 -3.1366,6.9733 -7.0132,6.9733 -3.8766,0 -6.9733,-3.09689997 -6.9733,-6.9733 V -20.360509 h -2.3112 v 17.3340022 c 0,3.87660003 -3.1352,6.9733 -7.0132,6.9733 -3.8753,0 -6.9733,-3.09689997 -6.9733,-6.9733 V -20.360509 h -2.3112 z m 153.45001,0 v 12.7910022 c 0,7.63110003 6.195,13.827 13.827,13.827 7.6322,0 13.867,-6.19589997 13.867,-13.827 V -20.360509 h -2.3112 v 12.7910022 c 0,6.3837 -5.1707,11.516 -11.556,11.516 -6.3851,0 -11.516,-5.1322 -11.516,-11.516 V -20.360509 h -2.3112 z m -19.92401,1.235301 c 6.3856,0 11.55601,5.1702 11.55601,11.5560012 0,6.3856 -5.17021,11.556 -11.55601,11.556 -6.3856,0 -11.516,-5.1702 -11.516,-11.556 0,-6.3856012 5.1304,-11.5560012 11.516,-11.5560012 z m 67.82101,0 h 11.675 c 0.01,1.5271 0.073,12.0460012 0,16.0590012 -0.033,1.7858 -1.0121,3.57760003 -2.4307,4.9013 -1.4186,1.3236 -3.2544,2.1119 -4.702,2.1119 h -4.5426 c -6.3851,0 -11.516,-5.1322 -11.516,-11.516 0,-6.3852012 5.1309,-11.5560012 11.516,-11.5560012 z m -222.11001,0.0399 c 6.385,0 11.516,5.131 11.516,11.5160012 0,6.385 -5.131,11.516 -11.516,11.516 -6.385,0 -11.556,-5.131 -11.556,-11.516 0,-6.3850012 5.1708,-11.5160012 11.556,-11.5160012 z"
     style="text-indent:0;text-transform:none;block-progression:tb;color:#000000;fill:#ffffff;enable-background:accumulate"
     inkscape:connector-curvature="0"
     inkscape:export-filename="/home/jan/ownCloud Contributor Conference large.png"
     inkscape:export-xdpi="90"
     inkscape:export-ydpi="90" /><text
     sodipodi:linespacing="100%"
     id="text4428"
     y="49.126488"
     x="822.72266"
     style="font-size:43px;font-style:normal;font-weight:normal;line-height:100%;letter-spacing:0px;word-spacing:0px;fill:#000000;fill-opacity:1;stroke:none;font-family:Sans"
     xml:space="preserve"
     inkscape:export-filename="/home/jan/ownCloud Contributor Conference large.png"
     inkscape:export-xdpi="90"
     inkscape:export-ydpi="90"><tspan
       style="font-size:43px;font-style:normal;font-variant:normal;font-weight:normal;font-stretch:normal;line-height:100%;letter-spacing:-1.33000028px;fill:#ffffff;fill-opacity:1;font-family:Source Sans Pro;-inkscape-font-specification:Source Sans Pro"
       y="49.126488"
       x="822.72266"
       sodipodi:role="line"
       dx="0"
       id="tspan4430">CONTRIBUTOR</tspan><tspan
       style="font-size:43px;font-style:normal;font-variant:normal;font-weight:bold;font-stretch:normal;line-height:100%;fill:#ffffff;fill-opacity:1;font-family:Source Sans Pro;-inkscape-font-specification:Source Sans Pro Bold"
       y="92.126488"
       x="822.72266"
       sodipodi:role="line"
       id="tspan4473">CONFERENCE</tspan></text>
<text
     xml:space="preserve"
     style="font-size:40px;font-style:normal;font-weight:normal;line-height:129.99999523%;letter-spacing:0px;word-spacing:0px;fill:#000000;fill-opacity:1;stroke:none;font-family:Sans"
     x="949.86023"
     y="151.01332"
     id="text4459"
     sodipodi:linespacing="130%"
     inkscape:export-filename="/home/jan/ownCloud Contributor Conference large.png"
     inkscape:export-xdpi="90"
     inkscape:export-ydpi="90"><tspan
       sodipodi:role="line"
       x="949.86023"
       y="151.01332"
       id="tspan4463"
       style="font-size:30.00000191px;font-style:normal;font-variant:normal;font-weight:normal;font-stretch:normal;text-align:center;line-height:129.99999523%;text-anchor:middle;fill:#ffffff;fill-opacity:1;font-family:Source Sans Pro;-inkscape-font-specification:Source Sans Pro">26–31 August 2014</tspan><tspan
       sodipodi:role="line"
       x="949.86023"
       y="190.01332"
       style="font-size:30.00000191px;font-style:normal;font-variant:normal;font-weight:bold;font-stretch:normal;text-align:center;line-height:129.99999523%;text-anchor:middle;fill:#ffffff;fill-opacity:1;font-family:Source Sans Pro;-inkscape-font-specification:Source Sans Pro Bold"
       id="tspan4511">Berlin</tspan><tspan
       sodipodi:role="line"
       x="949.86023"
       y="229.01332"
       style="font-size:24.00000191px;font-style:normal;font-variant:normal;font-weight:normal;font-stretch:normal;text-align:center;line-height:129.99999523%;text-anchor:middle;fill:#ffffff;fill-opacity:1;font-family:Source Sans Pro;-inkscape-font-specification:Source Sans Pro"
       id="tspan4515" /><tspan
       sodipodi:role="line"
       x="949.86023"
       y="268.01331"
       style="font-size:24.00000191px;font-style:normal;font-variant:normal;font-weight:normal;font-stretch:normal;text-align:center;line-height:129.99999523%;text-anchor:middle;fill:#ffffff;fill-opacity:1;font-family:Source Sans Pro;-inkscape-font-specification:Source Sans Pro"
       id="tspan4509" /></text>
<text
     sodipodi:linespacing="130%"
     id="text4525"
     y="239.01332"
     x="949.86023"
     style="font-size:40px;font-style:normal;font-weight:normal;line-height:129.99999523%;letter-spacing:0px;word-spacing:0px;fill:#000000;fill-opacity:1;stroke:none;font-family:Sans"
     xml:space="preserve"
     inkscape:export-filename="/home/jan/ownCloud Contributor Conference large.png"
     inkscape:export-xdpi="90"
     inkscape:export-ydpi="90"><tspan
       id="tspan4533"
       style="font-size:24.00000191px;font-style:normal;font-variant:normal;font-weight:normal;font-stretch:normal;text-align:center;line-height:129.99999523%;text-anchor:middle;fill:#ffffff;fill-opacity:1;font-family:Source Sans Pro;-inkscape-font-specification:Source Sans Pro"
       y="239.01332"
       x="949.86023"
       sodipodi:role="line">owncloud.org/conf</tspan><tspan
       style="font-size:24.00000191px;font-style:normal;font-variant:normal;font-weight:bold;font-stretch:normal;text-align:center;line-height:129.99999523%;text-anchor:middle;fill:#ffffff;fill-opacity:1;font-family:Source Sans Pro;-inkscape-font-specification:Source Sans Pro Bold"
       y="270.21332"
       x="949.86023"
       sodipodi:role="line"
       id="tspan4544">#owncloudconf</tspan></text>
</svg>