<?xml version="1.0" encoding="UTF-8" standalone="no"?>
<!-- Created with Inkscape (http://www.inkscape.org/) -->

<svg
   xmlns:dc="http://purl.org/dc/elements/1.1/"
   xmlns:cc="http://creativecommons.org/ns#"
   xmlns:rdf="http://www.w3.org/1999/02/22-rdf-syntax-ns#"
   xmlns:svg="http://www.w3.org/2000/svg"
   xmlns="http://www.w3.org/2000/svg"
   xmlns:xlink="http://www.w3.org/1999/xlink"
   xmlns:sodipodi="http://sodipodi.sourceforge.net/DTD/sodipodi-0.dtd"
   xmlns:inkscape="http://www.inkscape.org/namespaces/inkscape"
   width="744.09448"
   height="1052.3622"
   id="svg2"
   version="1.1"
   inkscape:version="0.48.4 r9939"
   sodipodi:docname="Theres an app for that.svg"
   inkscape:export-filename="/home/jospoortvliet/ownCloud/oCC2014/posters/Jan/app.png"
   inkscape:export-xdpi="300"
   inkscape:export-ydpi="300">
  <defs
     id="defs4">
    <inkscape:path-effect
       effect="spiro"
       id="path-effect5640"
       is_visible="true" />
    <inkscape:path-effect
       effect="spiro"
       id="path-effect5054"
       is_visible="true" />
    <inkscape:path-effect
       effect="spiro"
       id="path-effect5050"
       is_visible="true" />
    <marker
       inkscape:stockid="Arrow2Lend"
       orient="auto"
       refY="0.0"
       refX="0.0"
       id="Arrow2Lend"
       style="overflow:visible;">
      <path
         id="path4441"
         style="fill-rule:evenodd;stroke-width:0.62500000;stroke-linejoin:round;"
         d="M 8.7185878,4.0337352 L -2.2072895,0.016013256 L 8.7185884,-4.0017078 C 6.9730900,-1.6296469 6.9831476,1.6157441 8.7185878,4.0337352 z "
         transform="scale(1.1) rotate(180) translate(1,0)" />
    </marker>
    <marker
       inkscape:stockid="Arrow1Lend"
       orient="auto"
       refY="0.0"
       refX="0.0"
       id="Arrow1Lend"
       style="overflow:visible;">
      <path
         id="path4423"
         d="M 0.0,0.0 L 5.0,-5.0 L -12.5,0.0 L 5.0,5.0 L 0.0,0.0 z "
         style="fill-rule:evenodd;stroke:#000000;stroke-width:1.0pt;"
         transform="scale(0.8) rotate(180) translate(12.5,0)" />
    </marker>
    <linearGradient
       id="SVGID_9_"
       gradientUnits="userSpaceOnUse"
       x1="346.77341"
       y1="55.888199"
       x2="346.77341"
       y2="339.22119">
      <stop
         offset="0"
         style="stop-color:#BED5E1"
         id="stop317" />
      <stop
         offset="1"
         style="stop-color:#567B8F"
         id="stop319" />
    </linearGradient>
    <linearGradient
       id="SVGID_8_"
       gradientUnits="userSpaceOnUse"
       x1="290.76169"
       y1="55.8867"
       x2="290.76169"
       y2="339.2236">
      <stop
         offset="0"
         style="stop-color:#BED5E1"
         id="stop310" />
      <stop
         offset="1"
         style="stop-color:#567B8F"
         id="stop312" />
    </linearGradient>
    <linearGradient
       id="SVGID_7_"
       gradientUnits="userSpaceOnUse"
       x1="413.16309"
       y1="55.888199"
       x2="413.16309"
       y2="339.22131">
      <stop
         offset="0"
         style="stop-color:#BED5E1"
         id="stop303" />
      <stop
         offset="1"
         style="stop-color:#567B8F"
         id="stop305" />
    </linearGradient>
    <linearGradient
       id="SVGID_6_"
       gradientUnits="userSpaceOnUse"
       x1="458.42679"
       y1="55.8867"
       x2="458.42679"
       y2="339.2236">
      <stop
         offset="0"
         style="stop-color:#BED5E1"
         id="stop296" />
      <stop
         offset="1"
         style="stop-color:#567B8F"
         id="stop298" />
    </linearGradient>
    <linearGradient
       id="SVGID_5_"
       gradientUnits="userSpaceOnUse"
       x1="334.49411"
       y1="55.888199"
       x2="334.49411"
       y2="339.22159">
      <stop
         offset="0"
         style="stop-color:#BED5E1"
         id="stop289" />
      <stop
         offset="1"
         style="stop-color:#567B8F"
         id="stop291" />
    </linearGradient>
    <linearGradient
       id="SVGID_4_"
       gradientUnits="userSpaceOnUse"
       x1="375.33401"
       y1="55.888199"
       x2="375.33401"
       y2="339.22159">
      <stop
         offset="0"
         style="stop-color:#BED5E1"
         id="stop282" />
      <stop
         offset="1"
         style="stop-color:#567B8F"
         id="stop284" />
    </linearGradient>
    <linearGradient
       id="SVGID_3_"
       gradientUnits="userSpaceOnUse"
       x1="293.22461"
       y1="55.888199"
       x2="293.22461"
       y2="339.22171">
      <stop
         offset="0"
         style="stop-color:#BED5E1"
         id="stop275" />
      <stop
         offset="1"
         style="stop-color:#567B8F"
         id="stop277" />
    </linearGradient>
    <linearGradient
       id="SVGID_2_"
       gradientUnits="userSpaceOnUse"
       x1="251.2114"
       y1="55.888199"
       x2="251.2114"
       y2="339.22159">
      <stop
         offset="0"
         style="stop-color:#BED5E1"
         id="stop268" />
      <stop
         offset="1"
         style="stop-color:#567B8F"
         id="stop270" />
    </linearGradient>
    <linearGradient
       id="SVGID_1_"
       gradientUnits="userSpaceOnUse"
       x1="288.49411"
       y1="55.888199"
       x2="288.49411"
       y2="339.22189">
      <stop
         offset="0"
         style="stop-color:#BED5E1"
         id="stop261" />
      <stop
         offset="1"
         style="stop-color:#567B8F"
         id="stop263" />
    </linearGradient>
    <linearGradient
       y2="339.22119"
       x2="346.77341"
       y1="55.888199"
       x1="346.77341"
       gradientUnits="userSpaceOnUse"
       id="linearGradient3369"
       xlink:href="#SVGID_9_"
       inkscape:collect="always" />
    <linearGradient
       y2="339.2236"
       x2="290.76169"
       y1="55.8867"
       x1="290.76169"
       gradientUnits="userSpaceOnUse"
       id="linearGradient3367"
       xlink:href="#SVGID_8_"
       inkscape:collect="always" />
    <linearGradient
       y2="339.22131"
       x2="413.16309"
       y1="55.888199"
       x1="413.16309"
       gradientUnits="userSpaceOnUse"
       id="linearGradient3365"
       xlink:href="#SVGID_7_"
       inkscape:collect="always" />
    <linearGradient
       y2="339.2236"
       x2="458.42679"
       y1="55.8867"
       x1="458.42679"
       gradientUnits="userSpaceOnUse"
       id="linearGradient3363"
       xlink:href="#SVGID_6_"
       inkscape:collect="always" />
    <linearGradient
       y2="339.22159"
       x2="334.49411"
       y1="55.888199"
       x1="334.49411"
       gradientUnits="userSpaceOnUse"
       id="linearGradient3361"
       xlink:href="#SVGID_5_"
       inkscape:collect="always" />
    <linearGradient
       y2="339.22159"
       x2="375.33401"
       y1="55.888199"
       x1="375.33401"
       gradientUnits="userSpaceOnUse"
       id="linearGradient3359"
       xlink:href="#SVGID_4_"
       inkscape:collect="always" />
    <linearGradient
       y2="339.22171"
       x2="293.22461"
       y1="55.888199"
       x1="293.22461"
       gradientUnits="userSpaceOnUse"
       id="linearGradient3357"
       xlink:href="#SVGID_3_"
       inkscape:collect="always" />
    <linearGradient
       y2="339.22159"
       x2="251.2114"
       y1="55.888199"
       x1="251.2114"
       gradientUnits="userSpaceOnUse"
       id="linearGradient3355"
       xlink:href="#SVGID_2_"
       inkscape:collect="always" />
    <linearGradient
       y2="339.22189"
       x2="288.49411"
       y1="55.888199"
       x1="288.49411"
       gradientUnits="userSpaceOnUse"
       id="linearGradient3353"
       xlink:href="#SVGID_1_"
       inkscape:collect="always" />
    <linearGradient
       id="linearGradient3807-6">
      <stop
         id="stop3809-5"
         offset="0"
         style="stop-color:#ffffff;stop-opacity:1;" />
      <stop
         id="stop3811-1"
         offset="1"
         style="stop-color:#e6e6e6;stop-opacity:1;" />
    </linearGradient>
    <linearGradient
       id="linearGradient3807">
      <stop
         id="stop3809"
         offset="0"
         style="stop-color:#ffffff;stop-opacity:1;" />
      <stop
         id="stop3811"
         offset="1"
         style="stop-color:#e6e6e6;stop-opacity:1;" />
    </linearGradient>
    <clipPath
       id="clipPath3846"
       clipPathUnits="userSpaceOnUse">
      <rect
         ry="20"
         rx="20"
         y="0"
         x="0"
         height="144"
         width="144"
         id="rect3848"
         style="fill:url(#linearGradient3850);fill-opacity:1;stroke:none" />
    </clipPath>
    <linearGradient
       id="linearGradient3763">
      <stop
         id="stop3765"
         offset="0"
         style="stop-color:#35537a;stop-opacity:1;" />
      <stop
         id="stop3767"
         offset="1"
         style="stop-color:#1d2d44;stop-opacity:1;" />
    </linearGradient>
    <linearGradient
       y2="133.9725"
       x2="59.882252"
       y1="-7.5668597"
       x1="59.882252"
       gradientTransform="translate(8,7)"
       gradientUnits="userSpaceOnUse"
       id="linearGradient3822"
       xlink:href="#linearGradient3763"
       inkscape:collect="always" />
    <inkscape:path-effect
       effect="spiro"
       id="path-effect5054-0"
       is_visible="true" />
    <inkscape:path-effect
       effect="spiro"
       id="path-effect5054-5"
       is_visible="true" />
  </defs>
  <sodipodi:namedview
     id="base"
     pagecolor="#ffffff"
     bordercolor="#666666"
     borderopacity="1.0"
     inkscape:pageopacity="0.0"
     inkscape:pageshadow="2"
     inkscape:zoom="0.64"
     inkscape:cx="444.15056"
     inkscape:cy="555.82096"
     inkscape:document-units="px"
     inkscape:current-layer="layer1"
     showgrid="false"
     fit-margin-top="0"
     fit-margin-left="0"
     fit-margin-right="0"
     fit-margin-bottom="0"
     inkscape:window-width="1920"
     inkscape:window-height="1022"
     inkscape:window-x="-6"
     inkscape:window-y="419"
     inkscape:window-maximized="1"
     inkscape:snap-bbox="true"
     inkscape:snap-page="true" />
  <metadata
     id="metadata7">
    <rdf:RDF>
      <cc:Work
         rdf:about="">
        <dc:format>image/svg+xml</dc:format>
        <dc:type
           rdf:resource="http://purl.org/dc/dcmitype/StillImage" />
        <dc:title></dc:title>
      </cc:Work>
    </rdf:RDF>
  </metadata>
  <g
     inkscape:label="Layer 1"
     inkscape:groupmode="layer"
     id="layer1"
     transform="translate(3911.8932,-870.56406)">
    <path
       inkscape:connector-curvature="0"
       id="path3643"
       d="m -3911.8932,1396.7452 0,-526.18114 372.0473,0 372.0472,0 0,526.18114 0,526.181 -372.0472,0 -372.0473,0 0,-526.181 z"
       style="fill:#1d2d44;fill-opacity:1" />
    <path
       style="opacity:0.25;fill:#ffffff"
       inkscape:connector-curvature="0"
       d="m -3628.7347,1490.4231 c -6.1556,0 -11.1113,4.9594 -11.1113,11.1151 v 102.7881 c 0,6.1563 4.9557,11.1001 11.1113,11.1001 h 177.7761 c 6.1563,0 11.1126,-4.9438 11.1126,-11.1001 v -102.7881 c 0,-6.1557 -4.9563,-11.1151 -11.1126,-11.1151 z m 9.3751,12.8513 76.0442,76.0443 h 6.5975 l 76.388,-76.0443 7.6388,7.6388 -45.4865,46.181 34.3752,35.0696 -7.6388,7.6388 -35.0696,-35.0696 -25.3477,25.6945 h -15.9725 l -25.344,-25.6877 -35.0714,35.4128 -7.6395,-7.9876 34.7228,-35.069 -45.8334,-46.179 z"
       id="path3402" />
    <flowRoot
       xml:space="preserve"
       id="flowRoot4467"
       style="font-size:8px;font-style:normal;font-variant:normal;font-weight:normal;font-stretch:normal;line-height:125%;letter-spacing:0px;word-spacing:0px;fill:#000000;fill-opacity:1;stroke:none;font-family:Open Sans;-inkscape-font-specification:Open Sans"><flowRegion
         id="flowRegion4469"><rect
           id="rect4471"
           width="125.71429"
           height="11.428572"
           x="-2051.4285"
           y="2578.0764" /></flowRegion><flowPara
         id="flowPara4473" /></flowRoot>    <flowRoot
       xml:space="preserve"
       id="flowRoot3824"
       style="font-size:40px;font-style:normal;font-weight:normal;line-height:125%;letter-spacing:0px;word-spacing:0px;fill:#000000;fill-opacity:1;stroke:none;font-family:Sans"
       transform="translate(-6319.6237,1291.7655)"><flowRegion
         id="flowRegion3826"><rect
           id="rect3828"
           width="286.49237"
           height="147.05882"
           x="8.7145967"
           y="148.73109" /></flowRegion><flowPara
         id="flowPara3830" /></flowRoot>    <flowRoot
       style="font-size:40px;font-style:normal;font-weight:normal;line-height:125%;letter-spacing:0px;word-spacing:0px;fill:#000000;fill-opacity:1;stroke:none;font-family:Sans"
       id="flowRoot3879"
       xml:space="preserve"
       transform="translate(-5779.6237,1291.7665)"><flowRegion
         id="flowRegion3881"><rect
           y="148.73109"
           x="8.7145967"
           height="147.05882"
           width="286.49237"
           id="rect3883" /></flowRegion><flowPara
         id="flowPara3885" /></flowRoot>    <g
       transform="matrix(0.45393616,0,0,0.43140022,-4721.8372,1612.3572)"
       id="g4733">
      <path
         inkscape:export-ydpi="90"
         inkscape:export-xdpi="90"
         inkscape:export-filename="/home/jan/ownCloud Contributor Conference large.png"
         inkscape:connector-curvature="0"
         style="text-indent:0;text-transform:none;block-progression:tb;color:#000000;fill:#ffffff;enable-background:accumulate"
         d="m 2640.4205,303.78495 c -15.5348,0 -28.0845,12.88658 -28.0845,28.83678 0,6.5749 2.1322,12.6262 5.7272,17.47206 7.7986,-9.26815 19.3089,-15.15343 32.1599,-15.15343 6.2874,0 12.2497,1.43758 17.6216,3.958 0.4349,-2.0198 0.6609,-4.12033 0.6609,-6.27634 0.013,-15.9495 -12.5484,-28.8368 -28.0818,-28.8368 z m -36.6763,13.3442 c -8.0899,0 -14.5936,6.73398 -14.5936,15.03992 0,2.68942 0.6758,5.23069 1.8723,7.40714 4.8818,-2.82763 10.5256,-4.46698 16.5201,-4.46698 0.5785,0 1.1359,0.0241 1.7072,0.0566 -0.065,-0.84207 -0.1106,-1.68548 -0.1106,-2.5444 0,-4.62662 0.9788,-9.02863 2.6983,-13.00508 -2.3153,-1.59423 -5.0896,-2.48791 -8.095,-2.48791 z m 69.2757,10.34745 c -0.5977,0 -1.1736,0.0753 -1.7622,0.11309 0.2546,1.64788 0.4407,3.31179 0.4407,5.03233 0,2.67778 -0.3318,5.26161 -0.9362,7.74642 7.0873,4.02724 12.973,10.05315 16.8504,17.35854 4.0222,-2.15005 8.5092,-3.51725 13.2716,-3.84489 -1.2274,-14.77883 -13.1518,-26.40606 -27.8648,-26.40606 z m -22.7984,10.74334 c -21.7371,0 -39.3186,18.05102 -39.3186,40.37179 0,22.31934 17.58,40.37179 39.3186,40.37179 21.7384,0 39.3186,-18.05386 39.3186,-40.37179 0,-22.32077 -17.5815,-40.37179 -39.3186,-40.37179 z m -42.6782,0.16962 c -16.8643,0 -30.5085,14.00931 -30.5085,31.32571 0,10.19349 4.7301,19.21743 12.0599,24.93597 3.0901,-6.11969 9.2966,-10.29096 16.4649,-10.29096 0.8665,0 1.6981,0.10784 2.5331,0.22617 -0.2621,-1.95835 -0.3854,-3.96183 -0.3854,-5.99369 0,-9.71443 3.0796,-18.69808 8.3154,-25.95339 -3.1341,-4.02667 -5.3768,-8.86502 -6.3329,-14.13587 -0.7086,-0.0503 -1.4267,-0.1131 -2.1478,-0.1131 z m 95.6051,18.65836 c -5.1208,0 -9.9175,1.34235 -14.1529,3.61885 2.4048,5.46952 3.7446,11.53812 3.7446,17.92473 0,11.95757 -4.6822,22.816 -12.2802,30.70276 5.5818,6.36291 13.6803,10.34744 22.6879,10.34744 16.8643,0 30.5086,-14.00929 30.5086,-31.32569 0,-17.31641 -13.6439,-31.26895 -30.5086,-31.26895 z m -129.0807,4.1277 c -15.5348,0 -28.1398,12.82955 -28.1398,28.78003 0,15.95048 12.605,28.89355 28.1398,28.89355 5.9127,0 11.3901,-1.89152 15.9148,-5.08894 -1.8697,-2.98315 -2.9737,-6.5495 -2.9737,-10.34744 0,-1.97126 0.2833,-3.86505 0.826,-5.6544 -8.4707,-6.28558 -13.987,-16.51426 -13.987,-28.04499 0,-2.92994 0.376,-5.76297 1.0463,-8.48161 -0.2782,-0.008 -0.5457,-0.0566 -0.826,-0.0566 z m 165.1461,24.7657 c -0.8288,0 -1.6306,0.0969 -2.423,0.22617 0.044,0.71926 0.055,1.41813 0.055,2.14864 0,9.19735 -3.5342,17.54444 -9.2515,23.74828 2.8128,3.35848 6.9442,5.48469 11.6196,5.48469 8.5161,0 15.4186,-7.03139 15.4186,-15.77495 0,-8.74426 -6.9031,-15.83171 -15.4186,-15.83171 z m -133.6509,1.69626 c -8.5157,0 -15.3648,7.03183 -15.3648,15.77496 0,8.74384 6.8484,15.8317 15.3648,15.8317 6.5273,0 12.0679,-4.18205 14.3173,-10.06477 -5.4901,-5.74125 -9.4356,-13.06567 -11.1789,-21.20402 -1.0203,-0.21662 -2.0557,-0.33927 -3.1389,-0.33927 z m 168.8913,13.28774 v 31.26895 h -16.1346 c -10.5475,0 -19.1086,8.847 -19.1086,19.67718 0,10.82849 8.5613,19.62042 19.1086,19.62042 h 6.2778 c 3.0942,0 6.184,-1.543 8.6457,-3.90152 2.4618,-2.3585 4.3407,-5.62546 4.4055,-9.27313 0.1106,-6.26087 0,-24.48331 0,-24.48331 v -32.90788 h -3.194 z m -147.526,14.13588 v 43.25517 c 0,7.2698 5.8058,13.17465 12.8861,13.17465 v -3.27958 c -5.3573,0 -9.6921,-4.39419 -9.6921,-9.89507 v -41.22033 c -1.1118,-0.61373 -2.1439,-1.32604 -3.194,-2.03555 z m -31.9402,4.01461 c -5.6571,5.54245 -9.1965,13.34607 -9.1965,21.99583 0,16.78243 13.2833,30.42038 29.6269,30.42038 v -3.27958 c -14.62,0 -26.4331,-12.128 -26.4331,-27.14109 0,-8.07478 3.4327,-15.33223 8.866,-20.29871 -1.0154,-0.48034 -1.9561,-1.04298 -2.8635,-1.69626 z m -37.6118,13.00508 c -10.5476,0 -19.1086,8.79052 -19.1086,19.62042 v 18.15035 h 3.194 v -18.15035 c 0,-9.06055 7.0908,-16.39789 15.9148,-16.39789 8.8259,0 15.9702,7.33705 15.9702,16.39789 v 18.15035 h 3.194 v -18.15035 c 0,-10.83003 -8.6149,-19.62042 -19.1639,-19.62042 z m 107.2178,0.11309 c -10.5481,0 -19.1085,8.84658 -19.1085,19.67719 0,10.83061 8.5606,19.67718 19.1085,19.67718 10.5481,0 19.1639,-8.84657 19.1639,-19.67718 0,-10.83061 -8.6158,-19.67719 -19.1639,-19.67719 z m -213.225,0.0565 c -10.5473,0 -19.1639,8.79095 -19.1639,19.62042 0,10.82976 8.6166,19.62043 19.1639,19.62043 10.5472,0 19.1085,-8.79095 19.1085,-19.62043 0,-10.82976 -8.5615,-19.62042 -19.1085,-19.62042 z m 28.6912,1.47007 v 24.59684 c 0,7.27008 5.752,13.17465 12.8309,13.17465 4.8248,0 9.0819,-2.73908 11.2891,-6.7852 2.1914,4.04612 6.4102,6.7852 11.234,6.7852 7.0802,0 12.8859,-5.90457 12.8859,-13.17465 v -24.59684 h -3.194 v 24.59684 c 0,5.50059 -4.3347,9.89507 -9.692,9.89507 -5.3575,0 -9.637,-4.39448 -9.637,-9.89507 v -24.59684 h -3.194 v 24.59684 c 0,5.50087 -4.3328,9.89507 -9.6921,9.89507 -5.3556,0 -9.6369,-4.39448 -9.6369,-9.89507 v -24.59684 h -3.194 z m 212.0642,0 v 18.15035 c 0,10.82848 8.5613,19.62043 19.1085,19.62043 10.5475,0 19.1639,-8.79195 19.1639,-19.62043 v -18.15035 h -3.194 v 18.15035 c 0,9.05843 -7.1459,16.34114 -15.9702,16.34114 -8.824,0 -15.9148,-7.28257 -15.9148,-16.34114 v -18.15035 h -3.194 z m -27.5345,1.75289 c 8.8247,0 15.97,7.33648 15.97,16.39789 0,9.06113 -7.145,16.39789 -15.97,16.39789 -8.8248,0 -15.9149,-7.33648 -15.9149,-16.39789 0,-9.06113 7.0901,-16.39789 15.9149,-16.39789 z m 93.7269,0 h 16.1346 c 0.014,2.16694 0.1014,17.09319 0,22.78762 -0.045,2.53404 -1.3986,5.07659 -3.3592,6.95491 -1.9605,1.87818 -4.4975,2.99678 -6.498,2.99678 h -6.2778 c -8.824,0 -15.9148,-7.28256 -15.9148,-16.34114 0,-9.06055 7.0908,-16.39789 15.9148,-16.39789 z m -306.9506,0.0566 c 8.8239,0 15.9148,7.28085 15.9148,16.34113 0,9.06027 -7.0909,16.34113 -15.9148,16.34113 -8.8239,0 -15.9701,-7.28086 -15.9701,-16.34113 0,-9.06028 7.1459,-16.34113 15.9701,-16.34113 z"
         id="path4426" />
      <g
         id="text4428"
         style="font-size:43px;font-style:normal;font-weight:normal;line-height:100%;letter-spacing:0px;word-spacing:0px;fill:#ffffff;fill-opacity:1;stroke:none;font-family:Sans"
         transform="matrix(1.3819757,0,0,1.4189936,3254.5327,462.61197)">
        <path
           id="path3124"
           style="font-variant:normal;font-stretch:normal;line-height:100%;letter-spacing:-1.33000028px;fill:#ffffff;fill-opacity:1;font-family:Source Sans Pro;-inkscape-font-specification:Source Sans Pro"
           d="m -595.04128,35.022488 c 0,-2.264651 0.31533,-4.299982 0.946,-6.106 0.63066,-1.805978 1.50499,-3.339643 2.623,-4.601 1.11799,-1.261308 2.43666,-2.22164 3.956,-2.881 1.54799,-0.687972 3.22498,-1.031972 5.031,-1.032 1.71998,2.8e-5 3.22498,0.358361 4.515,1.075 1.28998,0.688027 2.35064,1.490693 3.182,2.408 l -2.021,2.279 c -0.74536,-0.802643 -1.57669,-1.433309 -2.494,-1.892 -0.88869,-0.487308 -1.93502,-0.730975 -3.139,-0.731 -1.34735,2.5e-5 -2.56568,0.272358 -3.655,0.817 -1.08935,0.516024 -2.02101,1.27569 -2.795,2.279 -0.77401,0.974688 -1.37601,2.164353 -1.806,3.569 -0.43001,1.404684 -0.64501,2.981349 -0.645,4.73 -10e-6,1.777345 0.20066,3.382677 0.602,4.816 0.42999,1.404674 1.01766,2.608673 1.763,3.612 0.74532,1.003338 1.64832,1.777337 2.709,2.322 1.08932,0.544669 2.30765,0.817002 3.655,0.817 1.37598,2e-6 2.56565,-0.272331 3.569,-0.817 1.03198,-0.544663 2.00664,-1.318662 2.924,-2.322 l 2.021,2.193 c -1.11802,1.290002 -2.37936,2.293334 -3.784,3.01 -1.40469,0.716666 -3.01002,1.074999 -4.816,1.075 -1.77735,-10e-7 -3.42568,-0.329667 -4.945,-0.989 -1.49068,-0.659332 -2.79501,-1.605332 -3.913,-2.838 -1.08934,-1.261329 -1.94934,-2.794994 -2.58,-4.601 -0.60201,-1.834657 -0.903,-3.898655 -0.903,-6.192"
           inkscape:connector-curvature="0" />
        <path
           id="path3126"
           style="font-variant:normal;font-stretch:normal;line-height:100%;letter-spacing:-1.33000028px;fill:#ffffff;fill-opacity:1;font-family:Source Sans Pro;-inkscape-font-specification:Source Sans Pro"
           d="m -561.06761,49.642488 c -1.77735,-10e-7 -3.41134,-0.344 -4.902,-1.032 -1.46201,-0.687999 -2.72334,-1.662665 -3.784,-2.924 -1.06067,-1.289996 -1.892,-2.837994 -2.494,-4.644 -0.57334,-1.834657 -0.86,-3.884322 -0.86,-6.149 0,-2.26465 0.28666,-4.285648 0.86,-6.063 0.602,-1.805978 1.43333,-3.32531 2.494,-4.558 1.06066,-1.261307 2.32199,-2.22164 3.784,-2.881 1.49066,-0.659305 3.12465,-0.988972 4.902,-0.989 1.77732,2.8e-5 3.39698,0.344028 4.859,1.032 1.49065,0.65936 2.76631,1.619692 3.827,2.881 1.08931,1.23269 1.92064,2.752022 2.494,4.558 0.60197,1.777352 0.90297,3.784016 0.903,6.02 -3e-5,2.264678 -0.30103,4.314343 -0.903,6.149 -0.57336,1.806006 -1.40469,3.354004 -2.494,4.644 -1.06069,1.261335 -2.33635,2.236001 -3.827,2.924 -1.46202,0.688 -3.08168,1.031999 -4.859,1.032 m 0,-3.139 c 1.26132,2e-6 2.39365,-0.272331 3.397,-0.817 1.03198,-0.544663 1.90631,-1.318662 2.623,-2.322 0.74531,-1.031993 1.31864,-2.250326 1.72,-3.655 0.40131,-1.433323 0.60198,-3.038654 0.602,-4.816 -2e-5,-1.748651 -0.20069,-3.325316 -0.602,-4.73 -0.40136,-1.404647 -0.97469,-2.594312 -1.72,-3.569 -0.71669,-0.974643 -1.59102,-1.719976 -2.623,-2.236 -1.00335,-0.544642 -2.13568,-0.816975 -3.397,-0.817 -1.26135,2.5e-5 -2.40801,0.272358 -3.44,0.817 -1.00334,0.516024 -1.87768,1.261357 -2.623,2.236 -0.71667,0.974688 -1.27567,2.164353 -1.677,3.569 -0.40134,1.404684 -0.60201,2.981349 -0.602,4.73 -10e-6,1.777346 0.20066,3.382677 0.602,4.816 0.40133,1.404674 0.96033,2.623007 1.677,3.655 0.74532,1.003338 1.61966,1.777337 2.623,2.322 1.03199,0.544669 2.17865,0.817002 3.44,0.817"
           inkscape:connector-curvature="0" />
        <path
           id="path3128"
           style="font-variant:normal;font-stretch:normal;line-height:100%;letter-spacing:-1.33000028px;fill:#ffffff;fill-opacity:1;font-family:Source Sans Pro;-inkscape-font-specification:Source Sans Pro"
           d="m -544.24892,20.918488 3.698,0 10.191,17.716 3.053,5.848 0.172,0 c -0.086,-1.433328 -0.18636,-2.909659 -0.301,-4.429 -0.086,-1.54799 -0.12902,-3.067321 -0.129,-4.558 l 0,-14.577 3.397,0 0,28.208 -3.698,0 -10.234,-17.759 -3.053,-5.805 -0.172,0 c 0.11466,1.433355 0.21499,2.895354 0.301,4.386 0.11466,1.462017 0.17199,2.938349 0.172,4.429 l 0,14.749 -3.397,0 0,-28.208"
           inkscape:connector-curvature="0" />
        <path
           id="path3130"
           style="font-variant:normal;font-stretch:normal;line-height:100%;letter-spacing:-1.33000028px;fill:#ffffff;fill-opacity:1;font-family:Source Sans Pro;-inkscape-font-specification:Source Sans Pro"
           d="m -511.93209,23.928488 -8.514,0 0,-3.01 20.64,0 0,3.01 -8.514,0 0,25.198 -3.612,0 0,-25.198"
           inkscape:connector-curvature="0" />
        <path
           id="path3132"
           style="font-variant:normal;font-stretch:normal;line-height:100%;letter-spacing:-1.33000028px;fill:#ffffff;fill-opacity:1;font-family:Source Sans Pro;-inkscape-font-specification:Source Sans Pro"
           d="m -492.52938,34.291488 4.73,0 c 2.20732,1.5e-5 3.89865,-0.444318 5.074,-1.333 1.17532,-0.917317 1.76298,-2.293315 1.763,-4.128 -2e-5,-1.863311 -0.58768,-3.167643 -1.763,-3.913 -1.17535,-0.745309 -2.86668,-1.117975 -5.074,-1.118 l -4.73,0 0,10.492 m 11.911,14.835 -6.794,-11.911 -5.117,0 0,11.911 -3.569,0 0,-28.208 8.815,0 c 1.43332,2.8e-5 2.75199,0.143361 3.956,0.43 1.23265,0.258027 2.27898,0.70236 3.139,1.333 0.88865,0.630692 1.57665,1.447691 2.064,2.451 0.48731,1.003356 0.73098,2.236021 0.731,3.698 -2e-5,2.207351 -0.57335,3.970349 -1.72,5.289 -1.14668,1.31868 -2.68035,2.221679 -4.601,2.709 l 7.138,12.298 -4.042,0"
           inkscape:connector-curvature="0" />
        <path
           id="path3134"
           style="font-variant:normal;font-stretch:normal;line-height:100%;letter-spacing:-1.33000028px;fill:#ffffff;fill-opacity:1;font-family:Source Sans Pro;-inkscape-font-specification:Source Sans Pro"
           d="m -472.48502,20.918488 3.569,0 0,28.208 -3.569,0 0,-28.208"
           inkscape:connector-curvature="0" />
        <path
           id="path3136"
           style="font-variant:normal;font-stretch:normal;line-height:100%;letter-spacing:-1.33000028px;fill:#ffffff;fill-opacity:1;font-family:Source Sans Pro;-inkscape-font-specification:Source Sans Pro"
           d="m -462.47712,20.918488 8.385,0 c 1.43332,2.8e-5 2.73765,0.129028 3.913,0.387 1.20398,0.258027 2.22165,0.65936 3.053,1.204 0.85998,0.544692 1.51931,1.261358 1.978,2.15 0.48731,0.860023 0.73098,1.906356 0.731,3.139 -2e-5,1.404686 -0.40136,2.680352 -1.204,3.827 -0.80269,1.118016 -2.03535,1.892015 -3.698,2.322 l 0,0.172 c 2.06398,0.315348 3.66931,1.032014 4.816,2.15 1.14664,1.118011 1.71997,2.651677 1.72,4.601 -3e-5,1.376007 -0.25803,2.580005 -0.774,3.612 -0.51602,1.032003 -1.24702,1.892002 -2.193,2.58 -0.94602,0.688001 -2.07835,1.204001 -3.397,1.548 -1.31868,0.344 -2.76635,0.516 -4.343,0.516 l -8.987,0 0,-28.208 m 7.74,12.04 c 2.43665,1.6e-5 4.17098,-0.41565 5.203,-1.247 1.06065,-0.831315 1.59098,-2.035314 1.591,-3.612 -2e-5,-1.547978 -0.55902,-2.651643 -1.677,-3.311 -1.08935,-0.687975 -2.73768,-1.031975 -4.945,-1.032 l -4.343,0 0,9.202 4.171,0 m 0.731,13.33 c 2.43665,3e-6 4.32865,-0.44433 5.676,-1.333 1.34731,-0.917329 2.02098,-2.336327 2.021,-4.257 -2e-5,-1.748657 -0.65935,-3.024322 -1.978,-3.827 -1.31869,-0.831321 -3.22502,-1.246987 -5.719,-1.247 l -4.902,0 0,10.664 4.902,0"
           inkscape:connector-curvature="0" />
        <path
           id="path3138"
           style="font-variant:normal;font-stretch:normal;line-height:100%;letter-spacing:-1.33000028px;fill:#ffffff;fill-opacity:1;font-family:Source Sans Pro;-inkscape-font-specification:Source Sans Pro"
           d="m -438.65683,20.918488 3.569,0 0,16.641 c 0,1.691343 0.172,3.110342 0.516,4.257 0.34399,1.146673 0.80266,2.064005 1.376,2.752 0.60199,0.688004 1.30433,1.18967 2.107,1.505 0.80266,0.286669 1.66266,0.430002 2.58,0.43 0.94599,2e-6 1.82032,-0.143331 2.623,-0.43 0.80265,-0.31533 1.50498,-0.816996 2.107,-1.505 0.60198,-0.687995 1.07498,-1.605327 1.419,-2.752 0.34398,-1.146658 0.51598,-2.565657 0.516,-4.257 l 0,-16.641 3.44,0 0,16.555 c -2e-5,2.264676 -0.25802,4.171007 -0.774,5.719 -0.51602,1.548004 -1.23269,2.809336 -2.15,3.784 -0.88868,0.946001 -1.94935,1.634 -3.182,2.064 -1.23268,0.401333 -2.56568,0.601999 -3.999,0.602 -1.43334,-10e-7 -2.78067,-0.200667 -4.042,-0.602 -1.23267,-0.43 -2.30767,-1.117999 -3.225,-2.064 -0.88867,-0.974664 -1.591,-2.235996 -2.107,-3.784 -0.516,-1.547993 -0.774,-3.454324 -0.774,-5.719 l 0,-16.555"
           inkscape:connector-curvature="0" />
        <path
           id="path3140"
           style="font-variant:normal;font-stretch:normal;line-height:100%;letter-spacing:-1.33000028px;fill:#ffffff;fill-opacity:1;font-family:Source Sans Pro;-inkscape-font-specification:Source Sans Pro"
           d="m -406.29499,23.928488 -8.514,0 0,-3.01 20.64,0 0,3.01 -8.514,0 0,25.198 -3.612,0 0,-25.198"
           inkscape:connector-curvature="0" />
        <path
           id="path3142"
           style="font-variant:normal;font-stretch:normal;line-height:100%;letter-spacing:-1.33000028px;fill:#ffffff;fill-opacity:1;font-family:Source Sans Pro;-inkscape-font-specification:Source Sans Pro"
           d="m -381.06308,49.642488 c -1.77735,-10e-7 -3.41135,-0.344 -4.902,-1.032 -1.46201,-0.687999 -2.72334,-1.662665 -3.784,-2.924 -1.06067,-1.289996 -1.892,-2.837994 -2.494,-4.644 -0.57334,-1.834657 -0.86,-3.884322 -0.86,-6.149 0,-2.26465 0.28666,-4.285648 0.86,-6.063 0.602,-1.805978 1.43333,-3.32531 2.494,-4.558 1.06066,-1.261307 2.32199,-2.22164 3.784,-2.881 1.49065,-0.659305 3.12465,-0.988972 4.902,-0.989 1.77732,2.8e-5 3.39698,0.344028 4.859,1.032 1.49065,0.65936 2.76631,1.619692 3.827,2.881 1.08931,1.23269 1.92064,2.752022 2.494,4.558 0.60197,1.777352 0.90297,3.784016 0.903,6.02 -3e-5,2.264678 -0.30103,4.314343 -0.903,6.149 -0.57336,1.806006 -1.40469,3.354004 -2.494,4.644 -1.06069,1.261335 -2.33635,2.236001 -3.827,2.924 -1.46202,0.688 -3.08168,1.031999 -4.859,1.032 m 0,-3.139 c 1.26132,2e-6 2.39365,-0.272331 3.397,-0.817 1.03198,-0.544663 1.90631,-1.318662 2.623,-2.322 0.74531,-1.031993 1.31864,-2.250326 1.72,-3.655 0.40131,-1.433323 0.60198,-3.038654 0.602,-4.816 -2e-5,-1.748651 -0.20069,-3.325316 -0.602,-4.73 -0.40136,-1.404647 -0.97469,-2.594312 -1.72,-3.569 -0.71669,-0.974643 -1.59102,-1.719976 -2.623,-2.236 -1.00335,-0.544642 -2.13568,-0.816975 -3.397,-0.817 -1.26135,2.5e-5 -2.40801,0.272358 -3.44,0.817 -1.00334,0.516024 -1.87768,1.261357 -2.623,2.236 -0.71667,0.974688 -1.27567,2.164353 -1.677,3.569 -0.40134,1.404684 -0.60201,2.981349 -0.602,4.73 -10e-6,1.777346 0.20066,3.382677 0.602,4.816 0.40133,1.404674 0.96033,2.623007 1.677,3.655 0.74532,1.003338 1.61966,1.777337 2.623,2.322 1.03199,0.544669 2.17865,0.817002 3.44,0.817"
           inkscape:connector-curvature="0" />
        <path
           id="path3144"
           style="font-variant:normal;font-stretch:normal;line-height:100%;letter-spacing:-1.33000028px;fill:#ffffff;fill-opacity:1;font-family:Source Sans Pro;-inkscape-font-specification:Source Sans Pro"
           d="m -360.6754,34.291488 4.73,0 c 2.20732,1.5e-5 3.89866,-0.444318 5.074,-1.333 1.17532,-0.917317 1.76299,-2.293315 1.763,-4.128 -10e-6,-1.863311 -0.58768,-3.167643 -1.763,-3.913 -1.17534,-0.745309 -2.86668,-1.117975 -5.074,-1.118 l -4.73,0 0,10.492 m 11.911,14.835 -6.794,-11.911 -5.117,0 0,11.911 -3.569,0 0,-28.208 8.815,0 c 1.43332,2.8e-5 2.75199,0.143361 3.956,0.43 1.23265,0.258027 2.27899,0.70236 3.139,1.333 0.88865,0.630692 1.57665,1.447691 2.064,2.451 0.48732,1.003356 0.73098,2.236021 0.731,3.698 -2e-5,2.207351 -0.57335,3.970349 -1.72,5.289 -1.14668,1.31868 -2.68035,2.221679 -4.601,2.709 l 7.138,12.298 -4.042,0"
           inkscape:connector-curvature="0" />
        <path
           id="path3146"
           style="font-variant:normal;font-weight:bold;font-stretch:normal;line-height:100%;fill:#ffffff;fill-opacity:1;font-family:Source Sans Pro;-inkscape-font-specification:Source Sans Pro Bold"
           d="m -595.29928,78.280488 c 0,-2.321984 0.35833,-4.385982 1.075,-6.192 0.71666,-1.834645 1.67699,-3.382644 2.881,-4.644 1.23266,-1.261308 2.65166,-2.22164 4.257,-2.881 1.63399,-0.659305 3.35398,-0.988972 5.16,-0.989 1.74865,2.8e-5 3.32531,0.372695 4.73,1.118 1.43331,0.716693 2.62297,1.562359 3.569,2.537 l -3.483,3.913 c -0.71669,-0.659312 -1.44769,-1.175311 -2.193,-1.548 -0.71669,-0.372644 -1.56235,-0.558977 -2.537,-0.559 -0.97468,2.3e-5 -1.89202,0.215023 -2.752,0.645 -0.83135,0.401355 -1.56235,0.989021 -2.193,1.763 -0.63068,0.77402 -1.13235,1.720019 -1.505,2.838 -0.34401,1.118016 -0.51601,2.379349 -0.516,3.784 -10e-6,2.895344 0.61632,5.145675 1.849,6.751 1.23265,1.576672 2.88098,2.365005 4.945,2.365 1.14665,5e-6 2.14998,-0.229328 3.01,-0.688 0.85998,-0.458661 1.63398,-1.06066 2.322,-1.806 l 3.483,3.827 c -1.17536,1.376002 -2.52269,2.408001 -4.042,3.096 -1.49069,0.688 -3.11035,1.031999 -4.859,1.032 -1.80602,-10e-7 -3.51168,-0.301 -5.117,-0.903 -1.60534,-0.630666 -3.01001,-1.547998 -4.214,-2.752 -1.20401,-1.203996 -2.15001,-2.694661 -2.838,-4.472 -0.68801,-1.805991 -1.032,-3.884322 -1.032,-6.235"
           inkscape:connector-curvature="0" />
        <path
           id="path3148"
           style="font-variant:normal;font-weight:bold;font-stretch:normal;line-height:100%;fill:#ffffff;fill-opacity:1;font-family:Source Sans Pro;-inkscape-font-specification:Source Sans Pro Bold"
           d="m -559.13964,92.642488 c -1.89201,-10e-7 -3.62635,-0.329667 -5.203,-0.989 -1.54801,-0.687999 -2.88101,-1.662665 -3.999,-2.924 -1.11801,-1.261329 -1.99234,-2.794994 -2.623,-4.601 -0.602,-1.80599 -0.903,-3.855655 -0.903,-6.149 0,-2.293317 0.301,-4.328648 0.903,-6.106 0.63066,-1.805978 1.50499,-3.310977 2.623,-4.515 1.11799,-1.232641 2.45099,-2.164307 3.999,-2.795 1.57665,-0.659305 3.31099,-0.988972 5.203,-0.989 1.89198,2.8e-5 3.61198,0.329695 5.16,0.989 1.57664,0.630693 2.92398,1.562359 4.042,2.795 1.11797,1.23269 1.97797,2.752022 2.58,4.558 0.63064,1.777351 0.94597,3.798349 0.946,6.063 -3e-5,2.293345 -0.31536,4.34301 -0.946,6.149 -0.60203,1.806006 -1.46203,3.339671 -2.58,4.601 -1.11802,1.261335 -2.46536,2.236001 -4.042,2.924 -1.54802,0.659333 -3.26802,0.988999 -5.16,0.989 m 0,-5.461 c 1.92065,5e-6 3.43998,-0.816995 4.558,-2.451 1.11798,-1.662658 1.67698,-3.912989 1.677,-6.751 -2e-5,-2.809317 -0.55902,-5.002314 -1.677,-6.579 -1.11802,-1.576645 -2.63735,-2.364977 -4.558,-2.365 -1.92068,2.3e-5 -3.44001,0.788355 -4.558,2.365 -1.11801,1.576686 -1.67701,3.769683 -1.677,6.579 -10e-6,2.838011 0.55899,5.088342 1.677,6.751 1.11799,1.634005 2.63732,2.451005 4.558,2.451"
           inkscape:connector-curvature="0" />
        <path
           id="path3150"
           style="font-variant:normal;font-weight:bold;font-stretch:normal;line-height:100%;fill:#ffffff;fill-opacity:1;font-family:Source Sans Pro;-inkscape-font-specification:Source Sans Pro Bold"
           d="m -541.14011,64.090488 6.493,0 7.31,13.932 2.752,6.192 0.172,0 c -0.14335,-1.490658 -0.31535,-3.153323 -0.516,-4.988 -0.17202,-1.834652 -0.25802,-3.583317 -0.258,-5.246 l 0,-9.89 6.02,0 0,28.036 -6.493,0 -7.31,-13.975 -2.752,-6.106 -0.172,0 c 0.14332,1.548018 0.30099,3.210683 0.473,4.988 0.20066,1.777346 0.30099,3.497345 0.301,5.16 l 0,9.933 -6.02,0 0,-28.036"
           inkscape:connector-curvature="0" />
        <path
           id="path3152"
           style="font-variant:normal;font-weight:bold;font-stretch:normal;line-height:100%;fill:#ffffff;fill-opacity:1;font-family:Source Sans Pro;-inkscape-font-specification:Source Sans Pro Bold"
           d="m -512.58542,64.090488 17.673,0 0,5.332 -11.352,0 0,6.493 9.718,0 0,5.332 -9.718,0 0,10.879 -6.321,0 0,-28.036"
           inkscape:connector-curvature="0" />
        <path
           id="path3154"
           style="font-variant:normal;font-weight:bold;font-stretch:normal;line-height:100%;fill:#ffffff;fill-opacity:1;font-family:Source Sans Pro;-inkscape-font-specification:Source Sans Pro Bold"
           d="m -490.07761,64.090488 17.544,0 0,5.332 -11.223,0 0,5.633 9.546,0 0,5.289 -9.546,0 0,6.45 11.653,0 0,5.332 -17.974,0 0,-28.036"
           inkscape:connector-curvature="0" />
        <path
           id="path3156"
           style="font-variant:normal;font-weight:bold;font-stretch:normal;line-height:100%;fill:#ffffff;fill-opacity:1;font-family:Source Sans Pro;-inkscape-font-specification:Source Sans Pro Bold"
           d="m -460.157,76.990488 3.268,0 c 1.66265,1.5e-5 2.92398,-0.343985 3.784,-1.032 0.88865,-0.71665 1.33298,-1.762982 1.333,-3.139 -2e-5,-1.37598 -0.44435,-2.336312 -1.333,-2.881 -0.86002,-0.544644 -2.12135,-0.816977 -3.784,-0.817 l -3.268,0 0,7.869 m 8.858,15.136 -5.375,-10.105 -3.483,0 0,10.105 -6.321,0 0,-28.036 10.105,0 c 1.49065,2.8e-5 2.88098,0.143361 4.171,0.43 1.31865,0.286694 2.46531,0.774027 3.44,1.462 0.97464,0.659359 1.74864,1.548024 2.322,2.666 0.57331,1.118022 0.85997,2.508354 0.86,4.171 -3e-5,2.064017 -0.45869,3.769682 -1.376,5.117 -0.88869,1.318679 -2.09269,2.307678 -3.612,2.967 l 6.364,11.223 -7.095,0"
           inkscape:connector-curvature="0" />
        <path
           id="path3158"
           style="font-variant:normal;font-weight:bold;font-stretch:normal;line-height:100%;fill:#ffffff;fill-opacity:1;font-family:Source Sans Pro;-inkscape-font-specification:Source Sans Pro Bold"
           d="m -440.02292,64.090488 17.544,0 0,5.332 -11.223,0 0,5.633 9.546,0 0,5.289 -9.546,0 0,6.45 11.653,0 0,5.332 -17.974,0 0,-28.036"
           inkscape:connector-curvature="0" />
        <path
           id="path3160"
           style="font-variant:normal;font-weight:bold;font-stretch:normal;line-height:100%;fill:#ffffff;fill-opacity:1;font-family:Source Sans Pro;-inkscape-font-specification:Source Sans Pro Bold"
           d="m -416.42331,64.090488 6.493,0 7.31,13.932 2.752,6.192 0.172,0 c -0.14336,-1.490658 -0.31536,-3.153323 -0.516,-4.988 -0.17202,-1.834652 -0.25802,-3.583317 -0.258,-5.246 l 0,-9.89 6.02,0 0,28.036 -6.493,0 -7.31,-13.975 -2.752,-6.106 -0.172,0 c 0.14332,1.548018 0.30099,3.210683 0.473,4.988 0.20065,1.777346 0.30099,3.497345 0.301,5.16 l 0,9.933 -6.02,0 0,-28.036"
           inkscape:connector-curvature="0" />
        <path
           id="path3162"
           style="font-variant:normal;font-weight:bold;font-stretch:normal;line-height:100%;fill:#ffffff;fill-opacity:1;font-family:Source Sans Pro;-inkscape-font-specification:Source Sans Pro Bold"
           d="m -389.20163,78.280488 c 0,-2.321984 0.35833,-4.385982 1.075,-6.192 0.71667,-1.834645 1.677,-3.382644 2.881,-4.644 1.23266,-1.261308 2.65166,-2.22164 4.257,-2.881 1.63399,-0.659305 3.35399,-0.988972 5.16,-0.989 1.74865,2.8e-5 3.32532,0.372695 4.73,1.118 1.43332,0.716693 2.62298,1.562359 3.569,2.537 l -3.483,3.913 c -0.71668,-0.659312 -1.44768,-1.175311 -2.193,-1.548 -0.71668,-0.372644 -1.56235,-0.558977 -2.537,-0.559 -0.97468,2.3e-5 -1.89201,0.215023 -2.752,0.645 -0.83134,0.401355 -1.56234,0.989021 -2.193,1.763 -0.63067,0.77402 -1.13234,1.720019 -1.505,2.838 -0.34401,1.118016 -0.516,2.379349 -0.516,3.784 0,2.895344 0.61633,5.145675 1.849,6.751 1.23266,1.576672 2.88099,2.365005 4.945,2.365 1.14665,5e-6 2.14999,-0.229328 3.01,-0.688 0.85998,-0.458661 1.63398,-1.06066 2.322,-1.806 l 3.483,3.827 c -1.17535,1.376002 -2.52268,2.408001 -4.042,3.096 -1.49068,0.688 -3.11035,1.031999 -4.859,1.032 -1.80601,-10e-7 -3.51167,-0.301 -5.117,-0.903 -1.60534,-0.630666 -3.01,-1.547998 -4.214,-2.752 -1.204,-1.203996 -2.15,-2.694661 -2.838,-4.472 -0.688,-1.805991 -1.032,-3.884322 -1.032,-6.235"
           inkscape:connector-curvature="0" />
        <path
           id="path3164"
           style="font-variant:normal;font-weight:bold;font-stretch:normal;line-height:100%;fill:#ffffff;fill-opacity:1;font-family:Source Sans Pro;-inkscape-font-specification:Source Sans Pro Bold"
           d="m -362.84128,64.090488 17.544,0 0,5.332 -11.223,0 0,5.633 9.546,0 0,5.289 -9.546,0 0,6.45 11.653,0 0,5.332 -17.974,0 0,-28.036"
           inkscape:connector-curvature="0" />
      </g>
      <text
         xml:space="preserve"
         style="font-size:8px;font-style:normal;font-variant:normal;font-weight:normal;font-stretch:normal;line-height:125%;letter-spacing:0px;word-spacing:0px;fill:#000000;fill-opacity:1;stroke:none;font-family:Open Sans;-inkscape-font-specification:Open Sans"
         x="2428.4121"
         y="649.80182"
         id="text4729"
         sodipodi:linespacing="125%"><tspan
           sodipodi:role="line"
           id="tspan4731"
           x="2428.4121"
           y="649.80182"
           style="font-size:48px;fill:#ffffff">#owncloudconf</tspan></text>
    </g>
    <text
       xml:space="preserve"
       style="font-size:207.015625px;font-style:normal;font-variant:normal;font-weight:normal;font-stretch:normal;text-align:center;line-height:100%;letter-spacing:0px;word-spacing:0px;text-anchor:middle;fill:#ffffff;fill-opacity:1;stroke:none;font-family:Open Sans;-inkscape-font-specification:Open Sans"
       x="-3546.0422"
       y="974.1676"
       id="text3079"
       sodipodi:linespacing="100%"><tspan
         sodipodi:role="line"
         x="-3546.0422"
         y="974.1676"
         style="font-size:143.760849px;font-weight:normal;text-align:center;line-height:100%;text-anchor:middle;-inkscape-font-specification:Open Sans"
         id="tspan5048" /><tspan
         sodipodi:role="line"
         x="-3546.0422"
         y="1099.2793"
         style="font-size:120px;font-weight:bold;text-align:center;line-height:100%;text-anchor:middle;-inkscape-font-specification:Open Sans Bold"
         id="tspan5061">there's an</tspan><tspan
         sodipodi:role="line"
         x="-3546.0422"
         y="1219.2793"
         style="font-size:120px;font-weight:bold;text-align:center;line-height:100%;text-anchor:middle;-inkscape-font-specification:Open Sans Bold"
         id="tspan5052">app for that</tspan></text>
    <path
       inkscape:connector-curvature="0"
       d="m -3596.9888,1702.9262 c -7.9144,0 -14.2858,6.3714 -14.2858,14.2858 v 28.5714 c 0,7.9142 6.3714,14.2856 14.2858,14.2856 7.9142,0 14.2856,-6.3714 14.2856,-14.2856 v -28.5714 c 0,-7.9144 -6.3714,-14.2858 -14.2856,-14.2858 z m 114.2856,0 c -7.9142,0 -14.2856,6.3714 -14.2856,14.2858 v 28.5714 c 0,7.9142 6.3714,14.2856 14.2856,14.2856 7.9144,0 14.2858,-6.3714 14.2858,-14.2856 v -28.5714 c 0,-7.9144 -6.3714,-14.2858 -14.2858,-14.2858 z m -92.857,28.5714 v 14.2858 c 0,11.8714 -9.5572,21.4286 -21.4286,21.4286 -11.8714,0 -21.4286,-9.5572 -21.4286,-21.4286 v -13.393 c -12.3428,3.1608 -21.4286,14.323 -21.4286,27.6786 v 114.2858 c 0,15.8286 12.7428,28.5714 28.5714,28.5714 h 142.8572 c 15.8286,0 28.5714,-12.7428 28.5714,-28.5714 V 1760.069 c 0,-13.3556 -9.0858,-24.5178 -21.4286,-27.6786 v 13.393 c 0,11.8714 -9.5572,21.4286 -21.4286,21.4286 -11.8714,0 -21.4286,-9.5572 -21.4286,-21.4286 v -14.2858 z m -35.0444,71.4286 h 141.5144 c 0.3928,0 0.6714,0.2714 0.6714,0.6714 v 70.0872 c 0,0.3928 -0.2714,0.6714 -0.6714,0.6714 h -141.5144 c -0.3928,0 -0.6714,-0.2714 -0.6714,-0.6714 v -70.0872 c 0,-0.4 0.2714,-0.6714 0.6714,-0.6714 z"
       id="path3237"
       style="opacity:0.25;fill:#ffffff;fill-opacity:1;stroke:none" />
    <path
       inkscape:connector-curvature="0"
       style="text-indent:0;text-transform:none;block-progression:tb;opacity:0.25;color:#000000;fill:#ffffff;fill-opacity:1;stroke:none"
       d="m -3340.2409,1736.2451 c -13.9632,0 -25.8086,10.2119 -25.8086,23.3902 0.1,4.1649 0.4714,9.3019 2.957,20.1638 v 0.2714 l 0.2715,0.2714 c 0.7978,2.2857 1.9592,3.5928 3.4949,5.3771 1.5356,1.7835 3.367,3.8834 5.1084,5.6455 0.2072,0.2072 0.3357,0.3357 0.5357,0.5357 0.3429,1.5029 0.7636,3.12 1.075,4.5707 0.8293,3.8599 0.7443,6.5927 0.5357,7.5276 -5.9999,2.1071 -13.4647,4.6156 -20.1631,7.5277 -3.7606,1.635 -7.1634,3.0949 -9.9469,4.8392 -2.7835,1.7449 -5.552,3.0628 -6.452,6.9905 0,0.1786 0,0.3572 0,0.5357 -0.8793,8.0741 -2.2092,19.9467 -3.2264,27.9608 -0.2214,1.6864 0.6715,3.4649 2.1507,4.3013 12.1619,6.5699 30.8436,9.2134 49.4667,9.1413 18.6231,-0.072 37.1563,-2.8721 48.9289,-9.1413 1.4814,-0.8364 2.3706,-2.6149 2.1506,-4.3013 -0.3214,-2.5049 -0.7228,-8.1534 -1.0749,-13.7118 -0.35,-5.5577 -0.6572,-11.0247 -1.0757,-14.249 -0.1429,-0.7992 -0.5214,-1.5549 -1.075,-2.1506 -3.7399,-4.4663 -9.3269,-7.1963 -15.8618,-9.9476 -5.9656,-2.5121 -12.959,-5.1206 -19.8938,-8.0656 -0.3857,-0.865 -0.7743,-3.3806 0,-7.2591 0.2071,-1.0414 0.5357,-2.1571 0.8064,-3.2263 0.65,-0.73 1.1593,-1.3264 1.8814,-2.1507 1.5407,-1.7585 3.1956,-3.6028 4.5706,-5.377 1.375,-1.775 2.4999,-3.2978 3.2264,-5.377 l 0.2714,-0.2715 c 2.8099,-11.3418 2.8113,-16.0739 2.9571,-20.1638 v -0.2714 c 0,-13.1783 -11.8455,-23.3902 -25.8087,-23.3902 z m 73.8269,-21.4638 c -20.3581,0 -37.6277,14.8875 -37.6277,34.1007 0.1428,6.0727 0.6857,13.5611 4.3113,29.3971 v 0.3929 l 0.3929,0.3928 c 1.1635,3.3321 2.8563,5.2385 5.0956,7.8391 2.2392,2.6007 4.9084,5.662 7.4469,8.2313 0.3,0.3 0.4929,0.4928 0.7843,0.7842 0.5,2.1907 1.1128,4.5478 1.5678,6.6627 1.2093,5.6271 1.085,9.6112 0.7836,10.9748 -8.7477,3.0721 -19.631,6.7298 -29.3965,10.9747 -5.482,2.3835 -10.444,4.5121 -14.5025,7.0556 -4.0585,2.5435 -8.0948,4.4649 -9.4069,10.1912 0,0.2642 0,0.5214 0,0.7842 -1.2821,11.7712 -3.2214,29.0801 -4.7035,40.7634 -0.3214,2.4592 0.9764,5.052 3.1357,6.2713 17.731,9.5776 44.9682,13.4325 72.1197,13.3268 27.1515,-0.1072 54.1716,-4.1871 71.3362,-13.3268 2.1592,-1.2193 3.4556,-3.8121 3.1356,-6.2713 -0.4714,-3.6521 -1.0542,-11.8869 -1.5678,-19.9896 -0.5143,-8.1026 -0.9585,-16.0739 -1.5678,-20.7738 -0.2143,-1.1649 -0.7628,-2.2663 -1.5678,-3.1356 -5.452,-6.5106 -13.599,-10.4912 -23.1252,-14.5025 -8.6977,-3.6621 -18.8938,-7.4656 -29.005,-11.7583 -0.5643,-1.2607 -1.1279,-4.9285 0,-10.5826 0.3,-1.5186 0.7778,-3.1442 1.1764,-4.7035 0.9499,-1.0643 1.6906,-1.9342 2.7435,-3.1356 2.2456,-2.5628 4.6584,-5.2521 6.6634,-7.8391 2.0042,-2.5878 3.6449,-4.8071 4.7034,-7.8391 l 0.3929,-0.3929 c 4.097,-16.5346 4.0992,-23.4344 4.3113,-29.3972 v -0.3928 c 0,-19.2124 -17.2703,-34.1006 -37.6277,-34.1006 z"
       id="path3227" />
    <path
       style="opacity:0.25;fill:#ffffff;fill-rule:evenodd"
       inkscape:connector-curvature="0"
       d="m -3885.3168,887.21708 c -3.5793,0 -6.5764,2.9978 -6.5764,6.5771 v 172.55562 c 0,3.6957 2.88,6.5764 6.5764,6.5764 h 186.8422 c 3.6971,0 6.5771,-2.88 6.5771,-6.5764 l 0,-101.09902 c 0,-3.5792 -2.9964,-6.6092 -6.5771,-6.6092 h -150.5625 l -0.01,78.60642 c 0,3.43 -3.7428,6.9792 -7.1721,6.9792 -3.43,0 -7.1121,-3.5492 -7.1121,-6.9792 l 0.01,-86.73492 c 0,-3.4293 2.8907,-6.1578 6.3207,-6.1578 h 32.8169 l 103.7214,0 -0.01,-21.0827 c 0,-4.0506 -3.0393,-7.4863 -7.0885,-7.4863 h -92.9072 v -21.9934 c 0,-3.58 -2.8986,-6.5771 -6.4778,-6.5771 z"
       id="path3217" />
    <path
       style="opacity:0.25;fill:#ffffff"
       inkscape:connector-curvature="0"
       d="m -3720.4015,1172.9413 c -31.4263,5.0646 -73.4857,10.2779 -104.8253,15.6251 -8.2993,4.0493 -6.4333,14.4759 -6.8006,22.0411 v 101.2788 c -17.4898,-3.288 -38.8176,11.1632 -39.7428,34.0449 -1.51,14.2458 11.1225,26.6457 24.8596,26.979 24.595,0.6 41.4169,-15.7212 41.6835,-36.3576 -0.2666,-34.6582 0.08,-69.3325 0,-103.9921 3.808,-0.28 61.4793,-11.2865 66.6658,-12.0191 v 77.8857 c -15.2851,-3.6613 -34.8248,6.3832 -39.6694,26.8963 -2.0447,11.4985 1.8199,25.931 13.4871,30.7997 22.7758,10.4659 54.0427,-10.7339 52.7714,-35.6136 -0.3534,-46.2148 0.2866,-92.4522 0,-138.6716 -0.6,-4.346 -3.5467,-9.2106 -8.4333,-8.8973 z"
       id="path3207" />
    <path
       inkscape:connector-curvature="0"
       style="text-indent:0;text-transform:none;block-progression:tb;opacity:0.25;color:#000000;fill:#ffffff"
       d="m -3887.5955,1732.9268 c -2.4681,0.475 -4.3412,2.9175 -4.2969,5.4687 v 139.062 c 0,2.8625 2.6494,5.4687 5.4688,5.4687 h 189.0617 c 2.8194,-6e-4 5.4688,-2.6062 5.4688,-5.4687 v -136.912 c 0,-4.2069 -3.3063,-7.6431 -6.4437,-7.6187 z m 14.4531,18.7499 h 162.4993 v 62.4998 l -12.4999,-12.5 -31.2499,43.7498 -41.4061,-24.9999 -57.4216,43.7499 h -19.9218 z m 37.4998,18.7499 c -10.3556,0 -18.7499,8.3944 -18.7499,18.75 0,10.3555 8.3943,18.7499 18.7499,18.7499 10.3556,0 18.75,-8.3944 18.75,-18.7499 0,-10.3556 -8.3944,-18.75 -18.75,-18.75 z"
       id="path3197" />
    <path
       style="opacity:0.25;fill:#ffffff;fill-opacity:1;fill-rule:nonzero;stroke:none;stroke-width:0.99227136;marker:none;visibility:visible;display:inline;overflow:visible"
       id="path1307"
       d="m -3791.8932,1442.9262 c 6.7492,0 28.5077,57.0848 33.9677,61.2512 5.46,4.1665 63.8762,8.2607 65.962,15.0021 2.0849,6.7414 -42.8828,46.1156 -44.9685,52.857 -2.0857,6.7414 17.1307,66.357 11.6707,70.5234 -5.46,4.1664 -59.8827,-28.5842 -66.6319,-28.5842 -6.7493,0 -61.172,32.7506 -66.632,28.5842 -5.46,-4.1664 13.7564,-63.782 11.6707,-70.5234 -2.0857,-6.7414 -47.0534,-46.1156 -44.9684,-52.857 2.0857,-6.7414 60.5019,-10.8356 65.9619,-15.0021 5.46,-4.1664 27.2185,-61.2512 33.9678,-61.2512 z"
       sodipodi:nodetypes="csssssssssc"
       inkscape:connector-curvature="0" />
    <path
       inkscape:connector-curvature="0"
       style="text-indent:0;text-transform:none;block-progression:tb;opacity:0.25000000000000000;color:#000000;fill:#ffffff;fill-opacity:1"
       d="m -3366.893,882.98335 c -2.8204,0.55 -5.0501,3.3324 -4.9994,6.2478 V 1076.677 c 0,3.271 2.9318,6.2492 6.1535,6.2492 h 144.8232 c 3.2217,0 6.1441,-2.9767 6.1441,-6.2484 V 931.79745 c -0.071,-0.9548 -0.2999,-1.8983 -0.757,-2.7339 -13.791,-19.8487 -29.0746,-34.5539 -47.3007,-45.6909 -0.6142,-0.2357 -1.2713,-0.3643 -1.9283,-0.3928 h -100.9792 c -0.3856,-0.072 -0.7706,-0.072 -1.1541,0 z m 80.7033,35.6809 c 0,-3.3667 3.7752,-7.1419 7.1419,-7.1419 h 7.1419 v 28.5676 h 28.5675 v 7.1419 c 0,3.3666 -3.7752,7.1418 -7.1419,7.1418 h -28.5675 c -3.3667,0 -7.1419,-3.7752 -7.1419,-7.1418 0,-6.6291 0,-21.3071 0,-28.5676 z"
       id="path3675" />
    <path
       style="opacity:0.25;fill:#ffffff"
       inkscape:connector-curvature="0"
       d="m -3539.8459,882.92622 -66.6667,120.00008 h 73.3333 l -6.6666,79.9999 66.6666,-119.99998 h -73.3333 z"
       id="path3789" />
    <path
       style="opacity:0.25;fill:#ffffff"
       inkscape:connector-curvature="0"
       d="m -3611.2746,1172.9262 c -15.8285,0 -28.5714,12.7429 -28.5714,28.5714 v 142.8572 c 0,15.8285 12.7429,28.5714 28.5714,28.5714 h 142.8572 c 15.8285,0 28.5714,-12.7429 28.5714,-28.5714 v -119.4215 l -6.4714,6.4772 -37.7286,-37.7272 20.7643,-20.7585 h -147.9929 z m 112.9429,35.0443 37.7286,37.7271 -59.3786,59.3715 -62.7214,25 25,-62.7215 59.3714,-59.3771 z m -52.9,65.6271 -18.9714,31.4715 12.5,12.5 31.4714,-18.9715 -25,-25 z"
       id="path3940" />
    <path
       style="opacity:0.25;fill:#ffffff"
       inkscape:connector-curvature="0"
       d="m -3384.7503,1172.9262 c -3.9572,0 -7.1429,3.1857 -7.1429,7.1429 v 14.2857 c 0,3.9571 3.1857,7.1428 7.1429,7.1428 h 185.7142 c 3.9572,0 7.1429,-3.1857 7.1429,-7.1428 v -14.2857 c 0,-3.9572 -3.1857,-7.1429 -7.1429,-7.1429 h -185.7142 z m 0,57.1429 c -3.9572,0 -7.1429,3.1857 -7.1429,7.1428 v 14.2857 c 0,3.9572 3.1857,7.1429 7.1429,7.1429 h 128.5714 c 3.9571,0 7.1428,-3.1857 7.1428,-7.1429 v -14.2857 c 0,-3.9571 -3.1857,-7.1428 -7.1428,-7.1428 h -128.5714 z m 0,57.1428 c -3.9572,0 -7.1429,3.1857 -7.1429,7.1429 v 14.2857 c 0,3.9571 3.1857,7.1428 7.1429,7.1428 h 171.4285 c 3.9572,0 7.1429,-3.1857 7.1429,-7.1428 v -14.2857 c 0,-3.9572 -3.1857,-7.1429 -7.1429,-7.1429 h -171.4285 z m 0,57.1429 c -3.9572,0 -7.1429,3.1857 -7.1429,7.1428 v 14.2857 c 0,3.9572 3.1857,7.1429 7.1429,7.1429 h 85.7142 c 3.9572,0 7.1429,-3.1857 7.1429,-7.1429 v -14.2857 c 0,-3.9571 -3.1857,-7.1428 -7.1429,-7.1428 h -85.7142 z"
       id="path4042" />
    <path
       style="opacity:0.25;fill:#ffffff;stroke:#ffffff;stroke-width:0.75000006;stroke-miterlimit:10"
       inkscape:connector-curvature="0"
       stroke-miterlimit="10"
       d="m -3303.2647,1642.5512 c 0,0 1.8626,-5.1668 4.0487,-9.8645 35.2952,-76.2748 80.6295,-126.4993 100.7365,-149.3024 16.2812,-18.4662 9.9097,-15.5581 2.6968,-10.8459 -29.4127,19.1878 -84.4409,80.8643 -105.4828,102.2458 -3.8977,3.9328 -12.7215,13.2272 -14.7063,13.2272 -2.2509,0 -9.7659,-3.4709 -14.0591,-6.011 -16.4107,-9.6553 -32.1022,-19.0723 -41.9544,-22.6299 -20.9772,-7.5698 -15.0443,-0.3753 -13.8505,2.0277 3.7467,7.5193 54.4098,48.2689 71.1872,67.5144 5.1921,5.9462 11.3839,13.6386 11.3839,13.6386 z"
       id="path4172" />
    <text
       sodipodi:linespacing="100%"
       id="text5073"
       y="1286.1676"
       x="-3546.0422"
       style="font-size:207.015625px;font-style:normal;font-variant:normal;font-weight:normal;font-stretch:normal;text-align:center;line-height:100%;letter-spacing:0px;word-spacing:0px;text-anchor:middle;fill:#ffffff;fill-opacity:1;stroke:none;font-family:Open Sans;-inkscape-font-specification:Open Sans"
       xml:space="preserve"><tspan
         id="tspan5075"
         style="font-size:143.760849px;font-weight:normal;text-align:center;line-height:100%;text-anchor:middle;-inkscape-font-specification:Open Sans"
         y="1286.1676"
         x="-3546.0422"
         sodipodi:role="line" /><tspan
         id="tspan5083"
         style="font-size:120px;font-weight:normal;text-align:center;line-height:100%;text-anchor:middle;-inkscape-font-specification:Open Sans"
         y="1411.2793"
         x="-3546.0422"
         sodipodi:role="line">you</tspan><tspan
         id="tspan5085"
         style="font-size:180px;font-weight:bold;text-align:center;line-height:100%;text-anchor:middle;-inkscape-font-specification:Open Sans Bold"
         y="1578.3715"
         x="-3546.0422"
         sodipodi:role="line">BUILT IT</tspan></text>
  </g>
</svg>
